<?xml version="1.0" encoding="UTF-8" standalone="no"?>
<!DOCTYPE svg PUBLIC "-//W3C//DTD SVG 1.1//EN"
 "http://www.w3.org/Graphics/SVG/1.1/DTD/svg11.dtd">
<!-- Generated by graphviz version 2.42.3 (0)
 -->
<!-- Title: DockerDeps Pages: 1 -->
<svg width="1646pt" height="693pt"
 viewBox="0.00 0.00 1646.00 693.25" xmlns="http://www.w3.org/2000/svg" xmlns:xlink="http://www.w3.org/1999/xlink">
<g id="graph0" class="graph" transform="scale(1 1) rotate(0) translate(4 689.25)">
<title>DockerDeps</title>
<polygon fill="white" stroke="transparent" points="-4,4 -4,-689.25 1642,-689.25 1642,4 -4,4"/>
<g id="clust1" class="cluster">
<title>clusterDockerfile</title>
<polygon fill="none" stroke="royalblue" points="139,-116 139,-606.25 1177,-606.25 1177,-116 139,-116"/>
<text text-anchor="middle" x="658" y="-591.05" font-family="Times,serif" font-size="14.00">docker/&lt;distro&gt;/Dockerfile</text>
</g>
<g id="clust2" class="cluster">
<title>clusterCache</title>
<polygon fill="none" stroke="royalblue" points="46,-8 46,-83 1421,-83 1421,-8 46,-8"/>
<text text-anchor="middle" x="733.5" y="-67.8" font-family="Times,serif" font-size="14.00">cache/&lt;distro&gt;/</text>
</g>
<!-- DISTRO_IMG -->
<g id="node1" class="node">
<title>DISTRO_IMG</title>
<path fill="royalblue" stroke="black" d="M975,-680.98C975,-682.78 946.31,-684.25 911,-684.25 875.69,-684.25 847,-682.78 847,-680.98 847,-680.98 847,-651.52 847,-651.52 847,-649.72 875.69,-648.25 911,-648.25 946.31,-648.25 975,-649.72 975,-651.52 975,-651.52 975,-680.98 975,-680.98"/>
<path fill="none" stroke="black" d="M975,-680.98C975,-679.17 946.31,-677.7 911,-677.7 875.69,-677.7 847,-679.17 847,-680.98"/>
<text text-anchor="middle" x="911" y="-662.55" font-family="Times,serif" font-size="14.00">&lt;distro&gt;:latest</text>
</g>
<!-- ENV_IMG -->
<g id="node5" class="node">
<title>ENV_IMG</title>
<path fill="royalblue" stroke="black" d="M1168.5,-570.6C1168.5,-573.24 1120.32,-575.38 1061,-575.38 1001.68,-575.38 953.5,-573.24 953.5,-570.6 953.5,-570.6 953.5,-527.65 953.5,-527.65 953.5,-525.01 1001.68,-522.87 1061,-522.87 1120.32,-522.87 1168.5,-525.01 1168.5,-527.65 1168.5,-527.65 1168.5,-570.6 1168.5,-570.6"/>
<path fill="none" stroke="black" d="M1168.5,-570.6C1168.5,-567.97 1120.32,-565.83 1061,-565.83 1001.68,-565.83 953.5,-567.97 953.5,-570.6"/>
<text text-anchor="middle" x="1061" y="-552.92" font-family="Times,serif" font-size="14.00">dotnet&#45;native:&lt;distro&gt;_env</text>
<text text-anchor="middle" x="1061" y="-537.92" font-family="Times,serif" font-size="14.00">env</text>
</g>
<!-- DISTRO_IMG&#45;&gt;ENV_IMG -->
<g id="edge6" class="edge">
<title>DISTRO_IMG&#45;&gt;ENV_IMG</title>
<path fill="none" stroke="black" d="M933.46,-648.01C956.29,-630.49 992.19,-602.94 1020.09,-581.52"/>
<polygon fill="black" stroke="black" points="1022.3,-584.24 1028.1,-575.38 1018.04,-578.69 1022.3,-584.24"/>
</g>
<!-- PKG -->
<g id="node2" class="node">
<title>PKG</title>
<polygon fill="royalblue" stroke="black" points="1128.5,-685.25 997.5,-685.25 993.5,-681.25 993.5,-647.25 1124.5,-647.25 1128.5,-651.25 1128.5,-685.25"/>
<polyline fill="none" stroke="black" points="1124.5,-681.25 993.5,-681.25 "/>
<polyline fill="none" stroke="black" points="1124.5,-681.25 1124.5,-647.25 "/>
<polyline fill="none" stroke="black" points="1124.5,-681.25 1128.5,-685.25 "/>
<text text-anchor="middle" x="1061" y="-670.05" font-family="Times,serif" font-size="14.00">Build packages</text>
<text text-anchor="middle" x="1061" y="-655.05" font-family="Times,serif" font-size="14.00">e.g. cmake, g++</text>
</g>
<!-- PKG&#45;&gt;ENV_IMG -->
<g id="edge7" class="edge">
<title>PKG&#45;&gt;ENV_IMG</title>
<path fill="none" stroke="black" stroke-dasharray="5,2" d="M1061,-647.01C1061,-630.59 1061,-606.01 1061,-585.72"/>
<polygon fill="black" stroke="black" points="1064.5,-585.56 1061,-575.56 1057.5,-585.56 1064.5,-585.56"/>
<text text-anchor="middle" x="1083.5" y="-618.05" font-family="Times,serif" font-size="14.00">install</text>
</g>
<!-- DOTNETPKG -->
<g id="node3" class="node">
<title>DOTNETPKG</title>
<polygon fill="forestgreen" stroke="black" points="1265,-685.25 1151,-685.25 1147,-681.25 1147,-647.25 1261,-647.25 1265,-651.25 1265,-685.25"/>
<polyline fill="none" stroke="black" points="1261,-681.25 1147,-681.25 "/>
<polyline fill="none" stroke="black" points="1261,-681.25 1261,-647.25 "/>
<polyline fill="none" stroke="black" points="1261,-681.25 1265,-685.25 "/>
<text text-anchor="middle" x="1206" y="-670.05" font-family="Times,serif" font-size="14.00">.Net packages</text>
<text text-anchor="middle" x="1206" y="-655.05" font-family="Times,serif" font-size="14.00">e.g. dotnet&#45;cli</text>
</g>
<!-- DOTNETPKG&#45;&gt;ENV_IMG -->
<g id="edge8" class="edge">
<title>DOTNETPKG&#45;&gt;ENV_IMG</title>
<path fill="none" stroke="black" stroke-dasharray="5,2" d="M1183.02,-647.01C1160.95,-629.48 1127.15,-602.64 1100.71,-581.66"/>
<polygon fill="black" stroke="black" points="1102.77,-578.82 1092.77,-575.35 1098.42,-584.3 1102.77,-578.82"/>
<text text-anchor="middle" x="1181.5" y="-618.05" font-family="Times,serif" font-size="14.00">install</text>
</g>
<!-- SRC -->
<g id="node4" class="node">
<title>SRC</title>
<polygon fill="royalblue" stroke="black" points="1259.5,-567.12 1256.5,-571.12 1235.5,-571.12 1232.5,-567.12 1186.5,-567.12 1186.5,-531.12 1259.5,-531.12 1259.5,-567.12"/>
<text text-anchor="middle" x="1223" y="-545.42" font-family="Times,serif" font-size="14.00">git repo</text>
</g>
<!-- DEVEL_IMG -->
<g id="node6" class="node">
<title>DEVEL_IMG</title>
<path fill="royalblue" stroke="black" d="M1168.5,-467.35C1168.5,-469.99 1117.63,-472.13 1055,-472.13 992.37,-472.13 941.5,-469.99 941.5,-467.35 941.5,-467.35 941.5,-424.4 941.5,-424.4 941.5,-421.76 992.37,-419.62 1055,-419.62 1117.63,-419.62 1168.5,-421.76 1168.5,-424.4 1168.5,-424.4 1168.5,-467.35 1168.5,-467.35"/>
<path fill="none" stroke="black" d="M1168.5,-467.35C1168.5,-464.72 1117.63,-462.58 1055,-462.58 992.37,-462.58 941.5,-464.72 941.5,-467.35"/>
<text text-anchor="middle" x="1055" y="-449.68" font-family="Times,serif" font-size="14.00">dotnet&#45;native:&lt;distro&gt;_devel</text>
<text text-anchor="middle" x="1055" y="-434.68" font-family="Times,serif" font-size="14.00">devel</text>
</g>
<!-- SRC&#45;&gt;DEVEL_IMG -->
<g id="edge9" class="edge">
<title>SRC&#45;&gt;DEVEL_IMG</title>
<path fill="none" stroke="black" stroke-dasharray="5,2" d="M1194.5,-530.95C1170.24,-516.33 1134.79,-494.96 1105.7,-477.43"/>
<polygon fill="black" stroke="black" points="1107.27,-474.29 1096.9,-472.12 1103.65,-480.28 1107.27,-474.29"/>
<text text-anchor="middle" x="1166" y="-493.8" font-family="Times,serif" font-size="14.00">copy</text>
</g>
<!-- ENV_IMG&#45;&gt;DEVEL_IMG -->
<g id="edge1" class="edge">
<title>ENV_IMG&#45;&gt;DEVEL_IMG</title>
<path fill="none" stroke="black" d="M1059.5,-522.84C1058.78,-510.63 1057.9,-495.79 1057.11,-482.47"/>
<polygon fill="black" stroke="black" points="1060.59,-481.97 1056.5,-472.19 1053.6,-482.38 1060.59,-481.97"/>
</g>
<!-- INSTALL_DEVEL_IMG -->
<g id="node10" class="node">
<title>INSTALL_DEVEL_IMG</title>
<path fill="royalblue" stroke="black" d="M1169,-274.85C1169,-277.49 1106.7,-279.63 1030,-279.63 953.3,-279.63 891,-277.49 891,-274.85 891,-274.85 891,-231.9 891,-231.9 891,-229.26 953.3,-227.12 1030,-227.12 1106.7,-227.12 1169,-229.26 1169,-231.9 1169,-231.9 1169,-274.85 1169,-274.85"/>
<path fill="none" stroke="black" d="M1169,-274.85C1169,-272.22 1106.7,-270.08 1030,-270.08 953.3,-270.08 891,-272.22 891,-274.85"/>
<text text-anchor="middle" x="1030" y="-257.18" font-family="Times,serif" font-size="14.00">dotnet&#45;native:&lt;distro&gt;_install_devel</text>
<text text-anchor="middle" x="1030" y="-242.18" font-family="Times,serif" font-size="14.00">install_devel</text>
</g>
<!-- ENV_IMG&#45;&gt;INSTALL_DEVEL_IMG -->
<g id="edge4" class="edge">
<title>ENV_IMG&#45;&gt;INSTALL_DEVEL_IMG</title>
<path fill="none" stroke="black" d="M990.72,-523.28C967.85,-511.47 945.02,-494.81 932,-472 900.82,-417.39 904.35,-386.99 932,-330.5 940.87,-312.37 956.37,-297.32 972.46,-285.52"/>
<polygon fill="black" stroke="black" points="974.69,-288.23 980.9,-279.64 970.69,-282.49 974.69,-288.23"/>
</g>
<!-- ENV_TAR -->
<g id="node13" class="node">
<title>ENV_TAR</title>
<polygon fill="royalblue" stroke="black" points="695,-52 581,-52 581,-16 701,-16 701,-46 695,-52"/>
<polyline fill="none" stroke="black" points="695,-52 695,-46 "/>
<polyline fill="none" stroke="black" points="701,-46 695,-46 "/>
<text text-anchor="middle" x="641" y="-30.3" font-family="Times,serif" font-size="14.00">docker_env.tar</text>
</g>
<!-- ENV_IMG&#45;&gt;ENV_TAR -->
<g id="edge10" class="edge">
<title>ENV_IMG&#45;&gt;ENV_TAR</title>
<path fill="none" stroke="red" d="M964.54,-524.39C863.09,-498.74 718,-459.8 718,-446.88 718,-446.88 718,-446.88 718,-149.12 718,-113.42 691.78,-80.52 669.94,-59.32"/>
<polygon fill="red" stroke="red" points="672.15,-56.59 662.45,-52.32 667.37,-61.7 672.15,-56.59"/>
<text text-anchor="middle" x="808.5" y="-301.3" font-family="Times,serif" font-size="14.00">make save_&lt;distro&gt;_env</text>
</g>
<!-- BUILD_IMG -->
<g id="node7" class="node">
<title>BUILD_IMG</title>
<path fill="royalblue" stroke="black" d="M1166.5,-378.1C1166.5,-380.74 1116.08,-382.88 1054,-382.88 991.92,-382.88 941.5,-380.74 941.5,-378.1 941.5,-378.1 941.5,-335.15 941.5,-335.15 941.5,-332.51 991.92,-330.37 1054,-330.37 1116.08,-330.37 1166.5,-332.51 1166.5,-335.15 1166.5,-335.15 1166.5,-378.1 1166.5,-378.1"/>
<path fill="none" stroke="black" d="M1166.5,-378.1C1166.5,-375.47 1116.08,-373.33 1054,-373.33 991.92,-373.33 941.5,-375.47 941.5,-378.1"/>
<text text-anchor="middle" x="1054" y="-360.43" font-family="Times,serif" font-size="14.00">dotnet&#45;native:&lt;distro&gt;_build</text>
<text text-anchor="middle" x="1054" y="-345.43" font-family="Times,serif" font-size="14.00">build</text>
</g>
<!-- DEVEL_IMG&#45;&gt;BUILD_IMG -->
<g id="edge2" class="edge">
<title>DEVEL_IMG&#45;&gt;BUILD_IMG</title>
<path fill="none" stroke="black" d="M1054.71,-419.64C1054.62,-411.32 1054.51,-401.91 1054.41,-392.97"/>
<polygon fill="black" stroke="black" points="1057.9,-392.76 1054.29,-382.8 1050.9,-392.84 1057.9,-392.76"/>
</g>
<!-- DEVEL_TAR -->
<g id="node14" class="node">
<title>DEVEL_TAR</title>
<polygon fill="royalblue" stroke="black" points="1406.5,-52 1277.5,-52 1277.5,-16 1412.5,-16 1412.5,-46 1406.5,-52"/>
<polyline fill="none" stroke="black" points="1406.5,-52 1406.5,-46 "/>
<polyline fill="none" stroke="black" points="1412.5,-46 1406.5,-46 "/>
<text text-anchor="middle" x="1345" y="-30.3" font-family="Times,serif" font-size="14.00">docker_devel.tar</text>
</g>
<!-- DEVEL_IMG&#45;&gt;DEVEL_TAR -->
<g id="edge11" class="edge">
<title>DEVEL_IMG&#45;&gt;DEVEL_TAR</title>
<path fill="none" stroke="red" d="M1168.59,-441.29C1283.72,-434.47 1445,-414.74 1445,-357.62 1445,-357.62 1445,-357.62 1445,-149.12 1445,-110.09 1411.5,-78.01 1383.28,-57.91"/>
<polygon fill="red" stroke="red" points="1384.96,-54.82 1374.73,-52.06 1381.01,-60.6 1384.96,-54.82"/>
<text text-anchor="middle" x="1541.5" y="-249.68" font-family="Times,serif" font-size="14.00">make save_&lt;distro&gt;_devel</text>
</g>
<!-- BUILD_IMG&#45;&gt;INSTALL_DEVEL_IMG -->
<g id="edge3" class="edge">
<title>BUILD_IMG&#45;&gt;INSTALL_DEVEL_IMG</title>
<path fill="none" stroke="black" stroke-dasharray="5,2" d="M1048.01,-330.34C1045.08,-318.01 1041.52,-302.99 1038.34,-289.57"/>
<polygon fill="black" stroke="black" points="1041.71,-288.62 1036,-279.69 1034.9,-290.23 1041.71,-288.62"/>
<text text-anchor="middle" x="1084" y="-301.3" font-family="Times,serif" font-size="14.00">copy install</text>
</g>
<!-- BUILD_TAR -->
<g id="node15" class="node">
<title>BUILD_TAR</title>
<polygon fill="royalblue" stroke="black" points="846.5,-52 719.5,-52 719.5,-16 852.5,-16 852.5,-46 846.5,-52"/>
<polyline fill="none" stroke="black" points="846.5,-52 846.5,-46 "/>
<polyline fill="none" stroke="black" points="852.5,-46 846.5,-46 "/>
<text text-anchor="middle" x="786" y="-30.3" font-family="Times,serif" font-size="14.00">docker_build.tar</text>
</g>
<!-- BUILD_IMG&#45;&gt;BUILD_TAR -->
<g id="edge12" class="edge">
<title>BUILD_IMG&#45;&gt;BUILD_TAR</title>
<path fill="none" stroke="red" d="M976.05,-330.99C944.77,-318.69 909.66,-301.64 882,-279.5 813.37,-224.55 793.66,-113.7 788.12,-62.31"/>
<polygon fill="red" stroke="red" points="791.59,-61.9 787.13,-52.29 784.63,-62.58 791.59,-61.9"/>
<text text-anchor="middle" x="922.5" y="-198.05" font-family="Times,serif" font-size="14.00">make save_&lt;distro&gt;_build</text>
</g>
<!-- TEST_IMG -->
<g id="node8" class="node">
<title>TEST_IMG</title>
<path fill="royalblue" stroke="black" d="M364.5,-570.6C364.5,-573.24 315.87,-575.38 256,-575.38 196.13,-575.38 147.5,-573.24 147.5,-570.6 147.5,-570.6 147.5,-527.65 147.5,-527.65 147.5,-525.01 196.13,-522.87 256,-522.87 315.87,-522.87 364.5,-525.01 364.5,-527.65 364.5,-527.65 364.5,-570.6 364.5,-570.6"/>
<path fill="none" stroke="black" d="M364.5,-570.6C364.5,-567.97 315.87,-565.83 256,-565.83 196.13,-565.83 147.5,-567.97 147.5,-570.6"/>
<text text-anchor="middle" x="256" y="-552.92" font-family="Times,serif" font-size="14.00">dotnet&#45;native:&lt;distro&gt;_test</text>
<text text-anchor="middle" x="256" y="-537.92" font-family="Times,serif" font-size="14.00">test</text>
</g>
<!-- TEST_TAR -->
<g id="node16" class="node">
<title>TEST_TAR</title>
<polygon fill="royalblue" stroke="black" points="173.5,-52 54.5,-52 54.5,-16 179.5,-16 179.5,-46 173.5,-52"/>
<polyline fill="none" stroke="black" points="173.5,-52 173.5,-46 "/>
<polyline fill="none" stroke="black" points="179.5,-46 173.5,-46 "/>
<text text-anchor="middle" x="117" y="-30.3" font-family="Times,serif" font-size="14.00">docker_test.tar</text>
</g>
<!-- TEST_IMG&#45;&gt;TEST_TAR -->
<g id="edge13" class="edge">
<title>TEST_IMG&#45;&gt;TEST_TAR</title>
<path fill="none" stroke="red" d="M147.43,-525.58C77.66,-507.86 0,-480.57 0,-446.88 0,-446.88 0,-446.88 0,-149.12 0,-107.76 37.95,-76.49 70.62,-57.24"/>
<polygon fill="red" stroke="red" points="72.68,-60.1 79.66,-52.13 69.23,-54 72.68,-60.1"/>
<text text-anchor="middle" x="91.5" y="-301.3" font-family="Times,serif" font-size="14.00">make save_&lt;distro&gt;_test</text>
</g>
<!-- INSTALL_ENV_IMG -->
<g id="node9" class="node">
<title>INSTALL_ENV_IMG</title>
<path fill="royalblue" stroke="black" d="M649,-570.6C649,-573.24 589.39,-575.38 516,-575.38 442.61,-575.38 383,-573.24 383,-570.6 383,-570.6 383,-527.65 383,-527.65 383,-525.01 442.61,-522.87 516,-522.87 589.39,-522.87 649,-525.01 649,-527.65 649,-527.65 649,-570.6 649,-570.6"/>
<path fill="none" stroke="black" d="M649,-570.6C649,-567.97 589.39,-565.83 516,-565.83 442.61,-565.83 383,-567.97 383,-570.6"/>
<text text-anchor="middle" x="516" y="-552.92" font-family="Times,serif" font-size="14.00">dotnet&#45;native:&lt;distro&gt;_install_env</text>
<text text-anchor="middle" x="516" y="-537.92" font-family="Times,serif" font-size="14.00">install_env</text>
</g>
<!-- INSTALL_ENV_TAR -->
<g id="node17" class="node">
<title>INSTALL_ENV_TAR</title>
<polygon fill="royalblue" stroke="black" points="362.5,-52 197.5,-52 197.5,-16 368.5,-16 368.5,-46 362.5,-52"/>
<polyline fill="none" stroke="black" points="362.5,-52 362.5,-46 "/>
<polyline fill="none" stroke="black" points="368.5,-46 362.5,-46 "/>
<text text-anchor="middle" x="283" y="-30.3" font-family="Times,serif" font-size="14.00">docker_install_env.tar</text>
</g>
<!-- INSTALL_ENV_IMG&#45;&gt;INSTALL_ENV_TAR -->
<g id="edge14" class="edge">
<title>INSTALL_ENV_IMG&#45;&gt;INSTALL_ENV_TAR</title>
<path fill="none" stroke="red" d="M411.05,-523.95C321.11,-501.72 206,-468.96 206,-446.88 206,-446.88 206,-446.88 206,-149.12 206,-113.42 232.22,-80.52 254.06,-59.32"/>
<polygon fill="red" stroke="red" points="256.63,-61.7 261.55,-52.32 251.85,-56.59 256.63,-61.7"/>
<text text-anchor="middle" x="322" y="-301.3" font-family="Times,serif" font-size="14.00">make save_&lt;distro&gt;_install_env</text>
</g>
<!-- INSTALL_BUILD_IMG -->
<g id="node11" class="node">
<title>INSTALL_BUILD_IMG</title>
<path fill="royalblue" stroke="black" d="M1137,-171.6C1137,-174.24 1075.15,-176.38 999,-176.38 922.85,-176.38 861,-174.24 861,-171.6 861,-171.6 861,-128.65 861,-128.65 861,-126.01 922.85,-123.87 999,-123.87 1075.15,-123.87 1137,-126.01 1137,-128.65 1137,-128.65 1137,-171.6 1137,-171.6"/>
<path fill="none" stroke="black" d="M1137,-171.6C1137,-168.97 1075.15,-166.83 999,-166.83 922.85,-166.83 861,-168.97 861,-171.6"/>
<text text-anchor="middle" x="999" y="-153.93" font-family="Times,serif" font-size="14.00">dotnet&#45;native:&lt;distro&gt;_install_build</text>
<text text-anchor="middle" x="999" y="-138.93" font-family="Times,serif" font-size="14.00">install_build</text>
</g>
<!-- INSTALL_DEVEL_IMG&#45;&gt;INSTALL_BUILD_IMG -->
<g id="edge5" class="edge">
<title>INSTALL_DEVEL_IMG&#45;&gt;INSTALL_BUILD_IMG</title>
<path fill="none" stroke="black" d="M1030.31,-226.99C1029.8,-216.62 1028.38,-204.65 1025,-194.25 1024.06,-191.35 1022.89,-188.44 1021.57,-185.58"/>
<polygon fill="black" stroke="black" points="1024.67,-183.94 1016.97,-176.66 1018.45,-187.15 1024.67,-183.94"/>
</g>
<!-- INSTALL_DEVEL_TAR -->
<g id="node18" class="node">
<title>INSTALL_DEVEL_TAR</title>
<polygon fill="royalblue" stroke="black" points="1253,-52 1073,-52 1073,-16 1259,-16 1259,-46 1253,-52"/>
<polyline fill="none" stroke="black" points="1253,-52 1253,-46 "/>
<polyline fill="none" stroke="black" points="1259,-46 1253,-46 "/>
<text text-anchor="middle" x="1166" y="-30.3" font-family="Times,serif" font-size="14.00">docker_install_devel.tar</text>
</g>
<!-- INSTALL_DEVEL_IMG&#45;&gt;INSTALL_DEVEL_TAR -->
<g id="edge15" class="edge">
<title>INSTALL_DEVEL_IMG&#45;&gt;INSTALL_DEVEL_TAR</title>
<path fill="none" stroke="red" d="M1087.05,-227.19C1108.71,-214.85 1131.6,-197.92 1146,-176.25 1168.71,-142.08 1170.4,-92.99 1168.77,-62.59"/>
<polygon fill="red" stroke="red" points="1172.24,-62.03 1168.05,-52.3 1165.26,-62.52 1172.24,-62.03"/>
<text text-anchor="middle" x="1288" y="-146.43" font-family="Times,serif" font-size="14.00">make save_&lt;distro&gt;_install_devel</text>
</g>
<!-- INSTALL_BUILD_TAR -->
<g id="node19" class="node">
<title>INSTALL_BUILD_TAR</title>
<polygon fill="royalblue" stroke="black" points="1049,-52 871,-52 871,-16 1055,-16 1055,-46 1049,-52"/>
<polyline fill="none" stroke="black" points="1049,-52 1049,-46 "/>
<polyline fill="none" stroke="black" points="1055,-46 1049,-46 "/>
<text text-anchor="middle" x="963" y="-30.3" font-family="Times,serif" font-size="14.00">docker_install_build.tar</text>
</g>
<!-- INSTALL_BUILD_IMG&#45;&gt;INSTALL_BUILD_TAR -->
<g id="edge16" class="edge">
<title>INSTALL_BUILD_IMG&#45;&gt;INSTALL_BUILD_TAR</title>
<path fill="none" stroke="red" d="M933.63,-123.96C927.05,-118.96 921.24,-113.02 917,-106 907.45,-90.19 918.38,-72.79 931.97,-59.17"/>
<polygon fill="red" stroke="red" points="934.72,-61.39 939.68,-52.02 929.97,-56.25 934.72,-61.39"/>
<text text-anchor="middle" x="1038" y="-94.8" font-family="Times,serif" font-size="14.00">make save_&lt;distro&gt;_install_build</text>
</g>
<!-- INSTALL_TEST_IMG -->
<g id="node12" class="node">
<title>INSTALL_TEST_IMG</title>
<path fill="royalblue" stroke="black" d="M935,-570.6C935,-573.24 874.94,-575.38 801,-575.38 727.06,-575.38 667,-573.24 667,-570.6 667,-570.6 667,-527.65 667,-527.65 667,-525.01 727.06,-522.87 801,-522.87 874.94,-522.87 935,-525.01 935,-527.65 935,-527.65 935,-570.6 935,-570.6"/>
<path fill="none" stroke="black" d="M935,-570.6C935,-567.97 874.94,-565.83 801,-565.83 727.06,-565.83 667,-567.97 667,-570.6"/>
<text text-anchor="middle" x="801" y="-552.92" font-family="Times,serif" font-size="14.00">dotnet&#45;native:&lt;distro&gt;_install_test</text>
<text text-anchor="middle" x="801" y="-537.92" font-family="Times,serif" font-size="14.00">install_test</text>
</g>
<!-- INSTALL_TEST_TAR -->
<g id="node20" class="node">
<title>INSTALL_TEST_TAR</title>
<polygon fill="royalblue" stroke="black" points="557,-52 387,-52 387,-16 563,-16 563,-46 557,-52"/>
<polyline fill="none" stroke="black" points="557,-52 557,-46 "/>
<polyline fill="none" stroke="black" points="563,-46 557,-46 "/>
<text text-anchor="middle" x="475" y="-30.3" font-family="Times,serif" font-size="14.00">docker_install_test.tar</text>
</g>
<!-- INSTALL_TEST_IMG&#45;&gt;INSTALL_TEST_TAR -->
<g id="edge17" class="edge">
<title>INSTALL_TEST_IMG&#45;&gt;INSTALL_TEST_TAR</title>
<path fill="none" stroke="red" d="M683.52,-524.32C585.24,-502.72 461,-470.7 461,-446.88 461,-446.88 461,-446.88 461,-149.12 461,-119.31 465.76,-85.44 469.73,-62.4"/>
<polygon fill="red" stroke="red" points="473.22,-62.78 471.54,-52.32 466.33,-61.55 473.22,-62.78"/>
<text text-anchor="middle" x="578" y="-301.3" font-family="Times,serif" font-size="14.00">make save_&lt;distro&gt;_install_test</text>
</g>
</g>
</svg>
