<?xml version="1.0" encoding="UTF-8" standalone="no"?>
<!DOCTYPE svg PUBLIC "-//W3C//DTD SVG 1.1//EN"
 "http://www.w3.org/Graphics/SVG/1.1/DTD/svg11.dtd">
<!-- Generated by graphviz version 2.38.0 (20140413.2041)
 -->
<!-- Title: Make Pages: 1 -->
<svg width="1249pt" height="541pt"
 viewBox="0.00 0.00 1249.00 541.00" xmlns="http://www.w3.org/2000/svg" xmlns:xlink="http://www.w3.org/1999/xlink">
<g id="graph0" class="graph" transform="scale(1 1) rotate(0) translate(4 537)">
<title>Make</title>
<polygon fill="white" stroke="none" points="-4,4 -4,-537 1245,-537 1245,4 -4,4"/>
<g id="clust1" class="cluster"><title>clusterLinux</title>
<polygon fill="none" stroke="crimson" points="8,-77 8,-328 422,-328 422,-77 8,-77"/>
<text text-anchor="middle" x="215" y="-84.8" font-family="Times,serif" font-size="14.00">Linux Host</text>
</g>
<g id="clust2" class="cluster"><title>clusterOsx</title>
<polygon fill="none" stroke="forestgreen" points="430,-77 430,-328 825,-328 825,-77 430,-77"/>
<text text-anchor="middle" x="627.5" y="-84.8" font-family="Times,serif" font-size="14.00">macOS Host</text>
</g>
<g id="clust3" class="cluster"><title>clusterWin</title>
<polygon fill="none" stroke="dodgerblue" points="833,-77 833,-328 1233,-328 1233,-77 833,-77"/>
<text text-anchor="middle" x="1033" y="-84.8" font-family="Times,serif" font-size="14.00">Windows Host</text>
</g>
<g id="clust4" class="cluster"><title>clusterAny</title>
<polygon fill="none" stroke="dimgrey" points="464,-361 464,-525 690,-525 690,-361 464,-361"/>
<text text-anchor="middle" x="577" y="-368.8" font-family="Times,serif" font-size="14.00">(Linux|macOS|Windows) Host</text>
</g>
<!-- CPP -->
<g id="node1" class="node"><title>CPP</title>
<polygon fill="royalblue" stroke="black" points="744,-36 674,-36 674,-0 750,-0 750,-30 744,-36"/>
<polyline fill="none" stroke="black" points="744,-36 744,-30 "/>
<polyline fill="none" stroke="black" points="750,-30 744,-30 "/>
<text text-anchor="middle" x="712" y="-14.3" font-family="Times,serif" font-size="14.00">Native.cpp</text>
</g>
<!-- LINUX_LIB -->
<g id="node2" class="node"><title>LINUX_LIB</title>
<polygon fill="royalblue" stroke="black" points="174,-233 16,-233 16,-229 12,-229 12,-225 16,-225 16,-203 12,-203 12,-199 16,-199 16,-195 174,-195 174,-233"/>
<polyline fill="none" stroke="black" points="16,-229 20,-229 20,-225 16,-225 "/>
<polyline fill="none" stroke="black" points="16,-203 20,-203 20,-199 16,-199 "/>
<text text-anchor="middle" x="95" y="-217.8" font-family="Times,serif" font-size="14.00">Native.so</text>
<text text-anchor="middle" x="95" y="-202.8" font-family="Times,serif" font-size="14.00">runtimes/linux&#45;x64/native</text>
</g>
<!-- CPP&#45;&gt;LINUX_LIB -->
<g id="edge16" class="edge"><title>CPP&#45;&gt;LINUX_LIB</title>
<path fill="none" stroke="black" stroke-dasharray="5,2" d="M673.937,-19.985C548.438,-23.5959 153.399,-37.9927 113,-77 84.4923,-104.525 85.4373,-153.72 89.5925,-184.789"/>
<polygon fill="black" stroke="black" points="86.1766,-185.604 91.1532,-194.957 93.0956,-184.542 86.1766,-185.604"/>
<text text-anchor="middle" x="127" y="-122.3" font-family="Times,serif" font-size="14.00">GCC</text>
</g>
<!-- LINUX_CS -->
<g id="node3" class="node"><title>LINUX_CS</title>
<polygon fill="darkviolet" stroke="black" points="408,-144 346,-144 346,-108 414,-108 414,-138 408,-144"/>
<polyline fill="none" stroke="black" points="408,-144 408,-138 "/>
<polyline fill="none" stroke="black" points="414,-138 408,-138 "/>
<text text-anchor="middle" x="380" y="-122.3" font-family="Times,serif" font-size="14.00">Native.cs</text>
</g>
<!-- CPP&#45;&gt;LINUX_CS -->
<g id="edge15" class="edge"><title>CPP&#45;&gt;LINUX_CS</title>
<path fill="none" stroke="black" d="M673.898,-19.6072C616.642,-22.0283 506.548,-32.6425 426,-77 415.627,-82.7122 406.181,-91.5551 398.584,-100.102"/>
<polygon fill="black" stroke="black" points="395.897,-97.8583 392.153,-107.77 401.261,-102.356 395.897,-97.8583"/>
<text text-anchor="middle" x="495" y="-57.8" font-family="Times,serif" font-size="14.00">SWIG</text>
</g>
<!-- OSX_LIB -->
<g id="node7" class="node"><title>OSX_LIB</title>
<polygon fill="royalblue" stroke="black" points="817.5,-233 668.5,-233 668.5,-229 664.5,-229 664.5,-225 668.5,-225 668.5,-203 664.5,-203 664.5,-199 668.5,-199 668.5,-195 817.5,-195 817.5,-233"/>
<polyline fill="none" stroke="black" points="668.5,-229 672.5,-229 672.5,-225 668.5,-225 "/>
<polyline fill="none" stroke="black" points="668.5,-203 672.5,-203 672.5,-199 668.5,-199 "/>
<text text-anchor="middle" x="743" y="-217.8" font-family="Times,serif" font-size="14.00">Native.dylib</text>
<text text-anchor="middle" x="743" y="-202.8" font-family="Times,serif" font-size="14.00">runtimes/osx&#45;x64/native</text>
</g>
<!-- CPP&#45;&gt;OSX_LIB -->
<g id="edge18" class="edge"><title>CPP&#45;&gt;OSX_LIB</title>
<path fill="none" stroke="black" stroke-dasharray="5,2" d="M721.951,-36.3137C724.681,-41.8055 727.342,-48.0103 729,-54 741.351,-98.6301 743.543,-152.745 743.576,-184.945"/>
<polygon fill="black" stroke="black" points="740.076,-184.959 743.516,-194.979 747.076,-185 740.076,-184.959"/>
<text text-anchor="middle" x="759.5" y="-122.3" font-family="Times,serif" font-size="14.00">Clang</text>
</g>
<!-- OSX_CS -->
<g id="node8" class="node"><title>OSX_CS</title>
<polygon fill="darkviolet" stroke="black" points="701,-144 639,-144 639,-108 707,-108 707,-138 701,-144"/>
<polyline fill="none" stroke="black" points="701,-144 701,-138 "/>
<polyline fill="none" stroke="black" points="707,-138 701,-138 "/>
<text text-anchor="middle" x="673" y="-122.3" font-family="Times,serif" font-size="14.00">Native.cs</text>
</g>
<!-- CPP&#45;&gt;OSX_CS -->
<g id="edge17" class="edge"><title>CPP&#45;&gt;OSX_CS</title>
<path fill="none" stroke="black" d="M701.743,-36.0752C698.658,-41.6607 695.447,-47.9789 693,-54 687.294,-68.0422 682.589,-84.2768 679.179,-97.6748"/>
<polygon fill="black" stroke="black" points="675.7,-97.1707 676.728,-107.716 682.5,-98.831 675.7,-97.1707"/>
<text text-anchor="middle" x="711" y="-57.8" font-family="Times,serif" font-size="14.00">SWIG</text>
</g>
<!-- WIN_LIB -->
<g id="node12" class="node"><title>WIN_LIB</title>
<polygon fill="royalblue" stroke="black" points="1225,-233 1075,-233 1075,-229 1071,-229 1071,-225 1075,-225 1075,-203 1071,-203 1071,-199 1075,-199 1075,-195 1225,-195 1225,-233"/>
<polyline fill="none" stroke="black" points="1075,-229 1079,-229 1079,-225 1075,-225 "/>
<polyline fill="none" stroke="black" points="1075,-203 1079,-203 1079,-199 1075,-199 "/>
<text text-anchor="middle" x="1150" y="-217.8" font-family="Times,serif" font-size="14.00">Native.dll</text>
<text text-anchor="middle" x="1150" y="-202.8" font-family="Times,serif" font-size="14.00">runtimes/win&#45;x64/native</text>
</g>
<!-- CPP&#45;&gt;WIN_LIB -->
<g id="edge20" class="edge"><title>CPP&#45;&gt;WIN_LIB</title>
<path fill="none" stroke="black" stroke-dasharray="5,2" d="M750.318,-19.0153C839.458,-19.9008 1056.89,-27.2341 1106,-77 1134.85,-106.231 1144.78,-154.502 1148.21,-184.981"/>
<polygon fill="black" stroke="black" points="1144.72,-185.341 1149.17,-194.96 1151.69,-184.671 1144.72,-185.341"/>
<text text-anchor="middle" x="1164.5" y="-122.3" font-family="Times,serif" font-size="14.00">VS 2017</text>
</g>
<!-- WIN_CS -->
<g id="node13" class="node"><title>WIN_CS</title>
<polygon fill="darkviolet" stroke="black" points="1091,-144 1029,-144 1029,-108 1097,-108 1097,-138 1091,-144"/>
<polyline fill="none" stroke="black" points="1091,-144 1091,-138 "/>
<polyline fill="none" stroke="black" points="1097,-138 1091,-138 "/>
<text text-anchor="middle" x="1063" y="-122.3" font-family="Times,serif" font-size="14.00">Native.cs</text>
</g>
<!-- CPP&#45;&gt;WIN_CS -->
<g id="edge19" class="edge"><title>CPP&#45;&gt;WIN_CS</title>
<path fill="none" stroke="black" d="M750.191,-18.5112C811.168,-19.3414 932.543,-27.7108 1020,-77 1029.9,-82.5781 1038.71,-91.2835 1045.74,-99.7574"/>
<polygon fill="black" stroke="black" points="1043.01,-101.951 1051.91,-107.701 1048.54,-97.657 1043.01,-101.951"/>
<text text-anchor="middle" x="1016" y="-57.8" font-family="Times,serif" font-size="14.00">SWIG</text>
</g>
<!-- LINUX_NUPKG -->
<g id="node6" class="node"><title>LINUX_NUPKG</title>
<polygon fill="darkviolet" stroke="black" points="412,-320 409,-324 388,-324 385,-320 194,-320 194,-284 412,-284 412,-320"/>
<text text-anchor="middle" x="303" y="-298.3" font-family="Times,serif" font-size="14.00">runtime.linux&#45;x64.Mizux.Foo.nupkg</text>
</g>
<!-- LINUX_LIB&#45;&gt;LINUX_NUPKG -->
<g id="edge4" class="edge"><title>LINUX_LIB&#45;&gt;LINUX_NUPKG</title>
<path fill="none" stroke="black" d="M138.604,-233.028C171.706,-246.715 217.3,-265.566 252.077,-279.945"/>
<polygon fill="black" stroke="black" points="251.001,-283.288 261.579,-283.874 253.675,-276.819 251.001,-283.288"/>
<text text-anchor="middle" x="250" y="-254.8" font-family="Times,serif" font-size="14.00">dotnet pack</text>
</g>
<!-- LINUX_DLL -->
<g id="node5" class="node"><title>LINUX_DLL</title>
<polygon fill="darkviolet" stroke="black" points="414,-233 192,-233 192,-229 188,-229 188,-225 192,-225 192,-203 188,-203 188,-199 192,-199 192,-195 414,-195 414,-233"/>
<polyline fill="none" stroke="black" points="192,-229 196,-229 196,-225 192,-225 "/>
<polyline fill="none" stroke="black" points="192,-203 196,-203 196,-199 192,-199 "/>
<text text-anchor="middle" x="303" y="-217.8" font-family="Times,serif" font-size="14.00">Mizux.Foo.dll</text>
<text text-anchor="middle" x="303" y="-202.8" font-family="Times,serif" font-size="14.00">runtimes/linux&#45;x64/lib/netstandard2.0</text>
</g>
<!-- LINUX_CS&#45;&gt;LINUX_DLL -->
<g id="edge1" class="edge"><title>LINUX_CS&#45;&gt;LINUX_DLL</title>
<path fill="none" stroke="black" d="M364.418,-144.403C353.471,-156.63 338.637,-173.197 326.29,-186.987"/>
<polygon fill="black" stroke="black" points="323.419,-184.947 319.356,-194.732 328.634,-189.617 323.419,-184.947"/>
<text text-anchor="middle" x="382" y="-165.8" font-family="Times,serif" font-size="14.00">dotnet build</text>
</g>
<!-- LINUX_CSPROJ -->
<g id="node4" class="node"><title>LINUX_CSPROJ</title>
<polygon fill="darkviolet" stroke="black" points="321.5,-144 150.5,-144 150.5,-108 327.5,-108 327.5,-138 321.5,-144"/>
<polyline fill="none" stroke="black" points="321.5,-144 321.5,-138 "/>
<polyline fill="none" stroke="black" points="327.5,-138 321.5,-138 "/>
<text text-anchor="middle" x="239" y="-122.3" font-family="Times,serif" font-size="14.00">runtime.linux&#45;x64.Foo.csproj</text>
</g>
<!-- LINUX_CSPROJ&#45;&gt;LINUX_DLL -->
<g id="edge2" class="edge"><title>LINUX_CSPROJ&#45;&gt;LINUX_DLL</title>
<path fill="none" stroke="black" d="M241.82,-144.398C244.111,-154.604 248.13,-167.347 255,-177 257.869,-181.031 261.326,-184.806 265.053,-188.281"/>
<polygon fill="black" stroke="black" points="263.085,-191.2 272.984,-194.977 267.602,-185.851 263.085,-191.2"/>
<text text-anchor="middle" x="288" y="-165.8" font-family="Times,serif" font-size="14.00">dotnet build</text>
</g>
<!-- LINUX_DLL&#45;&gt;LINUX_NUPKG -->
<g id="edge3" class="edge"><title>LINUX_DLL&#45;&gt;LINUX_NUPKG</title>
<path fill="none" stroke="black" d="M303,-233.238C303,-245.066 303,-260.684 303,-273.945"/>
<polygon fill="black" stroke="black" points="299.5,-273.958 303,-283.958 306.5,-273.958 299.5,-273.958"/>
<text text-anchor="middle" x="335" y="-254.8" font-family="Times,serif" font-size="14.00">dotnet pack</text>
</g>
<!-- FOO_CSPROJ -->
<g id="node17" class="node"><title>FOO_CSPROJ</title>
<polygon fill="darkviolet" stroke="black" points="674,-429 606,-429 606,-393 680,-393 680,-423 674,-429"/>
<polyline fill="none" stroke="black" points="674,-429 674,-423 "/>
<polyline fill="none" stroke="black" points="680,-423 674,-423 "/>
<text text-anchor="middle" x="643" y="-407.3" font-family="Times,serif" font-size="14.00">Foo.csproj</text>
</g>
<!-- LINUX_NUPKG&#45;&gt;FOO_CSPROJ -->
<g id="edge21" class="edge"><title>LINUX_NUPKG&#45;&gt;FOO_CSPROJ</title>
<path fill="none" stroke="black" d="M376.884,-320.029C423.277,-330.38 484.449,-343.405 539,-353 564.195,-357.432 573.225,-349.35 596,-361 606.927,-366.59 616.741,-375.739 624.539,-384.627"/>
<polygon fill="black" stroke="black" points="622.05,-387.111 631.108,-392.606 627.455,-382.661 622.05,-387.111"/>
<text text-anchor="middle" x="589" y="-341.8" font-family="Times,serif" font-size="14.00">PackageReference</text>
</g>
<!-- OSX_NUPKG -->
<g id="node11" class="node"><title>OSX_NUPKG</title>
<polygon fill="darkviolet" stroke="black" points="747.5,-320 744.5,-324 723.5,-324 720.5,-320 538.5,-320 538.5,-284 747.5,-284 747.5,-320"/>
<text text-anchor="middle" x="643" y="-298.3" font-family="Times,serif" font-size="14.00">runtime.osx&#45;x64.Mizux.Foo.nupkg</text>
</g>
<!-- OSX_LIB&#45;&gt;OSX_NUPKG -->
<g id="edge8" class="edge"><title>OSX_LIB&#45;&gt;OSX_NUPKG</title>
<path fill="none" stroke="black" d="M721.793,-233.238C706.815,-246.12 686.607,-263.498 670.407,-277.43"/>
<polygon fill="black" stroke="black" points="668.116,-274.784 662.817,-283.958 672.681,-280.091 668.116,-274.784"/>
<text text-anchor="middle" x="731" y="-254.8" font-family="Times,serif" font-size="14.00">dotnet pack</text>
</g>
<!-- OSX_DLL -->
<g id="node10" class="node"><title>OSX_DLL</title>
<polygon fill="darkviolet" stroke="black" points="650.5,-233 437.5,-233 437.5,-229 433.5,-229 433.5,-225 437.5,-225 437.5,-203 433.5,-203 433.5,-199 437.5,-199 437.5,-195 650.5,-195 650.5,-233"/>
<polyline fill="none" stroke="black" points="437.5,-229 441.5,-229 441.5,-225 437.5,-225 "/>
<polyline fill="none" stroke="black" points="437.5,-203 441.5,-203 441.5,-199 437.5,-199 "/>
<text text-anchor="middle" x="544" y="-217.8" font-family="Times,serif" font-size="14.00">Mizux.Foo.dll</text>
<text text-anchor="middle" x="544" y="-202.8" font-family="Times,serif" font-size="14.00">runtimes/osx&#45;x64/lib/netstandard2.0</text>
</g>
<!-- OSX_CS&#45;&gt;OSX_DLL -->
<g id="edge5" class="edge"><title>OSX_CS&#45;&gt;OSX_DLL</title>
<path fill="none" stroke="black" d="M653.612,-144.191C641.733,-154.322 625.979,-167.061 611,-177 604.269,-181.466 596.93,-185.854 589.657,-189.945"/>
<polygon fill="black" stroke="black" points="587.614,-187.073 580.53,-194.952 590.981,-193.21 587.614,-187.073"/>
<text text-anchor="middle" x="664" y="-165.8" font-family="Times,serif" font-size="14.00">dotnet build</text>
</g>
<!-- OSX_CSPROJ -->
<g id="node9" class="node"><title>OSX_CSPROJ</title>
<polygon fill="darkviolet" stroke="black" points="615,-144 453,-144 453,-108 621,-108 621,-138 615,-144"/>
<polyline fill="none" stroke="black" points="615,-144 615,-138 "/>
<polyline fill="none" stroke="black" points="621,-138 615,-138 "/>
<text text-anchor="middle" x="537" y="-122.3" font-family="Times,serif" font-size="14.00">runtime.osx&#45;x64.Foo.csproj</text>
</g>
<!-- OSX_CSPROJ&#45;&gt;OSX_DLL -->
<g id="edge6" class="edge"><title>OSX_CSPROJ&#45;&gt;OSX_DLL</title>
<path fill="none" stroke="black" d="M538.417,-144.403C539.356,-155.944 540.61,-171.353 541.692,-184.643"/>
<polygon fill="black" stroke="black" points="538.213,-185.049 542.513,-194.732 545.19,-184.481 538.213,-185.049"/>
<text text-anchor="middle" x="574" y="-165.8" font-family="Times,serif" font-size="14.00">dotnet build</text>
</g>
<!-- OSX_DLL&#45;&gt;OSX_NUPKG -->
<g id="edge7" class="edge"><title>OSX_DLL&#45;&gt;OSX_NUPKG</title>
<path fill="none" stroke="black" d="M564.995,-233.238C579.689,-246.002 599.465,-263.182 615.429,-277.049"/>
<polygon fill="black" stroke="black" points="613.537,-280.042 623.382,-283.958 618.128,-274.757 613.537,-280.042"/>
<text text-anchor="middle" x="635" y="-254.8" font-family="Times,serif" font-size="14.00">dotnet pack</text>
</g>
<!-- OSX_NUPKG&#45;&gt;FOO_CSPROJ -->
<g id="edge22" class="edge"><title>OSX_NUPKG&#45;&gt;FOO_CSPROJ</title>
<path fill="none" stroke="black" d="M643,-320.191C643,-337.039 643,-362.982 643,-382.661"/>
<polygon fill="black" stroke="black" points="639.5,-382.851 643,-392.851 646.5,-382.851 639.5,-382.851"/>
<text text-anchor="middle" x="693" y="-341.8" font-family="Times,serif" font-size="14.00">PackageReference</text>
</g>
<!-- WIN_NUPKG -->
<g id="node16" class="node"><title>WIN_NUPKG</title>
<polygon fill="darkviolet" stroke="black" points="1054,-320 1051,-324 1030,-324 1027,-320 844,-320 844,-284 1054,-284 1054,-320"/>
<text text-anchor="middle" x="949" y="-298.3" font-family="Times,serif" font-size="14.00">runtime.win&#45;x64.Mizux.Foo.nupkg</text>
</g>
<!-- WIN_LIB&#45;&gt;WIN_NUPKG -->
<g id="edge12" class="edge"><title>WIN_LIB&#45;&gt;WIN_NUPKG</title>
<path fill="none" stroke="black" d="M1107.86,-233.028C1076.01,-246.656 1032.19,-265.405 998.641,-279.761"/>
<polygon fill="black" stroke="black" points="996.844,-276.723 989.027,-283.874 999.597,-283.158 996.844,-276.723"/>
<text text-anchor="middle" x="1093" y="-254.8" font-family="Times,serif" font-size="14.00">dotnet pack</text>
</g>
<!-- WIN_DLL -->
<g id="node15" class="node"><title>WIN_DLL</title>
<polygon fill="darkviolet" stroke="black" points="1056.5,-233 841.5,-233 841.5,-229 837.5,-229 837.5,-225 841.5,-225 841.5,-203 837.5,-203 837.5,-199 841.5,-199 841.5,-195 1056.5,-195 1056.5,-233"/>
<polyline fill="none" stroke="black" points="841.5,-229 845.5,-229 845.5,-225 841.5,-225 "/>
<polyline fill="none" stroke="black" points="841.5,-203 845.5,-203 845.5,-199 841.5,-199 "/>
<text text-anchor="middle" x="949" y="-217.8" font-family="Times,serif" font-size="14.00">Mizux.Foo.dll</text>
<text text-anchor="middle" x="949" y="-202.8" font-family="Times,serif" font-size="14.00">runtimes/win&#45;x64/lib/netstandard2.0</text>
</g>
<!-- WIN_CS&#45;&gt;WIN_DLL -->
<g id="edge9" class="edge"><title>WIN_CS&#45;&gt;WIN_DLL</title>
<path fill="none" stroke="black" d="M1046.29,-144.17C1036,-154.294 1022.29,-167.032 1009,-177 1003.19,-181.361 996.817,-185.649 990.464,-189.66"/>
<polygon fill="black" stroke="black" points="988.558,-186.724 981.869,-194.94 992.221,-192.689 988.558,-186.724"/>
<text text-anchor="middle" x="1060" y="-165.8" font-family="Times,serif" font-size="14.00">dotnet build</text>
</g>
<!-- WIN_CSPROJ -->
<g id="node14" class="node"><title>WIN_CSPROJ</title>
<polygon fill="darkviolet" stroke="black" points="1005,-144 841,-144 841,-108 1011,-108 1011,-138 1005,-144"/>
<polyline fill="none" stroke="black" points="1005,-144 1005,-138 "/>
<polyline fill="none" stroke="black" points="1011,-138 1005,-138 "/>
<text text-anchor="middle" x="926" y="-122.3" font-family="Times,serif" font-size="14.00">runtime.win&#45;x64.Foo.csproj</text>
</g>
<!-- WIN_CSPROJ&#45;&gt;WIN_DLL -->
<g id="edge10" class="edge"><title>WIN_CSPROJ&#45;&gt;WIN_DLL</title>
<path fill="none" stroke="black" d="M930.654,-144.403C933.771,-156.059 937.944,-171.659 941.521,-185.037"/>
<polygon fill="black" stroke="black" points="938.15,-185.976 944.114,-194.732 944.912,-184.167 938.15,-185.976"/>
<text text-anchor="middle" x="972" y="-165.8" font-family="Times,serif" font-size="14.00">dotnet build</text>
</g>
<!-- WIN_DLL&#45;&gt;WIN_NUPKG -->
<g id="edge11" class="edge"><title>WIN_DLL&#45;&gt;WIN_NUPKG</title>
<path fill="none" stroke="black" d="M949,-233.238C949,-245.066 949,-260.684 949,-273.945"/>
<polygon fill="black" stroke="black" points="945.5,-273.958 949,-283.958 952.5,-273.958 945.5,-273.958"/>
<text text-anchor="middle" x="981" y="-254.8" font-family="Times,serif" font-size="14.00">dotnet pack</text>
</g>
<!-- WIN_NUPKG&#45;&gt;FOO_CSPROJ -->
<g id="edge23" class="edge"><title>WIN_NUPKG&#45;&gt;FOO_CSPROJ</title>
<path fill="none" stroke="black" d="M900.175,-320.073C842.274,-340.319 746.466,-373.821 689.571,-393.715"/>
<polygon fill="black" stroke="black" points="688.386,-390.422 680.102,-397.026 690.697,-397.03 688.386,-390.422"/>
<text text-anchor="middle" x="892" y="-341.8" font-family="Times,serif" font-size="14.00">PackageReference</text>
</g>
<!-- FOO_NUPKG -->
<g id="node19" class="node"><title>FOO_NUPKG</title>
<polygon fill="darkviolet" stroke="black" points="682,-517 679,-521 658,-521 655,-517 472,-517 472,-481 682,-481 682,-517"/>
<text text-anchor="middle" x="577" y="-495.3" font-family="Times,serif" font-size="14.00">runtime.win&#45;x64.Mizux.Foo.nupkg</text>
</g>
<!-- FOO_CSPROJ&#45;&gt;FOO_NUPKG -->
<g id="edge13" class="edge"><title>FOO_CSPROJ&#45;&gt;FOO_NUPKG</title>
<path fill="none" stroke="black" d="M629.644,-429.403C620.099,-441.841 607.107,-458.77 596.417,-472.698"/>
<polygon fill="black" stroke="black" points="593.423,-470.852 590.111,-480.916 598.976,-475.114 593.423,-470.852"/>
<text text-anchor="middle" x="646" y="-451.8" font-family="Times,serif" font-size="14.00">dotnet pack</text>
</g>
<!-- FOO_REFASS -->
<g id="node18" class="node"><title>FOO_REFASS</title>
<polygon fill="darkviolet" stroke="black" points="587.5,-430 472.5,-430 472.5,-426 468.5,-426 468.5,-422 472.5,-422 472.5,-400 468.5,-400 468.5,-396 472.5,-396 472.5,-392 587.5,-392 587.5,-430"/>
<polyline fill="none" stroke="black" points="472.5,-426 476.5,-426 476.5,-422 472.5,-422 "/>
<polyline fill="none" stroke="black" points="472.5,-400 476.5,-400 476.5,-396 472.5,-396 "/>
<text text-anchor="middle" x="530" y="-414.8" font-family="Times,serif" font-size="14.00">Mizux.Foo.dll</text>
<text text-anchor="middle" x="530" y="-399.8" font-family="Times,serif" font-size="14.00">ref/netstandard2.0</text>
</g>
<!-- FOO_REFASS&#45;&gt;FOO_NUPKG -->
<g id="edge14" class="edge"><title>FOO_REFASS&#45;&gt;FOO_NUPKG</title>
<path fill="none" stroke="black" d="M526.602,-430.401C525.625,-440.541 525.947,-453.051 531,-463 533.049,-467.034 535.804,-470.734 538.952,-474.09"/>
<polygon fill="black" stroke="black" points="536.619,-476.7 546.35,-480.889 541.355,-471.546 536.619,-476.7"/>
<text text-anchor="middle" x="563" y="-451.8" font-family="Times,serif" font-size="14.00">dotnet pack</text>
</g>
</g>
</svg>
