<?xml version="1.0" encoding="UTF-8" standalone="no"?>
<!DOCTYPE svg PUBLIC "-//W3C//DTD SVG 1.1//EN"
 "http://www.w3.org/Graphics/SVG/1.1/DTD/svg11.dtd">
<!-- Generated by graphviz version 2.42.3 (0)
 -->
<!-- Title: CMake Pages: 1 -->
<svg width="2158pt" height="953pt"
 viewBox="0.00 0.00 2158.00 953.00" xmlns="http://www.w3.org/2000/svg" xmlns:xlink="http://www.w3.org/1999/xlink">
<g id="graph0" class="graph" transform="scale(1 1) rotate(0) translate(4 949)">
<title>CMake</title>
<polygon fill="white" stroke="transparent" points="-4,4 -4,-949 2154,-949 2154,4 -4,4"/>
<g id="clust1" class="cluster">
<title>clusterLinux</title>
<polygon fill="none" stroke="crimson" points="8,-269 8,-779 604,-779 604,-269 8,-269"/>
<text text-anchor="middle" x="306" y="-763.8" font-family="Times,serif" font-size="14.00">Linux Host</text>
</g>
<g id="clust2" class="cluster">
<title>clusterCPP</title>
<polygon fill="none" stroke="royalblue" points="16,-495 16,-748 596,-748 596,-495 16,-495"/>
<text text-anchor="middle" x="306" y="-732.8" font-family="Times,serif" font-size="14.00">C++</text>
</g>
<g id="clust3" class="cluster">
<title>clusterCS</title>
<polygon fill="none" stroke="darkviolet" points="93,-277 93,-462 551,-462 551,-277 93,-277"/>
<text text-anchor="middle" x="322" y="-446.8" font-family="Times,serif" font-size="14.00">.Net</text>
</g>
<g id="clust4" class="cluster">
<title>clusterOsx</title>
<polygon fill="none" stroke="forestgreen" points="911,-269 911,-779 1497,-779 1497,-269 911,-269"/>
<text text-anchor="middle" x="1204" y="-763.8" font-family="Times,serif" font-size="14.00">macOS Host</text>
</g>
<g id="clust5" class="cluster">
<title>clusterCPP</title>
<polygon fill="none" stroke="royalblue" points="919,-495 919,-748 1489,-748 1489,-495 919,-495"/>
<text text-anchor="middle" x="1204" y="-732.8" font-family="Times,serif" font-size="14.00">C++</text>
</g>
<g id="clust6" class="cluster">
<title>clusterCS</title>
<polygon fill="none" stroke="darkviolet" points="998,-277 998,-462 1444,-462 1444,-277 998,-277"/>
<text text-anchor="middle" x="1221" y="-446.8" font-family="Times,serif" font-size="14.00">.Net</text>
</g>
<g id="clust7" class="cluster">
<title>clusterWin</title>
<polygon fill="none" stroke="dodgerblue" points="1541,-269 1541,-779 2129,-779 2129,-269 1541,-269"/>
<text text-anchor="middle" x="1835" y="-763.8" font-family="Times,serif" font-size="14.00">Windows Host</text>
</g>
<g id="clust8" class="cluster">
<title>clusterCPP</title>
<polygon fill="none" stroke="royalblue" points="1549,-495 1549,-748 2121,-748 2121,-495 1549,-495"/>
<text text-anchor="middle" x="1835" y="-732.8" font-family="Times,serif" font-size="14.00">C++</text>
</g>
<g id="clust9" class="cluster">
<title>clusterCS</title>
<polygon fill="none" stroke="darkviolet" points="1661,-277 1661,-462 2109,-462 2109,-277 1661,-277"/>
<text text-anchor="middle" x="1885" y="-446.8" font-family="Times,serif" font-size="14.00">.Net</text>
</g>
<g id="clust10" class="cluster">
<title>clusterAny</title>
<polygon fill="none" stroke="dimgrey" points="612,-8 612,-352 903,-352 903,-8 612,-8"/>
<text text-anchor="middle" x="757.5" y="-336.8" font-family="Times,serif" font-size="14.00">Any Previous Host</text>
</g>
<!-- SWIG -->
<g id="node1" class="node">
<title>SWIG</title>
<polygon fill="white" stroke="black" points="995,-856 947,-856 947,-820 1001,-820 1001,-850 995,-856"/>
<polyline fill="none" stroke="black" points="995,-856 995,-850 "/>
<polyline fill="none" stroke="black" points="1001,-850 995,-850 "/>
<text text-anchor="middle" x="974" y="-834.3" font-family="Times,serif" font-size="14.00">foo.i</text>
</g>
<!-- LINUX_WRAPPER_CPP -->
<g id="node5" class="node">
<title>LINUX_WRAPPER_CPP</title>
<polygon fill="royalblue" stroke="black" points="190,-716 24,-716 24,-680 196,-680 196,-710 190,-716"/>
<polyline fill="none" stroke="black" points="190,-716 190,-710 "/>
<polyline fill="none" stroke="black" points="196,-710 190,-710 "/>
<text text-anchor="middle" x="110" y="-694.3" font-family="Times,serif" font-size="14.00">fooCSHARP_wrap.cxx</text>
</g>
<!-- SWIG&#45;&gt;LINUX_WRAPPER_CPP -->
<g id="edge9" class="edge">
<title>SWIG&#45;&gt;LINUX_WRAPPER_CPP</title>
<path fill="none" stroke="black" stroke-width="2" d="M946.86,-835.18C812.32,-826.14 222.57,-786.17 205,-779 175.65,-767.02 148.69,-742.42 131.04,-723.64"/>
<polygon fill="black" stroke="black" stroke-width="2" points="133.4,-721.03 124.07,-716.01 128.23,-725.75 133.4,-721.03"/>
<text text-anchor="middle" x="479" y="-790.8" font-family="Times,serif" font-size="14.00">swig</text>
</g>
<!-- OSX_WRAPPER_CPP -->
<g id="node13" class="node">
<title>OSX_WRAPPER_CPP</title>
<polygon fill="royalblue" stroke="black" points="1093,-716 927,-716 927,-680 1099,-680 1099,-710 1093,-716"/>
<polyline fill="none" stroke="black" points="1093,-716 1093,-710 "/>
<polyline fill="none" stroke="black" points="1099,-710 1093,-710 "/>
<text text-anchor="middle" x="1013" y="-694.3" font-family="Times,serif" font-size="14.00">fooCSHARP_wrap.cxx</text>
</g>
<!-- SWIG&#45;&gt;OSX_WRAPPER_CPP -->
<g id="edge19" class="edge">
<title>SWIG&#45;&gt;OSX_WRAPPER_CPP</title>
<path fill="none" stroke="black" stroke-width="2" d="M978.86,-819.8C985.49,-796.35 997.43,-754.09 1005.29,-726.29"/>
<polygon fill="black" stroke="black" stroke-width="2" points="1008.73,-726.99 1008.08,-716.42 1001.99,-725.09 1008.73,-726.99"/>
<text text-anchor="middle" x="1004" y="-790.8" font-family="Times,serif" font-size="14.00">swig</text>
</g>
<!-- WIN_WRAPPER_CPP -->
<g id="node21" class="node">
<title>WIN_WRAPPER_CPP</title>
<polygon fill="royalblue" stroke="black" points="1723,-716 1557,-716 1557,-680 1729,-680 1729,-710 1723,-716"/>
<polyline fill="none" stroke="black" points="1723,-716 1723,-710 "/>
<polyline fill="none" stroke="black" points="1729,-710 1723,-710 "/>
<text text-anchor="middle" x="1643" y="-694.3" font-family="Times,serif" font-size="14.00">fooCSHARP_wrap.cxx</text>
</g>
<!-- SWIG&#45;&gt;WIN_WRAPPER_CPP -->
<g id="edge29" class="edge">
<title>SWIG&#45;&gt;WIN_WRAPPER_CPP</title>
<path fill="none" stroke="black" stroke-width="2" d="M1001.24,-825.35C1007.01,-823.26 1013.14,-821.33 1019,-820 1044.77,-814.14 1467.66,-786.51 1493,-779 1535.95,-766.27 1580.71,-740.51 1610.02,-721.65"/>
<polygon fill="black" stroke="black" stroke-width="2" points="1612.15,-724.44 1618.61,-716.04 1608.32,-718.58 1612.15,-724.44"/>
<text text-anchor="middle" x="1434" y="-790.8" font-family="Times,serif" font-size="14.00">swig</text>
</g>
<!-- FOO_CS -->
<g id="node27" class="node">
<title>FOO_CS</title>
<polygon fill="darkviolet" stroke="black" points="839,-321 783,-321 783,-285 845,-285 845,-315 839,-321"/>
<polyline fill="none" stroke="black" points="839,-321 839,-315 "/>
<polyline fill="none" stroke="black" points="845,-315 839,-315 "/>
<text text-anchor="middle" x="814" y="-299.3" font-family="Times,serif" font-size="14.00">Foo.cs</text>
</g>
<!-- SWIG&#45;&gt;FOO_CS -->
<g id="edge36" class="edge">
<title>SWIG&#45;&gt;FOO_CS</title>
<path fill="none" stroke="black" stroke-width="2" d="M946.86,-827.84C901.21,-810.51 814,-768.33 814,-699 814,-699 814,-699 814,-411 814,-383.83 814,-352.77 814,-331.14"/>
<polygon fill="black" stroke="black" stroke-width="2" points="817.5,-331.05 814,-321.05 810.5,-331.05 817.5,-331.05"/>
<text text-anchor="middle" x="831" y="-562.8" font-family="Times,serif" font-size="14.00">swig</text>
</g>
<!-- CPP -->
<g id="node2" class="node">
<title>CPP</title>
<polygon fill="royalblue" stroke="black" points="1072,-945 1004,-945 1004,-907 1078,-907 1078,-939 1072,-945"/>
<polyline fill="none" stroke="black" points="1072,-945 1072,-939 "/>
<polyline fill="none" stroke="black" points="1078,-939 1072,-939 "/>
<text text-anchor="middle" x="1041" y="-929.8" font-family="Times,serif" font-size="14.00">Foo.hpp</text>
<text text-anchor="middle" x="1041" y="-914.8" font-family="Times,serif" font-size="14.00">Foo.cpp</text>
</g>
<!-- CPP&#45;&gt;SWIG -->
<g id="edge1" class="edge">
<title>CPP&#45;&gt;SWIG</title>
<path fill="none" stroke="black" stroke-dasharray="5,2" d="M1003.85,-913.11C992.64,-907.61 981.57,-899.82 975,-889 970.97,-882.37 969.64,-874.27 969.6,-866.54"/>
<polygon fill="black" stroke="black" points="973.1,-866.6 970.23,-856.4 966.12,-866.17 973.1,-866.6"/>
<text text-anchor="middle" x="1001" y="-877.8" font-family="Times,serif" font-size="14.00">include</text>
</g>
<!-- LINUX_LIB -->
<g id="node4" class="node">
<title>LINUX_LIB</title>
<polygon fill="royalblue" stroke="black" points="418,-717 214,-717 214,-713 210,-713 210,-709 214,-709 214,-687 210,-687 210,-683 214,-683 214,-679 418,-679 418,-717"/>
<polyline fill="none" stroke="black" points="214,-713 218,-713 218,-709 214,-709 "/>
<polyline fill="none" stroke="black" points="214,-687 218,-687 218,-683 214,-683 "/>
<text text-anchor="middle" x="316" y="-701.8" font-family="Times,serif" font-size="14.00">libFoo.so</text>
<text text-anchor="middle" x="316" y="-686.8" font-family="Times,serif" font-size="14.00">runtimes/linux&#45;x64/native/</text>
</g>
<!-- CPP&#45;&gt;LINUX_LIB -->
<g id="edge11" class="edge">
<title>CPP&#45;&gt;LINUX_LIB</title>
<path fill="none" stroke="black" stroke-width="2" d="M1003.69,-913.54C916.44,-887.18 691.94,-821.82 500,-787 467.89,-781.17 457.47,-790.71 427,-779 394.75,-766.61 363.33,-742.48 342.19,-723.95"/>
<polygon fill="black" stroke="black" stroke-width="2" points="344.4,-721.23 334.61,-717.16 339.72,-726.44 344.4,-721.23"/>
<text text-anchor="middle" x="823" y="-834.3" font-family="Times,serif" font-size="14.00">g++, ld</text>
</g>
<!-- CPP&#45;&gt;LINUX_WRAPPER_CPP -->
<g id="edge10" class="edge">
<title>CPP&#45;&gt;LINUX_WRAPPER_CPP</title>
<path fill="none" stroke="black" stroke-dasharray="5,2" d="M1003.94,-920.46C894.07,-906.67 560.82,-862.51 289,-802 251.22,-793.59 239.27,-797 205,-779 177.61,-764.61 151.07,-741.22 133.04,-723.44"/>
<polygon fill="black" stroke="black" points="135.39,-720.83 125.86,-716.2 130.42,-725.76 135.39,-720.83"/>
<text text-anchor="middle" x="589" y="-834.3" font-family="Times,serif" font-size="14.00">include</text>
</g>
<!-- OSX_LIB -->
<g id="node12" class="node">
<title>OSX_LIB</title>
<polygon fill="royalblue" stroke="black" points="1310.5,-717 1117.5,-717 1117.5,-713 1113.5,-713 1113.5,-709 1117.5,-709 1117.5,-687 1113.5,-687 1113.5,-683 1117.5,-683 1117.5,-679 1310.5,-679 1310.5,-717"/>
<polyline fill="none" stroke="black" points="1117.5,-713 1121.5,-713 1121.5,-709 1117.5,-709 "/>
<polyline fill="none" stroke="black" points="1117.5,-687 1121.5,-687 1121.5,-683 1117.5,-683 "/>
<text text-anchor="middle" x="1214" y="-701.8" font-family="Times,serif" font-size="14.00">libFoo.dylib</text>
<text text-anchor="middle" x="1214" y="-686.8" font-family="Times,serif" font-size="14.00">runtimes/osx&#45;x64/native/</text>
</g>
<!-- CPP&#45;&gt;OSX_LIB -->
<g id="edge21" class="edge">
<title>CPP&#45;&gt;OSX_LIB</title>
<path fill="none" stroke="black" stroke-width="2" d="M1054.86,-906.89C1085.36,-867.05 1158.36,-771.69 1193.89,-725.27"/>
<polygon fill="black" stroke="black" stroke-width="2" points="1196.77,-727.27 1200.07,-717.2 1191.21,-723.01 1196.77,-727.27"/>
<text text-anchor="middle" x="1146" y="-834.3" font-family="Times,serif" font-size="14.00">g++, ld</text>
</g>
<!-- CPP&#45;&gt;OSX_WRAPPER_CPP -->
<g id="edge20" class="edge">
<title>CPP&#45;&gt;OSX_WRAPPER_CPP</title>
<path fill="none" stroke="black" stroke-dasharray="5,2" d="M1038.99,-906.68C1036.07,-880.24 1030.4,-829.83 1025,-787 1022.43,-766.6 1019.28,-743.58 1016.85,-726.2"/>
<polygon fill="black" stroke="black" points="1020.3,-725.6 1015.45,-716.19 1013.37,-726.58 1020.3,-725.6"/>
<text text-anchor="middle" x="1059" y="-834.3" font-family="Times,serif" font-size="14.00">include</text>
</g>
<!-- WIN_LIB -->
<g id="node20" class="node">
<title>WIN_LIB</title>
<polygon fill="royalblue" stroke="black" points="1942.5,-717 1747.5,-717 1747.5,-713 1743.5,-713 1743.5,-709 1747.5,-709 1747.5,-687 1743.5,-687 1743.5,-683 1747.5,-683 1747.5,-679 1942.5,-679 1942.5,-717"/>
<polyline fill="none" stroke="black" points="1747.5,-713 1751.5,-713 1751.5,-709 1747.5,-709 "/>
<polyline fill="none" stroke="black" points="1747.5,-687 1751.5,-687 1751.5,-683 1747.5,-683 "/>
<text text-anchor="middle" x="1845" y="-701.8" font-family="Times,serif" font-size="14.00">libFoo.lib</text>
<text text-anchor="middle" x="1845" y="-686.8" font-family="Times,serif" font-size="14.00">runtimes/win&#45;x64/native/</text>
</g>
<!-- CPP&#45;&gt;WIN_LIB -->
<g id="edge31" class="edge">
<title>CPP&#45;&gt;WIN_LIB</title>
<path fill="none" stroke="black" stroke-width="2" d="M1078.24,-923.63C1186.01,-918.36 1505.29,-893.44 1738,-779 1767.58,-764.45 1797.3,-741.4 1817.88,-723.77"/>
<polygon fill="black" stroke="black" stroke-width="2" points="1820.33,-726.27 1825.58,-717.07 1815.74,-721 1820.33,-726.27"/>
<text text-anchor="middle" x="1667" y="-834.3" font-family="Times,serif" font-size="14.00">g++, ld</text>
</g>
<!-- CPP&#45;&gt;WIN_WRAPPER_CPP -->
<g id="edge30" class="edge">
<title>CPP&#45;&gt;WIN_WRAPPER_CPP</title>
<path fill="none" stroke="black" stroke-dasharray="5,2" d="M1078.18,-916.77C1151.78,-899.86 1320.57,-858.05 1455,-802 1510.26,-778.96 1570.31,-744.21 1607.3,-721.56"/>
<polygon fill="black" stroke="black" points="1609.52,-724.3 1616.2,-716.07 1605.85,-718.34 1609.52,-724.3"/>
<text text-anchor="middle" x="1432" y="-834.3" font-family="Times,serif" font-size="14.00">include</text>
</g>
<!-- LINUX_PKG -->
<g id="node3" class="node">
<title>LINUX_PKG</title>
<polygon fill="royalblue" stroke="black" points="588,-717 440,-717 436,-713 436,-679 584,-679 588,-683 588,-717"/>
<polyline fill="none" stroke="black" points="584,-713 436,-713 "/>
<polyline fill="none" stroke="black" points="584,-713 584,-679 "/>
<polyline fill="none" stroke="black" points="584,-713 588,-717 "/>
<text text-anchor="middle" x="512" y="-701.8" font-family="Times,serif" font-size="14.00">C++ dev packages</text>
<text text-anchor="middle" x="512" y="-686.8" font-family="Times,serif" font-size="14.00">e.g. cmake, g++</text>
</g>
<!-- LINUX_RUNTIME_CSPROJ -->
<g id="node9" class="node">
<title>LINUX_RUNTIME_CSPROJ</title>
<polygon fill="darkviolet" stroke="black" points="364.5,-430 101.5,-430 101.5,-394 370.5,-394 370.5,-424 364.5,-430"/>
<polyline fill="none" stroke="black" points="364.5,-430 364.5,-424 "/>
<polyline fill="none" stroke="black" points="370.5,-424 364.5,-424 "/>
<text text-anchor="middle" x="236" y="-408.3" font-family="Times,serif" font-size="14.00">Mizux.Foo.runtime.linux&#45;x64.csproj</text>
</g>
<!-- LINUX_LIB&#45;&gt;LINUX_RUNTIME_CSPROJ -->
<g id="edge5" class="edge">
<title>LINUX_LIB&#45;&gt;LINUX_RUNTIME_CSPROJ</title>
<path fill="none" stroke="black" stroke-dasharray="5,2" d="M314.87,-678.94C312.19,-643 303.87,-560.34 281,-495 274.05,-475.14 262.61,-454.38 253,-438.71"/>
<polygon fill="black" stroke="black" points="255.89,-436.73 247.6,-430.13 249.96,-440.46 255.89,-436.73"/>
<text text-anchor="middle" x="331" y="-562.8" font-family="Times,serif" font-size="14.00">Content</text>
</g>
<!-- LINUX_RUNTIME_NUPKG -->
<g id="node10" class="node">
<title>LINUX_RUNTIME_NUPKG</title>
<polygon fill="darkviolet" stroke="black" points="543,-321 540,-325 519,-325 516,-321 273,-321 273,-285 543,-285 543,-321"/>
<text text-anchor="middle" x="408" y="-299.3" font-family="Times,serif" font-size="14.00">Mizux.Foo.runtime.linux&#45;x64.nupkg</text>
</g>
<!-- LINUX_LIB&#45;&gt;LINUX_RUNTIME_NUPKG -->
<g id="edge7" class="edge">
<title>LINUX_LIB&#45;&gt;LINUX_RUNTIME_NUPKG</title>
<path fill="none" stroke="black" stroke-dasharray="5,2" d="M418.19,-680.28C485.78,-666.23 562,-643.24 562,-611 562,-611 562,-611 562,-411 562,-368.05 521.1,-340.95 481.46,-324.77"/>
<polygon fill="black" stroke="black" points="482.56,-321.45 471.97,-321.09 480.03,-327.97 482.56,-321.45"/>
<text text-anchor="middle" x="579" y="-518.3" font-family="Times,serif" font-size="14.00">pack</text>
</g>
<!-- LINUX_WRAPPER_OBJ -->
<g id="node6" class="node">
<title>LINUX_WRAPPER_OBJ</title>
<polygon fill="royalblue" stroke="black" points="207.5,-628 28.5,-628 28.5,-592 213.5,-592 213.5,-622 207.5,-628"/>
<polyline fill="none" stroke="black" points="207.5,-628 207.5,-622 "/>
<polyline fill="none" stroke="black" points="213.5,-622 207.5,-622 "/>
<text text-anchor="middle" x="121" y="-606.3" font-family="Times,serif" font-size="14.00">fooCSHARP_wrap.cxx.o</text>
</g>
<!-- LINUX_WRAPPER_CPP&#45;&gt;LINUX_WRAPPER_OBJ -->
<g id="edge2" class="edge">
<title>LINUX_WRAPPER_CPP&#45;&gt;LINUX_WRAPPER_OBJ</title>
<path fill="none" stroke="black" stroke-width="2" d="M112.23,-679.6C113.74,-667.75 115.78,-651.82 117.51,-638.29"/>
<polygon fill="black" stroke="black" stroke-width="2" points="121.02,-638.45 118.81,-628.08 114.07,-637.56 121.02,-638.45"/>
<text text-anchor="middle" x="134" y="-649.8" font-family="Times,serif" font-size="14.00">g++</text>
</g>
<!-- LINUX_WRAPPER_LIB -->
<g id="node7" class="node">
<title>LINUX_WRAPPER_LIB</title>
<polygon fill="royalblue" stroke="black" points="272,-541 68,-541 68,-537 64,-537 64,-533 68,-533 68,-511 64,-511 64,-507 68,-507 68,-503 272,-503 272,-541"/>
<polyline fill="none" stroke="black" points="68,-537 72,-537 72,-533 68,-533 "/>
<polyline fill="none" stroke="black" points="68,-511 72,-511 72,-507 68,-507 "/>
<text text-anchor="middle" x="170" y="-525.8" font-family="Times,serif" font-size="14.00">mizux_foo_native.so</text>
<text text-anchor="middle" x="170" y="-510.8" font-family="Times,serif" font-size="14.00">runtimes/linux&#45;x64/native/</text>
</g>
<!-- LINUX_WRAPPER_OBJ&#45;&gt;LINUX_WRAPPER_LIB -->
<g id="edge3" class="edge">
<title>LINUX_WRAPPER_OBJ&#45;&gt;LINUX_WRAPPER_LIB</title>
<path fill="none" stroke="black" stroke-width="2" d="M130.92,-591.6C137.69,-579.71 146.79,-563.73 154.51,-550.18"/>
<polygon fill="black" stroke="black" stroke-width="2" points="157.68,-551.69 159.59,-541.27 151.6,-548.22 157.68,-551.69"/>
<text text-anchor="middle" x="156" y="-562.8" font-family="Times,serif" font-size="14.00">ld</text>
</g>
<!-- LINUX_WRAPPER_LIB&#45;&gt;LINUX_RUNTIME_CSPROJ -->
<g id="edge6" class="edge">
<title>LINUX_WRAPPER_LIB&#45;&gt;LINUX_RUNTIME_CSPROJ</title>
<path fill="none" stroke="black" stroke-dasharray="5,2" d="M181.2,-502.68C191.86,-485.22 208.03,-458.76 220.05,-439.1"/>
<polygon fill="black" stroke="black" points="223.18,-440.7 225.41,-430.34 217.2,-437.04 223.18,-440.7"/>
<text text-anchor="middle" x="231" y="-473.8" font-family="Times,serif" font-size="14.00">Content</text>
</g>
<!-- LINUX_WRAPPER_LIB&#45;&gt;LINUX_RUNTIME_NUPKG -->
<g id="edge8" class="edge">
<title>LINUX_WRAPPER_LIB&#45;&gt;LINUX_RUNTIME_NUPKG</title>
<path fill="none" stroke="black" stroke-dasharray="5,2" d="M108.57,-502.94C88.93,-493.94 69.36,-480.82 58,-462 42.15,-435.74 39.18,-417.21 58,-393 83.82,-359.79 178.74,-336.94 263.22,-322.72"/>
<polygon fill="black" stroke="black" points="263.9,-326.15 273.2,-321.07 262.76,-319.25 263.9,-326.15"/>
<text text-anchor="middle" x="75" y="-408.3" font-family="Times,serif" font-size="14.00">pack</text>
</g>
<!-- LINUX_WRAPPER_LIB&#45;&gt;FOO_CS -->
<g id="edge37" class="edge">
<title>LINUX_WRAPPER_LIB&#45;&gt;FOO_CS</title>
<path fill="none" stroke="black" stroke-dasharray="5,2" d="M272.02,-516.33C351.23,-510.13 462.73,-495.67 555,-462 645.37,-429.02 738.62,-362.68 784.64,-327.37"/>
<polygon fill="black" stroke="black" points="786.91,-330.04 792.67,-321.15 782.62,-324.5 786.91,-330.04"/>
<text text-anchor="middle" x="718" y="-408.3" font-family="Times,serif" font-size="14.00">PInvoke</text>
</g>
<!-- LINUX_DOTNET_PKG -->
<g id="node8" class="node">
<title>LINUX_DOTNET_PKG</title>
<polygon fill="darkviolet" stroke="black" points="543,-431 393,-431 389,-427 389,-393 539,-393 543,-397 543,-431"/>
<polyline fill="none" stroke="black" points="539,-427 389,-427 "/>
<polyline fill="none" stroke="black" points="539,-427 539,-393 "/>
<polyline fill="none" stroke="black" points="539,-427 543,-431 "/>
<text text-anchor="middle" x="466" y="-415.8" font-family="Times,serif" font-size="14.00">.Net SDK packages</text>
<text text-anchor="middle" x="466" y="-400.8" font-family="Times,serif" font-size="14.00">e.g. dotnet&#45;cli</text>
</g>
<!-- LINUX_RUNTIME_CSPROJ&#45;&gt;LINUX_RUNTIME_NUPKG -->
<g id="edge4" class="edge">
<title>LINUX_RUNTIME_CSPROJ&#45;&gt;LINUX_RUNTIME_NUPKG</title>
<path fill="none" stroke="black" stroke-width="2" d="M263.63,-393.81C292.97,-375.56 339.47,-346.63 371.74,-326.56"/>
<polygon fill="black" stroke="black" stroke-width="2" points="373.79,-329.4 380.43,-321.15 370.09,-323.46 373.79,-329.4"/>
<text text-anchor="middle" x="359.5" y="-363.8" font-family="Times,serif" font-size="14.00">dotnet pack</text>
</g>
<!-- FOO_CSPROJ -->
<g id="node28" class="node">
<title>FOO_CSPROJ</title>
<polygon fill="darkviolet" stroke="black" points="845,-228 713,-228 713,-192 851,-192 851,-222 845,-228"/>
<polyline fill="none" stroke="black" points="845,-228 845,-222 "/>
<polyline fill="none" stroke="black" points="851,-222 845,-222 "/>
<text text-anchor="middle" x="782" y="-206.3" font-family="Times,serif" font-size="14.00">Mizux.Foo.csproj</text>
</g>
<!-- LINUX_RUNTIME_NUPKG&#45;&gt;FOO_CSPROJ -->
<g id="edge40" class="edge">
<title>LINUX_RUNTIME_NUPKG&#45;&gt;FOO_CSPROJ</title>
<path fill="none" stroke="black" stroke-dasharray="5,2" d="M474.76,-284.9C519.03,-273.64 578.42,-258.69 631,-246 654.35,-240.36 679.77,-234.4 702.98,-229.03"/>
<polygon fill="black" stroke="black" points="703.82,-232.43 712.78,-226.77 702.25,-225.61 703.82,-232.43"/>
<text text-anchor="middle" x="696.5" y="-249.8" font-family="Times,serif" font-size="14.00">PackageReference</text>
</g>
<!-- FOO_NUPKG -->
<g id="node30" class="node">
<title>FOO_NUPKG</title>
<polygon fill="darkviolet" stroke="black" points="879.5,-52 876.5,-56 855.5,-56 852.5,-52 740.5,-52 740.5,-16 879.5,-16 879.5,-52"/>
<text text-anchor="middle" x="810" y="-30.3" font-family="Times,serif" font-size="14.00">Mizux.Foo.nupkg</text>
</g>
<!-- LINUX_RUNTIME_NUPKG&#45;&gt;FOO_NUPKG -->
<g id="edge43" class="edge">
<title>LINUX_RUNTIME_NUPKG&#45;&gt;FOO_NUPKG</title>
<path fill="none" stroke="black" stroke-dasharray="5,2" d="M421.14,-284.76C451.01,-246.7 527.95,-154.75 612,-103 648.22,-80.7 692.71,-64.57 730.34,-53.64"/>
<polygon fill="black" stroke="black" points="731.58,-56.93 740.25,-50.83 729.67,-50.19 731.58,-56.93"/>
<text text-anchor="middle" x="586" y="-162.8" font-family="Times,serif" font-size="14.00">dependencies</text>
</g>
<!-- OSX_PKG -->
<g id="node11" class="node">
<title>OSX_PKG</title>
<polygon fill="royalblue" stroke="black" points="1481,-717 1333,-717 1329,-713 1329,-679 1477,-679 1481,-683 1481,-717"/>
<polyline fill="none" stroke="black" points="1477,-713 1329,-713 "/>
<polyline fill="none" stroke="black" points="1477,-713 1477,-679 "/>
<polyline fill="none" stroke="black" points="1477,-713 1481,-717 "/>
<text text-anchor="middle" x="1405" y="-701.8" font-family="Times,serif" font-size="14.00">C++ dev packages</text>
<text text-anchor="middle" x="1405" y="-686.8" font-family="Times,serif" font-size="14.00">e.g. cmake, g++</text>
</g>
<!-- OSX_RUNTIME_CSPROJ -->
<g id="node17" class="node">
<title>OSX_RUNTIME_CSPROJ</title>
<polygon fill="darkviolet" stroke="black" points="1258,-430 1006,-430 1006,-394 1264,-394 1264,-424 1258,-430"/>
<polyline fill="none" stroke="black" points="1258,-430 1258,-424 "/>
<polyline fill="none" stroke="black" points="1264,-424 1258,-424 "/>
<text text-anchor="middle" x="1135" y="-408.3" font-family="Times,serif" font-size="14.00">Mizux.Foo.runtime.osx&#45;x64.csproj</text>
</g>
<!-- OSX_LIB&#45;&gt;OSX_RUNTIME_CSPROJ -->
<g id="edge15" class="edge">
<title>OSX_LIB&#45;&gt;OSX_RUNTIME_CSPROJ</title>
<path fill="none" stroke="black" stroke-dasharray="5,2" d="M1208.94,-678.8C1195.44,-630.28 1158.54,-497.61 1142.55,-440.14"/>
<polygon fill="black" stroke="black" points="1145.87,-439.02 1139.82,-430.32 1139.13,-440.89 1145.87,-439.02"/>
<text text-anchor="middle" x="1208" y="-562.8" font-family="Times,serif" font-size="14.00">Content</text>
</g>
<!-- OSX_RUNTIME_NUPKG -->
<g id="node18" class="node">
<title>OSX_RUNTIME_NUPKG</title>
<polygon fill="darkviolet" stroke="black" points="1265.5,-321 1262.5,-325 1241.5,-325 1238.5,-321 1006.5,-321 1006.5,-285 1265.5,-285 1265.5,-321"/>
<text text-anchor="middle" x="1136" y="-299.3" font-family="Times,serif" font-size="14.00">Mizux.Foo.runtime.osx&#45;x64.nupkg</text>
</g>
<!-- OSX_LIB&#45;&gt;OSX_RUNTIME_NUPKG -->
<g id="edge17" class="edge">
<title>OSX_LIB&#45;&gt;OSX_RUNTIME_NUPKG</title>
<path fill="none" stroke="black" stroke-dasharray="5,2" d="M1310.64,-680.68C1377.68,-666.52 1455,-643.21 1455,-611 1455,-611 1455,-611 1455,-411 1455,-368.56 1352.23,-339.83 1263.36,-322.91"/>
<polygon fill="black" stroke="black" points="1263.9,-319.45 1253.42,-321.06 1262.61,-326.33 1263.9,-319.45"/>
<text text-anchor="middle" x="1472" y="-518.3" font-family="Times,serif" font-size="14.00">pack</text>
</g>
<!-- OSX_WRAPPER_OBJ -->
<g id="node14" class="node">
<title>OSX_WRAPPER_OBJ</title>
<polygon fill="royalblue" stroke="black" points="1107.5,-628 928.5,-628 928.5,-592 1113.5,-592 1113.5,-622 1107.5,-628"/>
<polyline fill="none" stroke="black" points="1107.5,-628 1107.5,-622 "/>
<polyline fill="none" stroke="black" points="1113.5,-622 1107.5,-622 "/>
<text text-anchor="middle" x="1021" y="-606.3" font-family="Times,serif" font-size="14.00">fooCSHARP_wrap.cxx.o</text>
</g>
<!-- OSX_WRAPPER_CPP&#45;&gt;OSX_WRAPPER_OBJ -->
<g id="edge12" class="edge">
<title>OSX_WRAPPER_CPP&#45;&gt;OSX_WRAPPER_OBJ</title>
<path fill="none" stroke="black" stroke-width="2" d="M1014.62,-679.6C1015.72,-667.75 1017.2,-651.82 1018.46,-638.29"/>
<polygon fill="black" stroke="black" stroke-width="2" points="1021.97,-638.37 1019.41,-628.08 1015,-637.72 1021.97,-638.37"/>
<text text-anchor="middle" x="1034" y="-649.8" font-family="Times,serif" font-size="14.00">g++</text>
</g>
<!-- OSX_WRAPPER_LIB -->
<g id="node15" class="node">
<title>OSX_WRAPPER_LIB</title>
<polygon fill="royalblue" stroke="black" points="1120.5,-541 927.5,-541 927.5,-537 923.5,-537 923.5,-533 927.5,-533 927.5,-511 923.5,-511 923.5,-507 927.5,-507 927.5,-503 1120.5,-503 1120.5,-541"/>
<polyline fill="none" stroke="black" points="927.5,-537 931.5,-537 931.5,-533 927.5,-533 "/>
<polyline fill="none" stroke="black" points="927.5,-511 931.5,-511 931.5,-507 927.5,-507 "/>
<text text-anchor="middle" x="1024" y="-525.8" font-family="Times,serif" font-size="14.00">mizux_foo_native.dylib</text>
<text text-anchor="middle" x="1024" y="-510.8" font-family="Times,serif" font-size="14.00">runtimes/osx&#45;x64/native/</text>
</g>
<!-- OSX_WRAPPER_OBJ&#45;&gt;OSX_WRAPPER_LIB -->
<g id="edge13" class="edge">
<title>OSX_WRAPPER_OBJ&#45;&gt;OSX_WRAPPER_LIB</title>
<path fill="none" stroke="black" stroke-width="2" d="M1021.61,-591.6C1022.01,-580.06 1022.55,-564.65 1023.01,-551.36"/>
<polygon fill="black" stroke="black" stroke-width="2" points="1026.51,-551.38 1023.36,-541.27 1019.52,-551.14 1026.51,-551.38"/>
<text text-anchor="middle" x="1029" y="-562.8" font-family="Times,serif" font-size="14.00">ld</text>
</g>
<!-- OSX_WRAPPER_LIB&#45;&gt;OSX_RUNTIME_CSPROJ -->
<g id="edge16" class="edge">
<title>OSX_WRAPPER_LIB&#45;&gt;OSX_RUNTIME_CSPROJ</title>
<path fill="none" stroke="black" stroke-dasharray="5,2" d="M1042.58,-502.92C1061.08,-484.93 1089.59,-457.19 1110.05,-437.28"/>
<polygon fill="black" stroke="black" points="1112.73,-439.55 1117.46,-430.07 1107.85,-434.53 1112.73,-439.55"/>
<text text-anchor="middle" x="1105" y="-473.8" font-family="Times,serif" font-size="14.00">Content</text>
</g>
<!-- OSX_WRAPPER_LIB&#45;&gt;OSX_RUNTIME_NUPKG -->
<g id="edge18" class="edge">
<title>OSX_WRAPPER_LIB&#45;&gt;OSX_RUNTIME_NUPKG</title>
<path fill="none" stroke="black" stroke-dasharray="5,2" d="M996.81,-502.78C983.97,-492.49 969.96,-478.41 963,-462 951.03,-433.77 947.03,-419.18 963,-393 983.42,-359.53 1020.9,-338.11 1055.76,-324.7"/>
<polygon fill="black" stroke="black" points="1057.32,-327.86 1065.51,-321.13 1054.91,-321.28 1057.32,-327.86"/>
<text text-anchor="middle" x="980" y="-408.3" font-family="Times,serif" font-size="14.00">pack</text>
</g>
<!-- OSX_WRAPPER_LIB&#45;&gt;FOO_CS -->
<g id="edge38" class="edge">
<title>OSX_WRAPPER_LIB&#45;&gt;FOO_CS</title>
<path fill="none" stroke="black" stroke-dasharray="5,2" d="M959.16,-503C935.18,-493.81 909.19,-480.55 890,-462 851.93,-425.18 830.5,-365.42 820.68,-330.92"/>
<polygon fill="black" stroke="black" points="824,-329.8 818,-321.07 817.25,-331.64 824,-329.8"/>
<text text-anchor="middle" x="919" y="-408.3" font-family="Times,serif" font-size="14.00">PInvoke</text>
</g>
<!-- OSX_DOTNET_PKG -->
<g id="node16" class="node">
<title>OSX_DOTNET_PKG</title>
<polygon fill="darkviolet" stroke="black" points="1436,-431 1286,-431 1282,-427 1282,-393 1432,-393 1436,-397 1436,-431"/>
<polyline fill="none" stroke="black" points="1432,-427 1282,-427 "/>
<polyline fill="none" stroke="black" points="1432,-427 1432,-393 "/>
<polyline fill="none" stroke="black" points="1432,-427 1436,-431 "/>
<text text-anchor="middle" x="1359" y="-415.8" font-family="Times,serif" font-size="14.00">.Net SDK packages</text>
<text text-anchor="middle" x="1359" y="-400.8" font-family="Times,serif" font-size="14.00">e.g. dotnet&#45;cli</text>
</g>
<!-- OSX_RUNTIME_CSPROJ&#45;&gt;OSX_RUNTIME_NUPKG -->
<g id="edge14" class="edge">
<title>OSX_RUNTIME_CSPROJ&#45;&gt;OSX_RUNTIME_NUPKG</title>
<path fill="none" stroke="black" stroke-width="2" d="M1135.16,-393.81C1135.32,-376.96 1135.56,-351.02 1135.74,-331.34"/>
<polygon fill="black" stroke="black" stroke-width="2" points="1139.25,-331.18 1135.84,-321.15 1132.25,-331.12 1139.25,-331.18"/>
<text text-anchor="middle" x="1177.5" y="-363.8" font-family="Times,serif" font-size="14.00">dotnet pack</text>
</g>
<!-- OSX_RUNTIME_NUPKG&#45;&gt;FOO_CSPROJ -->
<g id="edge41" class="edge">
<title>OSX_RUNTIME_NUPKG&#45;&gt;FOO_CSPROJ</title>
<path fill="none" stroke="black" stroke-dasharray="5,2" d="M1018.03,-284.97C982.36,-279.83 943.08,-274.18 907,-269 882.11,-265.43 874.31,-270.43 851,-261 846.56,-259.2 828.97,-246.44 812.66,-234.26"/>
<polygon fill="black" stroke="black" points="814.43,-231.21 804.33,-228.01 810.23,-236.81 814.43,-231.21"/>
<text text-anchor="middle" x="916.5" y="-249.8" font-family="Times,serif" font-size="14.00">PackageReference</text>
</g>
<!-- OSX_RUNTIME_NUPKG&#45;&gt;FOO_NUPKG -->
<g id="edge44" class="edge">
<title>OSX_RUNTIME_NUPKG&#45;&gt;FOO_NUPKG</title>
<path fill="none" stroke="black" stroke-dasharray="5,2" d="M1140.09,-284.79C1141.91,-273.14 1142.41,-257.79 1136,-246 1080.7,-144.34 952.99,-84.14 874.83,-55.51"/>
<polygon fill="black" stroke="black" points="875.68,-52.1 865.09,-52.01 873.31,-58.69 875.68,-52.1"/>
<text text-anchor="middle" x="1125" y="-162.8" font-family="Times,serif" font-size="14.00">dependencies</text>
</g>
<!-- WIN_PKG -->
<g id="node19" class="node">
<title>WIN_PKG</title>
<polygon fill="royalblue" stroke="black" points="2113,-717 1965,-717 1961,-713 1961,-679 2109,-679 2113,-683 2113,-717"/>
<polyline fill="none" stroke="black" points="2109,-713 1961,-713 "/>
<polyline fill="none" stroke="black" points="2109,-713 2109,-679 "/>
<polyline fill="none" stroke="black" points="2109,-713 2113,-717 "/>
<text text-anchor="middle" x="2037" y="-701.8" font-family="Times,serif" font-size="14.00">C++ dev packages</text>
<text text-anchor="middle" x="2037" y="-686.8" font-family="Times,serif" font-size="14.00">e.g. cmake, g++</text>
</g>
<!-- WIN_RUNTIME_CSPROJ -->
<g id="node25" class="node">
<title>WIN_RUNTIME_CSPROJ</title>
<polygon fill="darkviolet" stroke="black" points="1923,-430 1669,-430 1669,-394 1929,-394 1929,-424 1923,-430"/>
<polyline fill="none" stroke="black" points="1923,-430 1923,-424 "/>
<polyline fill="none" stroke="black" points="1929,-424 1923,-424 "/>
<text text-anchor="middle" x="1799" y="-408.3" font-family="Times,serif" font-size="14.00">Mizux.Foo.runtime.win&#45;x64.csproj</text>
</g>
<!-- WIN_LIB&#45;&gt;WIN_RUNTIME_CSPROJ -->
<g id="edge25" class="edge">
<title>WIN_LIB&#45;&gt;WIN_RUNTIME_CSPROJ</title>
<path fill="none" stroke="black" stroke-dasharray="5,2" d="M1842.05,-678.8C1834.21,-630.38 1812.79,-498.16 1803.45,-440.5"/>
<polygon fill="black" stroke="black" points="1806.86,-439.63 1801.81,-430.32 1799.95,-440.75 1806.86,-439.63"/>
<text text-anchor="middle" x="1853" y="-562.8" font-family="Times,serif" font-size="14.00">Content</text>
</g>
<!-- WIN_RUNTIME_NUPKG -->
<g id="node26" class="node">
<title>WIN_RUNTIME_NUPKG</title>
<polygon fill="darkviolet" stroke="black" points="1930.5,-321 1927.5,-325 1906.5,-325 1903.5,-321 1669.5,-321 1669.5,-285 1930.5,-285 1930.5,-321"/>
<text text-anchor="middle" x="1800" y="-299.3" font-family="Times,serif" font-size="14.00">Mizux.Foo.runtime.win&#45;x64.nupkg</text>
</g>
<!-- WIN_LIB&#45;&gt;WIN_RUNTIME_NUPKG -->
<g id="edge27" class="edge">
<title>WIN_LIB&#45;&gt;WIN_RUNTIME_NUPKG</title>
<path fill="none" stroke="black" stroke-dasharray="5,2" d="M1883.32,-678.93C1975.56,-633 2196.15,-507.36 2110,-393 2086.37,-361.64 1995.59,-337.93 1918.32,-322.9"/>
<polygon fill="black" stroke="black" points="1918.97,-319.46 1908.49,-321.01 1917.66,-326.33 1918.97,-319.46"/>
<text text-anchor="middle" x="2133" y="-518.3" font-family="Times,serif" font-size="14.00">pack</text>
</g>
<!-- WIN_WRAPPER_OBJ -->
<g id="node22" class="node">
<title>WIN_WRAPPER_OBJ</title>
<polygon fill="royalblue" stroke="black" points="1737.5,-628 1558.5,-628 1558.5,-592 1743.5,-592 1743.5,-622 1737.5,-628"/>
<polyline fill="none" stroke="black" points="1737.5,-628 1737.5,-622 "/>
<polyline fill="none" stroke="black" points="1743.5,-622 1737.5,-622 "/>
<text text-anchor="middle" x="1651" y="-606.3" font-family="Times,serif" font-size="14.00">fooCSHARP_wrap.cxx.o</text>
</g>
<!-- WIN_WRAPPER_CPP&#45;&gt;WIN_WRAPPER_OBJ -->
<g id="edge22" class="edge">
<title>WIN_WRAPPER_CPP&#45;&gt;WIN_WRAPPER_OBJ</title>
<path fill="none" stroke="black" stroke-width="2" d="M1644.62,-679.6C1645.72,-667.75 1647.2,-651.82 1648.46,-638.29"/>
<polygon fill="black" stroke="black" stroke-width="2" points="1651.97,-638.37 1649.41,-628.08 1645,-637.72 1651.97,-638.37"/>
<text text-anchor="middle" x="1664" y="-649.8" font-family="Times,serif" font-size="14.00">g++</text>
</g>
<!-- WIN_WRAPPER_LIB -->
<g id="node23" class="node">
<title>WIN_WRAPPER_LIB</title>
<polygon fill="royalblue" stroke="black" points="1751.5,-541 1556.5,-541 1556.5,-537 1552.5,-537 1552.5,-533 1556.5,-533 1556.5,-511 1552.5,-511 1552.5,-507 1556.5,-507 1556.5,-503 1751.5,-503 1751.5,-541"/>
<polyline fill="none" stroke="black" points="1556.5,-537 1560.5,-537 1560.5,-533 1556.5,-533 "/>
<polyline fill="none" stroke="black" points="1556.5,-511 1560.5,-511 1560.5,-507 1556.5,-507 "/>
<text text-anchor="middle" x="1654" y="-525.8" font-family="Times,serif" font-size="14.00">mizux_foo_native.dll</text>
<text text-anchor="middle" x="1654" y="-510.8" font-family="Times,serif" font-size="14.00">runtimes/win&#45;x64/native/</text>
</g>
<!-- WIN_WRAPPER_OBJ&#45;&gt;WIN_WRAPPER_LIB -->
<g id="edge23" class="edge">
<title>WIN_WRAPPER_OBJ&#45;&gt;WIN_WRAPPER_LIB</title>
<path fill="none" stroke="black" stroke-width="2" d="M1651.61,-591.6C1652.01,-580.06 1652.55,-564.65 1653.01,-551.36"/>
<polygon fill="black" stroke="black" stroke-width="2" points="1656.51,-551.38 1653.36,-541.27 1649.52,-551.14 1656.51,-551.38"/>
<text text-anchor="middle" x="1659" y="-562.8" font-family="Times,serif" font-size="14.00">ld</text>
</g>
<!-- WIN_WRAPPER_LIB&#45;&gt;WIN_RUNTIME_CSPROJ -->
<g id="edge26" class="edge">
<title>WIN_WRAPPER_LIB&#45;&gt;WIN_RUNTIME_CSPROJ</title>
<path fill="none" stroke="black" stroke-dasharray="5,2" d="M1678.27,-502.92C1702.86,-484.61 1740.99,-456.21 1767.81,-436.23"/>
<polygon fill="black" stroke="black" points="1770.16,-438.85 1776.09,-430.07 1765.98,-433.23 1770.16,-438.85"/>
<text text-anchor="middle" x="1751" y="-473.8" font-family="Times,serif" font-size="14.00">Content</text>
</g>
<!-- WIN_WRAPPER_LIB&#45;&gt;WIN_RUNTIME_NUPKG -->
<g id="edge28" class="edge">
<title>WIN_WRAPPER_LIB&#45;&gt;WIN_RUNTIME_NUPKG</title>
<path fill="none" stroke="black" stroke-dasharray="5,2" d="M1642.16,-502.65C1626.91,-476.48 1604.75,-427.73 1626,-393 1646.55,-359.4 1684.25,-337.97 1719.31,-324.59"/>
<polygon fill="black" stroke="black" points="1720.91,-327.73 1729.11,-321.02 1718.52,-321.15 1720.91,-327.73"/>
<text text-anchor="middle" x="1643" y="-408.3" font-family="Times,serif" font-size="14.00">pack</text>
</g>
<!-- WIN_WRAPPER_LIB&#45;&gt;FOO_CS -->
<g id="edge39" class="edge">
<title>WIN_WRAPPER_LIB&#45;&gt;FOO_CS</title>
<path fill="none" stroke="black" stroke-dasharray="5,2" d="M1619.34,-502.86C1599.76,-492.01 1575.24,-477.37 1555,-462 1502.67,-422.27 1508.78,-384.95 1448,-360 1424.66,-350.42 1018.98,-355.5 994,-352 945.25,-345.17 890.85,-329.5 854.74,-317.91"/>
<polygon fill="black" stroke="black" points="855.66,-314.53 845.06,-314.76 853.49,-321.18 855.66,-314.53"/>
<text text-anchor="middle" x="1584" y="-408.3" font-family="Times,serif" font-size="14.00">PInvoke</text>
</g>
<!-- WIN_DOTNET_PKG -->
<g id="node24" class="node">
<title>WIN_DOTNET_PKG</title>
<polygon fill="darkviolet" stroke="black" points="2101,-431 1951,-431 1947,-427 1947,-393 2097,-393 2101,-397 2101,-431"/>
<polyline fill="none" stroke="black" points="2097,-427 1947,-427 "/>
<polyline fill="none" stroke="black" points="2097,-427 2097,-393 "/>
<polyline fill="none" stroke="black" points="2097,-427 2101,-431 "/>
<text text-anchor="middle" x="2024" y="-415.8" font-family="Times,serif" font-size="14.00">.Net SDK packages</text>
<text text-anchor="middle" x="2024" y="-400.8" font-family="Times,serif" font-size="14.00">e.g. dotnet&#45;cli</text>
</g>
<!-- WIN_RUNTIME_CSPROJ&#45;&gt;WIN_RUNTIME_NUPKG -->
<g id="edge24" class="edge">
<title>WIN_RUNTIME_CSPROJ&#45;&gt;WIN_RUNTIME_NUPKG</title>
<path fill="none" stroke="black" stroke-width="2" d="M1799.16,-393.81C1799.32,-376.96 1799.56,-351.02 1799.74,-331.34"/>
<polygon fill="black" stroke="black" stroke-width="2" points="1803.25,-331.18 1799.84,-321.15 1796.25,-331.12 1803.25,-331.18"/>
<text text-anchor="middle" x="1841.5" y="-363.8" font-family="Times,serif" font-size="14.00">dotnet pack</text>
</g>
<!-- WIN_RUNTIME_NUPKG&#45;&gt;FOO_CSPROJ -->
<g id="edge42" class="edge">
<title>WIN_RUNTIME_NUPKG&#45;&gt;FOO_CSPROJ</title>
<path fill="none" stroke="black" stroke-dasharray="5,2" d="M1669.22,-289.53C1602.94,-283.27 1521.2,-275.62 1448,-269 1236.07,-249.84 986.09,-228.37 861.27,-217.73"/>
<polygon fill="black" stroke="black" points="861.31,-214.22 851.04,-216.86 860.71,-221.2 861.31,-214.22"/>
<text text-anchor="middle" x="1422.5" y="-249.8" font-family="Times,serif" font-size="14.00">PackageReference</text>
</g>
<!-- WIN_RUNTIME_NUPKG&#45;&gt;FOO_NUPKG -->
<g id="edge45" class="edge">
<title>WIN_RUNTIME_NUPKG&#45;&gt;FOO_NUPKG</title>
<path fill="none" stroke="black" stroke-dasharray="5,2" d="M1737.24,-284.99C1595.38,-246.55 1239.19,-150.1 941,-70 922.5,-65.03 902.52,-59.68 883.88,-54.7"/>
<polygon fill="black" stroke="black" points="884.54,-51.25 873.97,-52.06 882.73,-58.02 884.54,-51.25"/>
<text text-anchor="middle" x="1370" y="-162.8" font-family="Times,serif" font-size="14.00">dependencies</text>
</g>
<!-- FOO_CS&#45;&gt;FOO_CSPROJ -->
<g id="edge32" class="edge">
<title>FOO_CS&#45;&gt;FOO_CSPROJ</title>
<path fill="none" stroke="black" stroke-dasharray="5,2" d="M788.04,-284.85C780.45,-278.37 773.1,-270.28 769,-261 765.77,-253.7 766.36,-245.43 768.5,-237.75"/>
<polygon fill="black" stroke="black" points="771.88,-238.72 772.02,-228.12 765.3,-236.32 771.88,-238.72"/>
<text text-anchor="middle" x="798.5" y="-249.8" font-family="Times,serif" font-size="14.00">Compile</text>
</g>
<!-- FOO_DLL -->
<g id="node29" class="node">
<title>FOO_DLL</title>
<polygon fill="darkviolet" stroke="black" points="773.5,-141 620.5,-141 620.5,-137 616.5,-137 616.5,-133 620.5,-133 620.5,-111 616.5,-111 616.5,-107 620.5,-107 620.5,-103 773.5,-103 773.5,-141"/>
<polyline fill="none" stroke="black" points="620.5,-137 624.5,-137 624.5,-133 620.5,-133 "/>
<polyline fill="none" stroke="black" points="620.5,-111 624.5,-111 624.5,-107 620.5,-107 "/>
<text text-anchor="middle" x="697" y="-125.8" font-family="Times,serif" font-size="14.00">Mizux.Foo.dll</text>
<text text-anchor="middle" x="697" y="-110.8" font-family="Times,serif" font-size="14.00">lib/netstandard2.1/</text>
</g>
<!-- FOO_CSPROJ&#45;&gt;FOO_DLL -->
<g id="edge33" class="edge">
<title>FOO_CSPROJ&#45;&gt;FOO_DLL</title>
<path fill="none" stroke="black" stroke-width="2" d="M739.69,-191.84C731.38,-187.02 723.29,-181.1 717,-174 711.17,-167.42 706.94,-158.95 703.92,-150.8"/>
<polygon fill="black" stroke="black" stroke-width="2" points="707.21,-149.61 700.81,-141.18 700.55,-151.77 707.21,-149.61"/>
<text text-anchor="middle" x="761" y="-162.8" font-family="Times,serif" font-size="14.00">dotnet build</text>
</g>
<!-- FOO_CSPROJ&#45;&gt;FOO_NUPKG -->
<g id="edge35" class="edge">
<title>FOO_CSPROJ&#45;&gt;FOO_NUPKG</title>
<path fill="none" stroke="black" stroke-width="2" d="M795.96,-191.8C799.58,-186.41 803.01,-180.23 805,-174 816.9,-136.67 815.73,-90.81 813.27,-62.24"/>
<polygon fill="black" stroke="black" stroke-width="2" points="816.74,-61.8 812.29,-52.19 809.77,-62.48 816.74,-61.8"/>
<text text-anchor="middle" x="856.5" y="-118.3" font-family="Times,serif" font-size="14.00">dotnet pack</text>
</g>
<!-- FOO_DLL&#45;&gt;FOO_NUPKG -->
<g id="edge34" class="edge">
<title>FOO_DLL&#45;&gt;FOO_NUPKG</title>
<path fill="none" stroke="black" stroke-dasharray="5,2" d="M720.69,-102.97C737.75,-89.99 760.92,-72.35 779.38,-58.3"/>
<polygon fill="black" stroke="black" points="781.66,-60.97 787.5,-52.13 777.42,-55.4 781.66,-60.97"/>
<text text-anchor="middle" x="780" y="-73.8" font-family="Times,serif" font-size="14.00">pack</text>
</g>
</g>
</svg>
