<?xml version="1.0" encoding="UTF-8" standalone="no"?>
<!DOCTYPE svg PUBLIC "-//W3C//DTD SVG 1.1//EN"
 "http://www.w3.org/Graphics/SVG/1.1/DTD/svg11.dtd">
<!-- Generated by graphviz version 2.38.0 (20140413.2041)
 -->
<!-- Title: Make Pages: 1 -->
<svg width="1229pt" height="863pt"
 viewBox="0.00 0.00 1229.00 863.00" xmlns="http://www.w3.org/2000/svg" xmlns:xlink="http://www.w3.org/1999/xlink">
<g id="graph0" class="graph" transform="scale(1 1) rotate(0) translate(4 859)">
<title>Make</title>
<polygon fill="white" stroke="none" points="-4,4 -4,-859 1225,-859 1225,4 -4,4"/>
<g id="clust1" class="cluster"><title>clusterLinux</title>
<polygon fill="none" stroke="crimson" points="8,-150 8,-577 370,-577 370,-150 8,-150"/>
<text text-anchor="middle" x="189" y="-157.8" font-family="Times,serif" font-size="14.00">Linux Host</text>
</g>
<g id="clust2" class="cluster"><title>clusterOsx</title>
<polygon fill="none" stroke="forestgreen" points="461,-150 461,-577 815,-577 815,-150 461,-150"/>
<text text-anchor="middle" x="638" y="-157.8" font-family="Times,serif" font-size="14.00">macOS Host</text>
</g>
<g id="clust3" class="cluster"><title>clusterWin</title>
<polygon fill="none" stroke="dodgerblue" points="859,-150 859,-577 1213,-577 1213,-150 859,-150"/>
<text text-anchor="middle" x="1036" y="-157.8" font-family="Times,serif" font-size="14.00">Windows Host</text>
</g>
<g id="clust4" class="cluster"><title>clusterAny</title>
<polygon fill="none" stroke="dimgrey" points="484,-596 484,-847 710,-847 710,-596 484,-596"/>
<text text-anchor="middle" x="597" y="-603.8" font-family="Times,serif" font-size="14.00">Any Previous Host</text>
</g>
<!-- CPP -->
<g id="node1" class="node"><title>CPP</title>
<polygon fill="royalblue" stroke="black" points="894,-36 774,-36 774,-0 900,-0 900,-30 894,-36"/>
<polyline fill="none" stroke="black" points="894,-36 894,-30 "/>
<polyline fill="none" stroke="black" points="900,-30 894,-30 "/>
<text text-anchor="middle" x="837" y="-14.3" font-family="Times,serif" font-size="14.00">Native.h/Native.cpp</text>
</g>
<!-- SWIG -->
<g id="node2" class="node"><title>SWIG</title>
<polygon fill="white" stroke="black" points="766,-123 690,-123 690,-87 772,-87 772,-117 766,-123"/>
<polyline fill="none" stroke="black" points="766,-123 766,-117 "/>
<polyline fill="none" stroke="black" points="772,-117 766,-117 "/>
<text text-anchor="middle" x="731" y="-101.3" font-family="Times,serif" font-size="14.00">Native.swig</text>
</g>
<!-- CPP&#45;&gt;SWIG -->
<g id="edge1" class="edge"><title>CPP&#45;&gt;SWIG</title>
<path fill="none" stroke="black" stroke-dasharray="5,2" d="M815.549,-36.201C799.745,-48.8743 778.056,-66.2665 760.602,-80.2623"/>
<polygon fill="black" stroke="black" points="758.031,-77.8381 752.419,-86.8246 762.41,-83.2991 758.031,-77.8381"/>
<text text-anchor="middle" x="811" y="-57.8" font-family="Times,serif" font-size="14.00">include</text>
</g>
<!-- LINUX_LIB -->
<g id="node3" class="node"><title>LINUX_LIB</title>
<polygon fill="royalblue" stroke="black" points="362,-219 204,-219 204,-215 200,-215 200,-211 204,-211 204,-189 200,-189 200,-185 204,-185 204,-181 362,-181 362,-219"/>
<polyline fill="none" stroke="black" points="204,-215 208,-215 208,-211 204,-211 "/>
<polyline fill="none" stroke="black" points="204,-189 208,-189 208,-185 204,-185 "/>
<text text-anchor="middle" x="283" y="-203.8" font-family="Times,serif" font-size="14.00">Native.so</text>
<text text-anchor="middle" x="283" y="-188.8" font-family="Times,serif" font-size="14.00">runtimes/linux&#45;x64/native</text>
</g>
<!-- CPP&#45;&gt;LINUX_LIB -->
<g id="edge10" class="edge"><title>CPP&#45;&gt;LINUX_LIB</title>
<path fill="none" stroke="black" stroke-width="2" d="M773.655,-35.8616C687.839,-58.8556 529.965,-101.692 396,-141 383.051,-144.8 379.353,-144.565 367,-150 350.747,-157.151 333.671,-166.697 319.191,-175.462"/>
<polygon fill="black" stroke="black" stroke-width="2" points="317.22,-172.566 310.542,-180.791 320.892,-178.526 317.22,-172.566"/>
<text text-anchor="middle" x="596" y="-101.3" font-family="Times,serif" font-size="14.00">g++</text>
</g>
<!-- OSX_LIB -->
<g id="node8" class="node"><title>OSX_LIB</title>
<polygon fill="royalblue" stroke="black" points="805.5,-219 656.5,-219 656.5,-215 652.5,-215 652.5,-211 656.5,-211 656.5,-189 652.5,-189 652.5,-185 656.5,-185 656.5,-181 805.5,-181 805.5,-219"/>
<polyline fill="none" stroke="black" points="656.5,-215 660.5,-215 660.5,-211 656.5,-211 "/>
<polyline fill="none" stroke="black" points="656.5,-189 660.5,-189 660.5,-185 656.5,-185 "/>
<text text-anchor="middle" x="731" y="-203.8" font-family="Times,serif" font-size="14.00">Native.dylib</text>
<text text-anchor="middle" x="731" y="-188.8" font-family="Times,serif" font-size="14.00">runtimes/osx&#45;x64/native</text>
</g>
<!-- CPP&#45;&gt;OSX_LIB -->
<g id="edge19" class="edge"><title>CPP&#45;&gt;OSX_LIB</title>
<path fill="none" stroke="black" stroke-width="2" d="M838.917,-36.1869C839.39,-46.0825 838.89,-58.5825 835,-69 819.332,-110.961 784.523,-149.758 759.488,-173.845"/>
<polygon fill="black" stroke="black" stroke-width="2" points="756.946,-171.432 752.065,-180.835 761.744,-176.528 756.946,-171.432"/>
<text text-anchor="middle" x="842" y="-101.3" font-family="Times,serif" font-size="14.00">clang</text>
</g>
<!-- WIN_LIB -->
<g id="node13" class="node"><title>WIN_LIB</title>
<polygon fill="royalblue" stroke="black" points="1035,-219 885,-219 885,-215 881,-215 881,-211 885,-211 885,-189 881,-189 881,-185 885,-185 885,-181 1035,-181 1035,-219"/>
<polyline fill="none" stroke="black" points="885,-215 889,-215 889,-211 885,-211 "/>
<polyline fill="none" stroke="black" points="885,-189 889,-189 889,-185 885,-185 "/>
<text text-anchor="middle" x="960" y="-203.8" font-family="Times,serif" font-size="14.00">Native.dll</text>
<text text-anchor="middle" x="960" y="-188.8" font-family="Times,serif" font-size="14.00">runtimes/win&#45;x64/native</text>
</g>
<!-- CPP&#45;&gt;WIN_LIB -->
<g id="edge28" class="edge"><title>CPP&#45;&gt;WIN_LIB</title>
<path fill="none" stroke="black" stroke-width="2" d="M848.794,-36.2592C870.392,-67.8666 916.421,-135.225 941.97,-172.614"/>
<polygon fill="black" stroke="black" stroke-width="2" points="939.165,-174.713 947.696,-180.995 944.944,-170.764 939.165,-174.713"/>
<text text-anchor="middle" x="916.5" y="-101.3" font-family="Times,serif" font-size="14.00">vcs</text>
</g>
<!-- SWIG&#45;&gt;LINUX_LIB -->
<g id="edge38" class="edge"><title>SWIG&#45;&gt;LINUX_LIB</title>
</g>
<!-- LINUX_CS -->
<g id="node4" class="node"><title>LINUX_CS</title>
<polygon fill="darkviolet" stroke="black" points="356,-306 214,-306 214,-270 362,-270 362,-300 356,-306"/>
<polyline fill="none" stroke="black" points="356,-306 356,-300 "/>
<polyline fill="none" stroke="black" points="362,-300 356,-300 "/>
<text text-anchor="middle" x="288" y="-284.3" font-family="Times,serif" font-size="14.00">NativeLinuxWrapper.cs</text>
</g>
<!-- SWIG&#45;&gt;LINUX_CS -->
<g id="edge9" class="edge"><title>SWIG&#45;&gt;LINUX_CS</title>
<path fill="none" stroke="black" stroke-width="2" d="M689.929,-108.501C618.499,-113.426 474.821,-126.041 431,-150 395.342,-169.496 399.152,-189.691 371,-219 356.19,-234.419 352.448,-238.341 336,-252 331.324,-255.883 326.256,-259.834 321.226,-263.614"/>
<polygon fill="black" stroke="black" stroke-width="2" points="318.842,-261.023 312.871,-269.775 322.997,-266.657 318.842,-261.023"/>
<text text-anchor="middle" x="444" y="-196.3" font-family="Times,serif" font-size="14.00">swig</text>
</g>
<!-- SWIG&#45;&gt;OSX_LIB -->
<g id="edge39" class="edge"><title>SWIG&#45;&gt;OSX_LIB</title>
</g>
<!-- OSX_CS -->
<g id="node9" class="node"><title>OSX_CS</title>
<polygon fill="darkviolet" stroke="black" points="676.5,-306 545.5,-306 545.5,-270 682.5,-270 682.5,-300 676.5,-306"/>
<polyline fill="none" stroke="black" points="676.5,-306 676.5,-300 "/>
<polyline fill="none" stroke="black" points="682.5,-300 676.5,-300 "/>
<text text-anchor="middle" x="614" y="-284.3" font-family="Times,serif" font-size="14.00">NativeOsxWrapper.cs</text>
</g>
<!-- SWIG&#45;&gt;OSX_CS -->
<g id="edge18" class="edge"><title>SWIG&#45;&gt;OSX_CS</title>
<path fill="none" stroke="black" stroke-width="2" d="M689.965,-111.361C665.76,-116.822 636.85,-127.83 621,-150 598.055,-182.094 601.874,-230.019 607.427,-259.847"/>
<polygon fill="black" stroke="black" stroke-width="2" points="604.063,-260.865 609.505,-269.955 610.92,-259.455 604.063,-260.865"/>
<text text-anchor="middle" x="634" y="-196.3" font-family="Times,serif" font-size="14.00">swig</text>
</g>
<!-- SWIG&#45;&gt;WIN_LIB -->
<g id="edge40" class="edge"><title>SWIG&#45;&gt;WIN_LIB</title>
</g>
<!-- WIN_CS -->
<g id="node14" class="node"><title>WIN_CS</title>
<polygon fill="darkviolet" stroke="black" points="1001,-306 867,-306 867,-270 1007,-270 1007,-300 1001,-306"/>
<polyline fill="none" stroke="black" points="1001,-306 1001,-300 "/>
<polyline fill="none" stroke="black" points="1007,-300 1001,-300 "/>
<text text-anchor="middle" x="937" y="-284.3" font-family="Times,serif" font-size="14.00">NativeWinWrapper.cs</text>
</g>
<!-- SWIG&#45;&gt;WIN_CS -->
<g id="edge27" class="edge"><title>SWIG&#45;&gt;WIN_CS</title>
<path fill="none" stroke="black" stroke-width="2" d="M772.423,-119.767C788.571,-126.777 806.228,-136.688 819,-150 842.275,-174.26 829.26,-192.54 850,-219 863.797,-236.602 883.087,-252.283 899.998,-264.139"/>
<polygon fill="black" stroke="black" stroke-width="2" points="898.347,-267.248 908.583,-269.979 902.284,-261.46 898.347,-267.248"/>
<text text-anchor="middle" x="863" y="-196.3" font-family="Times,serif" font-size="14.00">swig</text>
</g>
<!-- LINUX_LIB&#45;&gt;LINUX_CS -->
<g id="edge2" class="edge"><title>LINUX_LIB&#45;&gt;LINUX_CS</title>
<path fill="none" stroke="black" stroke-dasharray="5,2" d="M284.06,-219.238C284.748,-231.066 285.656,-246.684 286.427,-259.945"/>
<polygon fill="black" stroke="black" points="282.935,-260.178 287.009,-269.958 289.923,-259.771 282.935,-260.178"/>
<text text-anchor="middle" x="309" y="-240.8" font-family="Times,serif" font-size="14.00">PInvoke</text>
</g>
<!-- LINUX_CSPROJ -->
<g id="node5" class="node"><title>LINUX_CSPROJ</title>
<polygon fill="darkviolet" stroke="black" points="294.5,-393 123.5,-393 123.5,-357 300.5,-357 300.5,-387 294.5,-393"/>
<polyline fill="none" stroke="black" points="294.5,-393 294.5,-387 "/>
<polyline fill="none" stroke="black" points="300.5,-387 294.5,-387 "/>
<text text-anchor="middle" x="212" y="-371.3" font-family="Times,serif" font-size="14.00">runtime.linux&#45;x64.Foo.csproj</text>
</g>
<!-- LINUX_LIB&#45;&gt;LINUX_CSPROJ -->
<g id="edge4" class="edge"><title>LINUX_LIB&#45;&gt;LINUX_CSPROJ</title>
<path fill="none" stroke="black" stroke-dasharray="5,2" d="M208.617,-219.12C183.669,-229.44 159.119,-245.423 147,-270 132.787,-298.824 157.93,-329.812 180.961,-350.392"/>
<polygon fill="black" stroke="black" points="178.757,-353.113 188.63,-356.954 183.308,-347.794 178.757,-353.113"/>
<text text-anchor="middle" x="168.5" y="-284.3" font-family="Times,serif" font-size="14.00">Content</text>
</g>
<!-- LINUX_NUPKG -->
<g id="node7" class="node"><title>LINUX_NUPKG</title>
<polygon fill="darkviolet" stroke="black" points="359,-569 356,-573 335,-573 332,-569 141,-569 141,-533 359,-533 359,-569"/>
<text text-anchor="middle" x="250" y="-547.3" font-family="Times,serif" font-size="14.00">runtime.linux&#45;x64.Mizux.Foo.nupkg</text>
</g>
<!-- LINUX_LIB&#45;&gt;LINUX_NUPKG -->
<g id="edge6" class="edge"><title>LINUX_LIB&#45;&gt;LINUX_NUPKG</title>
<path fill="none" stroke="black" stroke-dasharray="5,2" d="M251.93,-219.118C234.617,-231.112 214.654,-248.571 205,-270 198.428,-284.588 198.458,-291.399 205,-306 214.01,-326.109 222.614,-328.525 242,-339 269.127,-353.658 285.254,-337.332 309,-357 354.136,-394.385 378.537,-430.264 351,-482 340.325,-502.055 320.811,-517.257 301.762,-528.145"/>
<polygon fill="black" stroke="black" points="299.917,-525.163 292.783,-532.995 303.245,-531.322 299.917,-525.163"/>
<text text-anchor="middle" x="358" y="-371.3" font-family="Times,serif" font-size="14.00">pack</text>
</g>
<!-- LINUX_CS&#45;&gt;LINUX_CSPROJ -->
<g id="edge3" class="edge"><title>LINUX_CS&#45;&gt;LINUX_CSPROJ</title>
<path fill="none" stroke="black" stroke-dasharray="5,2" d="M272.62,-306.201C261.598,-318.529 246.583,-335.321 234.255,-349.11"/>
<polygon fill="black" stroke="black" points="231.413,-347.037 227.357,-356.825 236.631,-351.703 231.413,-347.037"/>
<text text-anchor="middle" x="279" y="-327.8" font-family="Times,serif" font-size="14.00">Compile</text>
</g>
<!-- LINUX_DLL -->
<g id="node6" class="node"><title>LINUX_DLL</title>
<polygon fill="darkviolet" stroke="black" points="342,-482 116,-482 116,-478 112,-478 112,-474 116,-474 116,-452 112,-452 112,-448 116,-448 116,-444 342,-444 342,-482"/>
<polyline fill="none" stroke="black" points="116,-478 120,-478 120,-474 116,-474 "/>
<polyline fill="none" stroke="black" points="116,-452 120,-452 120,-448 116,-448 "/>
<text text-anchor="middle" x="229" y="-466.8" font-family="Times,serif" font-size="14.00">Mizux.Foo.dll</text>
<text text-anchor="middle" x="229" y="-451.8" font-family="Times,serif" font-size="14.00">runtimes/linux&#45;x64/lib/netstandard2.0/</text>
</g>
<!-- LINUX_CSPROJ&#45;&gt;LINUX_DLL -->
<g id="edge5" class="edge"><title>LINUX_CSPROJ&#45;&gt;LINUX_DLL</title>
<path fill="none" stroke="black" stroke-width="2" d="M215.44,-393.403C217.722,-404.944 220.767,-420.353 223.394,-433.643"/>
<polygon fill="black" stroke="black" stroke-width="2" points="220.016,-434.601 225.389,-443.732 226.883,-433.243 220.016,-434.601"/>
<text text-anchor="middle" x="255" y="-414.8" font-family="Times,serif" font-size="14.00">dotnet build</text>
</g>
<!-- LINUX_CSPROJ&#45;&gt;LINUX_NUPKG -->
<g id="edge8" class="edge"><title>LINUX_CSPROJ&#45;&gt;LINUX_NUPKG</title>
<path fill="none" stroke="black" stroke-width="2" d="M135.988,-393.074C77.7091,-409.89 12.075,-439.29 43,-482 63.7467,-510.653 96.9595,-527.446 130.762,-537.221"/>
<polygon fill="black" stroke="black" stroke-width="2" points="130.212,-540.697 140.778,-539.915 132.03,-533.937 130.212,-540.697"/>
<text text-anchor="middle" x="75" y="-459.3" font-family="Times,serif" font-size="14.00">dotnet pack</text>
</g>
<!-- FOO_REF -->
<g id="node18" class="node"><title>FOO_REF</title>
<polygon fill="darkviolet" stroke="black" points="632.5,-665 513.5,-665 513.5,-661 509.5,-661 509.5,-657 513.5,-657 513.5,-635 509.5,-635 509.5,-631 513.5,-631 513.5,-627 632.5,-627 632.5,-665"/>
<polyline fill="none" stroke="black" points="513.5,-661 517.5,-661 517.5,-657 513.5,-657 "/>
<polyline fill="none" stroke="black" points="513.5,-635 517.5,-635 517.5,-631 513.5,-631 "/>
<text text-anchor="middle" x="573" y="-649.8" font-family="Times,serif" font-size="14.00">Mizux.Foo.dll</text>
<text text-anchor="middle" x="573" y="-634.8" font-family="Times,serif" font-size="14.00">ref/netstandard2.0/</text>
</g>
<!-- LINUX_CSPROJ&#45;&gt;FOO_REF -->
<g id="edge29" class="edge"><title>LINUX_CSPROJ&#45;&gt;FOO_REF</title>
<path fill="none" stroke="black" stroke-width="2" d="M253.052,-393.046C265.665,-398.527 279.51,-404.793 292,-411 318.906,-424.371 329.722,-422.788 351,-444 376.65,-469.571 368.655,-486.495 391,-515 415.829,-546.674 422.803,-555.779 457,-577 477.553,-589.754 486.788,-584.376 508,-596 520.542,-602.873 533.326,-611.97 544.201,-620.458"/>
<polygon fill="black" stroke="black" stroke-width="2" points="542.113,-623.27 552.109,-626.783 546.486,-617.803 542.113,-623.27"/>
<text text-anchor="middle" x="424" y="-503.8" font-family="Times,serif" font-size="14.00">dotnet build</text>
</g>
<!-- LINUX_DLL&#45;&gt;LINUX_NUPKG -->
<g id="edge7" class="edge"><title>LINUX_DLL&#45;&gt;LINUX_NUPKG</title>
<path fill="none" stroke="black" stroke-dasharray="5,2" d="M233.454,-482.238C236.342,-494.066 240.155,-509.684 243.394,-522.945"/>
<polygon fill="black" stroke="black" points="240.066,-524.073 245.839,-532.958 246.866,-522.413 240.066,-524.073"/>
<text text-anchor="middle" x="255" y="-503.8" font-family="Times,serif" font-size="14.00">pack</text>
</g>
<!-- LINUX_NUPKG&#45;&gt;FOO_REF -->
<g id="edge41" class="edge"><title>LINUX_NUPKG&#45;&gt;FOO_REF</title>
</g>
<!-- FOO_CSPROJ -->
<g id="node19" class="node"><title>FOO_CSPROJ</title>
<polygon fill="darkviolet" stroke="black" points="685,-752 617,-752 617,-716 691,-716 691,-746 685,-752"/>
<polyline fill="none" stroke="black" points="685,-752 685,-746 "/>
<polyline fill="none" stroke="black" points="691,-746 685,-746 "/>
<text text-anchor="middle" x="654" y="-730.3" font-family="Times,serif" font-size="14.00">Foo.csproj</text>
</g>
<!-- LINUX_NUPKG&#45;&gt;FOO_CSPROJ -->
<g id="edge35" class="edge"><title>LINUX_NUPKG&#45;&gt;FOO_CSPROJ</title>
<path fill="none" stroke="black" stroke-dasharray="5,2" d="M268.358,-569.289C295.75,-594.143 349.912,-639.752 404,-665 487.216,-703.846 519.168,-687.965 606.746,-714.459"/>
<polygon fill="black" stroke="black" points="605.957,-717.879 616.546,-717.528 608.049,-711.199 605.957,-717.879"/>
<text text-anchor="middle" x="454" y="-642.3" font-family="Times,serif" font-size="14.00">PackageReference</text>
</g>
<!-- OSX_LIB&#45;&gt;OSX_CS -->
<g id="edge11" class="edge"><title>OSX_LIB&#45;&gt;OSX_CS</title>
<path fill="none" stroke="black" stroke-dasharray="5,2" d="M696.108,-219.062C686.71,-224.425 676.734,-230.591 668,-237 657.538,-244.677 646.878,-254.132 637.824,-262.746"/>
<polygon fill="black" stroke="black" points="635.371,-260.25 630.635,-269.727 640.248,-265.271 635.371,-260.25"/>
<text text-anchor="middle" x="691" y="-240.8" font-family="Times,serif" font-size="14.00">PInvoke</text>
</g>
<!-- OSX_CSPROJ -->
<g id="node10" class="node"><title>OSX_CSPROJ</title>
<polygon fill="darkviolet" stroke="black" points="692,-393 530,-393 530,-357 698,-357 698,-387 692,-393"/>
<polyline fill="none" stroke="black" points="692,-393 692,-387 "/>
<polyline fill="none" stroke="black" points="698,-387 692,-387 "/>
<text text-anchor="middle" x="614" y="-371.3" font-family="Times,serif" font-size="14.00">runtime.osx&#45;x64.Foo.csproj</text>
</g>
<!-- OSX_LIB&#45;&gt;OSX_CSPROJ -->
<g id="edge13" class="edge"><title>OSX_LIB&#45;&gt;OSX_CSPROJ</title>
<path fill="none" stroke="black" stroke-dasharray="5,2" d="M726.989,-219.189C719.691,-248.26 701.598,-305.338 666,-339 661.593,-343.167 656.64,-347.179 651.588,-350.905"/>
<polygon fill="black" stroke="black" points="649.245,-348.274 643.071,-356.884 653.267,-354.003 649.245,-348.274"/>
<text text-anchor="middle" x="732.5" y="-284.3" font-family="Times,serif" font-size="14.00">Content</text>
</g>
<!-- OSX_NUPKG -->
<g id="node12" class="node"><title>OSX_NUPKG</title>
<polygon fill="darkviolet" stroke="black" points="773.5,-569 770.5,-573 749.5,-573 746.5,-569 564.5,-569 564.5,-533 773.5,-533 773.5,-569"/>
<text text-anchor="middle" x="669" y="-547.3" font-family="Times,serif" font-size="14.00">runtime.osx&#45;x64.Mizux.Foo.nupkg</text>
</g>
<!-- OSX_LIB&#45;&gt;OSX_NUPKG -->
<g id="edge15" class="edge"><title>OSX_LIB&#45;&gt;OSX_NUPKG</title>
<path fill="none" stroke="black" stroke-dasharray="5,2" d="M740.121,-219.036C762.29,-265.597 813.861,-392.448 767,-482 756.598,-501.879 737.448,-517.111 718.817,-528.069"/>
<polygon fill="black" stroke="black" points="717.076,-525.033 710.042,-532.956 720.481,-531.149 717.076,-525.033"/>
<text text-anchor="middle" x="800" y="-371.3" font-family="Times,serif" font-size="14.00">pack</text>
</g>
<!-- OSX_CS&#45;&gt;OSX_CSPROJ -->
<g id="edge12" class="edge"><title>OSX_CS&#45;&gt;OSX_CSPROJ</title>
<path fill="none" stroke="black" stroke-dasharray="5,2" d="M614,-306.201C614,-317.837 614,-333.452 614,-346.763"/>
<polygon fill="black" stroke="black" points="610.5,-346.825 614,-356.825 617.5,-346.825 610.5,-346.825"/>
<text text-anchor="middle" x="638" y="-327.8" font-family="Times,serif" font-size="14.00">Compile</text>
</g>
<!-- OSX_DLL -->
<g id="node11" class="node"><title>OSX_DLL</title>
<polygon fill="darkviolet" stroke="black" points="686.5,-482 469.5,-482 469.5,-478 465.5,-478 465.5,-474 469.5,-474 469.5,-452 465.5,-452 465.5,-448 469.5,-448 469.5,-444 686.5,-444 686.5,-482"/>
<polyline fill="none" stroke="black" points="469.5,-478 473.5,-478 473.5,-474 469.5,-474 "/>
<polyline fill="none" stroke="black" points="469.5,-452 473.5,-452 473.5,-448 469.5,-448 "/>
<text text-anchor="middle" x="578" y="-466.8" font-family="Times,serif" font-size="14.00">Mizux.Foo.dll</text>
<text text-anchor="middle" x="578" y="-451.8" font-family="Times,serif" font-size="14.00">runtimes/osx&#45;x64/lib/netstandard2.0/</text>
</g>
<!-- OSX_CSPROJ&#45;&gt;OSX_DLL -->
<g id="edge14" class="edge"><title>OSX_CSPROJ&#45;&gt;OSX_DLL</title>
<path fill="none" stroke="black" stroke-width="2" d="M606.715,-393.403C601.788,-405.173 595.178,-420.965 589.541,-434.43"/>
<polygon fill="black" stroke="black" stroke-width="2" points="586.28,-433.156 585.647,-443.732 592.737,-435.859 586.28,-433.156"/>
<text text-anchor="middle" x="633" y="-414.8" font-family="Times,serif" font-size="14.00">dotnet build</text>
</g>
<!-- OSX_CSPROJ&#45;&gt;OSX_NUPKG -->
<g id="edge17" class="edge"><title>OSX_CSPROJ&#45;&gt;OSX_NUPKG</title>
<path fill="none" stroke="black" stroke-width="2" d="M648.455,-393.025C666.947,-404.457 687.456,-421.548 695,-444 703.95,-470.635 693.807,-501.98 683.688,-523.641"/>
<polygon fill="black" stroke="black" stroke-width="2" points="680.423,-522.347 679.109,-532.861 686.692,-525.461 680.423,-522.347"/>
<text text-anchor="middle" x="731" y="-459.3" font-family="Times,serif" font-size="14.00">dotnet pack</text>
</g>
<!-- OSX_CSPROJ&#45;&gt;FOO_REF -->
<g id="edge30" class="edge"><title>OSX_CSPROJ&#45;&gt;FOO_REF</title>
<path fill="none" stroke="black" stroke-width="2" d="M531.53,-393.101C504.028,-403.155 476.275,-419.023 460,-444 450.78,-458.15 454.959,-465.881 460,-482 477.076,-536.605 519.587,-588.992 547.323,-619.038"/>
<polygon fill="black" stroke="black" stroke-width="2" points="544.978,-621.653 554.376,-626.543 550.079,-616.859 544.978,-621.653"/>
<text text-anchor="middle" x="507" y="-503.8" font-family="Times,serif" font-size="14.00">dotnet build</text>
</g>
<!-- OSX_DLL&#45;&gt;OSX_NUPKG -->
<g id="edge16" class="edge"><title>OSX_DLL&#45;&gt;OSX_NUPKG</title>
<path fill="none" stroke="black" stroke-dasharray="5,2" d="M597.299,-482.238C610.805,-495.002 628.983,-512.182 643.657,-526.049"/>
<polygon fill="black" stroke="black" points="641.295,-528.633 650.967,-532.958 646.103,-523.545 641.295,-528.633"/>
<text text-anchor="middle" x="645" y="-503.8" font-family="Times,serif" font-size="14.00">pack</text>
</g>
<!-- OSX_NUPKG&#45;&gt;FOO_REF -->
<g id="edge42" class="edge"><title>OSX_NUPKG&#45;&gt;FOO_REF</title>
</g>
<!-- OSX_NUPKG&#45;&gt;FOO_CSPROJ -->
<g id="edge36" class="edge"><title>OSX_NUPKG&#45;&gt;FOO_CSPROJ</title>
<path fill="none" stroke="black" stroke-dasharray="5,2" d="M667.589,-569.028C664.987,-600.426 659.413,-667.687 656.272,-705.584"/>
<polygon fill="black" stroke="black" points="652.756,-705.63 655.418,-715.885 659.732,-706.209 652.756,-705.63"/>
<text text-anchor="middle" x="716" y="-642.3" font-family="Times,serif" font-size="14.00">PackageReference</text>
</g>
<!-- WIN_LIB&#45;&gt;WIN_CS -->
<g id="edge20" class="edge"><title>WIN_LIB&#45;&gt;WIN_CS</title>
<path fill="none" stroke="black" stroke-dasharray="5,2" d="M955.122,-219.238C951.959,-231.066 947.782,-246.684 944.236,-259.945"/>
<polygon fill="black" stroke="black" points="940.76,-259.393 941.558,-269.958 947.523,-261.202 940.76,-259.393"/>
<text text-anchor="middle" x="973" y="-240.8" font-family="Times,serif" font-size="14.00">PInvoke</text>
</g>
<!-- WIN_CSPROJ -->
<g id="node15" class="node"><title>WIN_CSPROJ</title>
<polygon fill="darkviolet" stroke="black" points="1055,-393 891,-393 891,-357 1061,-357 1061,-387 1055,-393"/>
<polyline fill="none" stroke="black" points="1055,-393 1055,-387 "/>
<polyline fill="none" stroke="black" points="1061,-387 1055,-387 "/>
<text text-anchor="middle" x="976" y="-371.3" font-family="Times,serif" font-size="14.00">runtime.win&#45;x64.Foo.csproj</text>
</g>
<!-- WIN_LIB&#45;&gt;WIN_CSPROJ -->
<g id="edge22" class="edge"><title>WIN_LIB&#45;&gt;WIN_CSPROJ</title>
<path fill="none" stroke="black" stroke-dasharray="5,2" d="M983.102,-219.046C989.073,-224.408 995.171,-230.578 1000,-237 1009.8,-250.028 1012.35,-254.114 1016,-270 1022.88,-299.967 1024.87,-311.557 1011,-339 1009.18,-342.607 1006.84,-346.07 1004.25,-349.32"/>
<polygon fill="black" stroke="black" points="1001.49,-347.151 997.395,-356.922 1006.69,-351.837 1001.49,-347.151"/>
<text text-anchor="middle" x="1042.5" y="-284.3" font-family="Times,serif" font-size="14.00">Content</text>
</g>
<!-- WIN_NUPKG -->
<g id="node17" class="node"><title>WIN_NUPKG</title>
<polygon fill="darkviolet" stroke="black" points="1081,-569 1078,-573 1057,-573 1054,-569 871,-569 871,-533 1081,-533 1081,-569"/>
<text text-anchor="middle" x="976" y="-547.3" font-family="Times,serif" font-size="14.00">runtime.win&#45;x64.Mizux.Foo.nupkg</text>
</g>
<!-- WIN_LIB&#45;&gt;WIN_NUPKG -->
<g id="edge24" class="edge"><title>WIN_LIB&#45;&gt;WIN_NUPKG</title>
<path fill="none" stroke="black" stroke-dasharray="5,2" d="M997.454,-219.065C1019.86,-231.204 1047.8,-248.831 1068,-270 1129.57,-334.532 1145,-357.821 1168,-444 1172.36,-460.318 1177.72,-468.188 1168,-482 1149.77,-507.9 1120.8,-524 1090.83,-533.988"/>
<polygon fill="black" stroke="black" points="1089.59,-530.709 1081.08,-537.021 1091.67,-537.394 1089.59,-530.709"/>
<text text-anchor="middle" x="1165" y="-371.3" font-family="Times,serif" font-size="14.00">pack</text>
</g>
<!-- WIN_CS&#45;&gt;WIN_CSPROJ -->
<g id="edge21" class="edge"><title>WIN_CS&#45;&gt;WIN_CSPROJ</title>
<path fill="none" stroke="black" stroke-dasharray="5,2" d="M944.892,-306.201C950.337,-318.068 957.68,-334.072 963.865,-347.551"/>
<polygon fill="black" stroke="black" points="960.768,-349.195 968.12,-356.825 967.13,-346.276 960.768,-349.195"/>
<text text-anchor="middle" x="983" y="-327.8" font-family="Times,serif" font-size="14.00">Compile</text>
</g>
<!-- WIN_DLL -->
<g id="node16" class="node"><title>WIN_DLL</title>
<polygon fill="darkviolet" stroke="black" points="1085,-482 867,-482 867,-478 863,-478 863,-474 867,-474 867,-452 863,-452 863,-448 867,-448 867,-444 1085,-444 1085,-482"/>
<polyline fill="none" stroke="black" points="867,-478 871,-478 871,-474 867,-474 "/>
<polyline fill="none" stroke="black" points="867,-452 871,-452 871,-448 867,-448 "/>
<text text-anchor="middle" x="976" y="-466.8" font-family="Times,serif" font-size="14.00">Mizux.Foo.dll</text>
<text text-anchor="middle" x="976" y="-451.8" font-family="Times,serif" font-size="14.00">runtimes/win&#45;x64/lib/netstandard2.0/</text>
</g>
<!-- WIN_CSPROJ&#45;&gt;WIN_DLL -->
<g id="edge23" class="edge"><title>WIN_CSPROJ&#45;&gt;WIN_DLL</title>
<path fill="none" stroke="black" stroke-width="2" d="M976,-393.403C976,-404.944 976,-420.353 976,-433.643"/>
<polygon fill="black" stroke="black" stroke-width="2" points="972.5,-433.732 976,-443.732 979.5,-433.732 972.5,-433.732"/>
<text text-anchor="middle" x="1009" y="-414.8" font-family="Times,serif" font-size="14.00">dotnet build</text>
</g>
<!-- WIN_CSPROJ&#45;&gt;WIN_NUPKG -->
<g id="edge26" class="edge"><title>WIN_CSPROJ&#45;&gt;WIN_NUPKG</title>
<path fill="none" stroke="black" stroke-width="2" d="M1032.13,-393.124C1056.03,-403.629 1081.29,-419.831 1094,-444 1101.86,-458.947 1102.45,-467.377 1094,-482 1081.84,-503.048 1060.41,-518.157 1039.12,-528.703"/>
<polygon fill="black" stroke="black" stroke-width="2" points="1037.62,-525.545 1030.04,-532.948 1040.58,-531.887 1037.62,-525.545"/>
<text text-anchor="middle" x="1132" y="-459.3" font-family="Times,serif" font-size="14.00">dotnet pack</text>
</g>
<!-- WIN_CSPROJ&#45;&gt;FOO_REF -->
<g id="edge31" class="edge"><title>WIN_CSPROJ&#45;&gt;FOO_REF</title>
<path fill="none" stroke="black" stroke-width="2" d="M928.989,-393.081C904.608,-404.149 876.202,-420.865 858,-444 819.911,-492.412 866.083,-537.278 819,-577 791.127,-600.515 690.562,-584.367 656,-596 638.533,-601.879 620.732,-611.77 606.118,-621.131"/>
<polygon fill="black" stroke="black" stroke-width="2" points="603.875,-618.418 597.462,-626.852 607.734,-624.258 603.875,-618.418"/>
<text text-anchor="middle" x="875" y="-503.8" font-family="Times,serif" font-size="14.00">dotnet build</text>
</g>
<!-- WIN_DLL&#45;&gt;WIN_NUPKG -->
<g id="edge25" class="edge"><title>WIN_DLL&#45;&gt;WIN_NUPKG</title>
<path fill="none" stroke="black" stroke-dasharray="5,2" d="M976,-482.238C976,-494.066 976,-509.684 976,-522.945"/>
<polygon fill="black" stroke="black" points="972.5,-522.958 976,-532.958 979.5,-522.958 972.5,-522.958"/>
<text text-anchor="middle" x="989" y="-503.8" font-family="Times,serif" font-size="14.00">pack</text>
</g>
<!-- WIN_NUPKG&#45;&gt;FOO_REF -->
<g id="edge43" class="edge"><title>WIN_NUPKG&#45;&gt;FOO_REF</title>
</g>
<!-- WIN_NUPKG&#45;&gt;FOO_CSPROJ -->
<g id="edge37" class="edge"><title>WIN_NUPKG&#45;&gt;FOO_CSPROJ</title>
<path fill="none" stroke="black" stroke-dasharray="5,2" d="M945.707,-569.028C887.093,-601.975 758.224,-674.414 693.187,-710.973"/>
<polygon fill="black" stroke="black" points="691.449,-707.934 684.447,-715.885 694.879,-714.036 691.449,-707.934"/>
<text text-anchor="middle" x="948" y="-642.3" font-family="Times,serif" font-size="14.00">PackageReference</text>
</g>
<!-- FOO_REF&#45;&gt;FOO_CSPROJ -->
<g id="edge32" class="edge"><title>FOO_REF&#45;&gt;FOO_CSPROJ</title>
<path fill="none" stroke="black" stroke-dasharray="5,2" d="M585.437,-665.256C592.68,-675.35 602.279,-687.863 612,-698 615.603,-701.757 619.59,-705.511 623.631,-709.09"/>
<polygon fill="black" stroke="black" points="621.505,-711.878 631.381,-715.713 626.053,-706.556 621.505,-711.878"/>
<text text-anchor="middle" x="633.5" y="-686.8" font-family="Times,serif" font-size="14.00">Content</text>
</g>
<!-- FOO_NUPKG -->
<g id="node20" class="node"><title>FOO_NUPKG</title>
<polygon fill="darkviolet" stroke="black" points="702,-839 699,-843 678,-843 675,-839 492,-839 492,-803 702,-803 702,-839"/>
<text text-anchor="middle" x="597" y="-817.3" font-family="Times,serif" font-size="14.00">runtime.win&#45;x64.Mizux.Foo.nupkg</text>
</g>
<!-- FOO_REF&#45;&gt;FOO_NUPKG -->
<g id="edge34" class="edge"><title>FOO_REF&#45;&gt;FOO_NUPKG</title>
<path fill="none" stroke="black" stroke-dasharray="5,2" d="M573.837,-665.296C574.968,-686.315 577.394,-721.795 582,-752 584.079,-765.632 587.283,-780.616 590.197,-793.04"/>
<polygon fill="black" stroke="black" points="586.801,-793.887 592.545,-802.789 593.606,-792.248 586.801,-793.887"/>
<text text-anchor="middle" x="595" y="-730.3" font-family="Times,serif" font-size="14.00">pack</text>
</g>
<!-- FOO_CSPROJ&#45;&gt;FOO_NUPKG -->
<g id="edge33" class="edge"><title>FOO_CSPROJ&#45;&gt;FOO_NUPKG</title>
<path fill="none" stroke="black" stroke-width="2" d="M642.465,-752.201C634.353,-764.298 623.357,-780.695 614.212,-794.333"/>
<polygon fill="black" stroke="black" stroke-width="2" points="611.18,-792.57 608.518,-802.825 616.994,-796.468 611.18,-792.57"/>
<text text-anchor="middle" x="661" y="-773.8" font-family="Times,serif" font-size="14.00">dotnet pack</text>
</g>
</g>
</svg>
