<?xml version="1.0" encoding="UTF-8" standalone="no"?>
<!DOCTYPE svg PUBLIC "-//W3C//DTD SVG 1.1//EN"
 "http://www.w3.org/Graphics/SVG/1.1/DTD/svg11.dtd">
<!-- Generated by graphviz version 2.38.0 (20140413.2041)
 -->
<!-- Title: Make Pages: 1 -->
<svg width="1230pt" height="863pt"
 viewBox="0.00 0.00 1230.00 863.00" xmlns="http://www.w3.org/2000/svg" xmlns:xlink="http://www.w3.org/1999/xlink">
<g id="graph0" class="graph" transform="scale(1 1) rotate(0) translate(4 859)">
<title>Make</title>
<polygon fill="white" stroke="none" points="-4,4 -4,-859 1226,-859 1226,4 -4,4"/>
<g id="clust1" class="cluster"><title>clusterLinux</title>
<polygon fill="none" stroke="crimson" points="8,-278 8,-705 370,-705 370,-278 8,-278"/>
<text text-anchor="middle" x="189" y="-689.8" font-family="Times,serif" font-size="14.00">Linux Host</text>
</g>
<g id="clust2" class="cluster"><title>clusterOsx</title>
<polygon fill="none" stroke="forestgreen" points="462,-278 462,-705 816,-705 816,-278 462,-278"/>
<text text-anchor="middle" x="639" y="-689.8" font-family="Times,serif" font-size="14.00">macOS Host</text>
</g>
<g id="clust3" class="cluster"><title>clusterWin</title>
<polygon fill="none" stroke="dodgerblue" points="860,-278 860,-705 1214,-705 1214,-278 860,-278"/>
<text text-anchor="middle" x="1037" y="-689.8" font-family="Times,serif" font-size="14.00">Windows Host</text>
</g>
<g id="clust4" class="cluster"><title>clusterAny</title>
<polygon fill="none" stroke="dimgrey" points="422,-8 422,-259 662,-259 662,-8 422,-8"/>
<text text-anchor="middle" x="542" y="-243.8" font-family="Times,serif" font-size="14.00">Any Previous Host</text>
</g>
<!-- CPP -->
<g id="node1" class="node"><title>CPP</title>
<polygon fill="royalblue" stroke="black" points="894,-855 774,-855 774,-819 900,-819 900,-849 894,-855"/>
<polyline fill="none" stroke="black" points="894,-855 894,-849 "/>
<polyline fill="none" stroke="black" points="900,-849 894,-849 "/>
<text text-anchor="middle" x="837" y="-833.3" font-family="Times,serif" font-size="14.00">Native.h/Native.cpp</text>
</g>
<!-- SWIG -->
<g id="node2" class="node"><title>SWIG</title>
<polygon fill="white" stroke="black" points="765,-768 689,-768 689,-732 771,-732 771,-762 765,-768"/>
<polyline fill="none" stroke="black" points="765,-768 765,-762 "/>
<polyline fill="none" stroke="black" points="771,-762 765,-762 "/>
<text text-anchor="middle" x="730" y="-746.3" font-family="Times,serif" font-size="14.00">Native.swig</text>
</g>
<!-- CPP&#45;&gt;SWIG -->
<g id="edge1" class="edge"><title>CPP&#45;&gt;SWIG</title>
<path fill="none" stroke="black" stroke-dasharray="5,2" d="M815.347,-818.799C799.393,-806.126 777.5,-788.734 759.882,-774.738"/>
<polygon fill="black" stroke="black" points="761.628,-771.655 751.621,-768.175 757.274,-777.136 761.628,-771.655"/>
<text text-anchor="middle" x="810" y="-789.8" font-family="Times,serif" font-size="14.00">include</text>
</g>
<!-- LINUX_LIB -->
<g id="node3" class="node"><title>LINUX_LIB</title>
<polygon fill="royalblue" stroke="black" points="361.5,-674 200.5,-674 200.5,-670 196.5,-670 196.5,-666 200.5,-666 200.5,-644 196.5,-644 196.5,-640 200.5,-640 200.5,-636 361.5,-636 361.5,-674"/>
<polyline fill="none" stroke="black" points="200.5,-670 204.5,-670 204.5,-666 200.5,-666 "/>
<polyline fill="none" stroke="black" points="200.5,-644 204.5,-644 204.5,-640 200.5,-640 "/>
<text text-anchor="middle" x="281" y="-658.8" font-family="Times,serif" font-size="14.00">Native.so</text>
<text text-anchor="middle" x="281" y="-643.8" font-family="Times,serif" font-size="14.00">runtimes/linux&#45;x64/native/</text>
</g>
<!-- CPP&#45;&gt;LINUX_LIB -->
<g id="edge10" class="edge"><title>CPP&#45;&gt;LINUX_LIB</title>
<path fill="none" stroke="black" stroke-width="2" d="M773.875,-819.249C687.945,-796.294 529.45,-753.407 395,-714 382.05,-710.204 378.366,-710.403 366,-705 349.584,-697.828 332.31,-688.278 317.654,-679.515"/>
<polygon fill="black" stroke="black" stroke-width="2" points="319.26,-676.396 308.898,-674.189 315.622,-682.376 319.26,-676.396"/>
<text text-anchor="middle" x="596" y="-746.3" font-family="Times,serif" font-size="14.00">g++</text>
</g>
<!-- OSX_LIB -->
<g id="node8" class="node"><title>OSX_LIB</title>
<polygon fill="royalblue" stroke="black" points="806,-674 654,-674 654,-670 650,-670 650,-666 654,-666 654,-644 650,-644 650,-640 654,-640 654,-636 806,-636 806,-674"/>
<polyline fill="none" stroke="black" points="654,-670 658,-670 658,-666 654,-666 "/>
<polyline fill="none" stroke="black" points="654,-644 658,-644 658,-640 654,-640 "/>
<text text-anchor="middle" x="730" y="-658.8" font-family="Times,serif" font-size="14.00">Native.dylib</text>
<text text-anchor="middle" x="730" y="-643.8" font-family="Times,serif" font-size="14.00">runtimes/osx&#45;x64/native/</text>
</g>
<!-- CPP&#45;&gt;OSX_LIB -->
<g id="edge19" class="edge"><title>CPP&#45;&gt;OSX_LIB</title>
<path fill="none" stroke="black" stroke-width="2" d="M838.498,-818.791C838.747,-808.889 837.997,-796.389 834,-786 817.914,-744.197 783.193,-705.367 758.293,-681.229"/>
<polygon fill="black" stroke="black" stroke-width="2" points="760.574,-678.569 750.912,-674.222 755.755,-683.646 760.574,-678.569"/>
<text text-anchor="middle" x="841" y="-746.3" font-family="Times,serif" font-size="14.00">clang</text>
</g>
<!-- WIN_LIB -->
<g id="node13" class="node"><title>WIN_LIB</title>
<polygon fill="royalblue" stroke="black" points="1040,-674 886,-674 886,-670 882,-670 882,-666 886,-666 886,-644 882,-644 882,-640 886,-640 886,-636 1040,-636 1040,-674"/>
<polyline fill="none" stroke="black" points="886,-670 890,-670 890,-666 886,-666 "/>
<polyline fill="none" stroke="black" points="886,-644 890,-644 890,-640 886,-640 "/>
<text text-anchor="middle" x="963" y="-658.8" font-family="Times,serif" font-size="14.00">Native.dll</text>
<text text-anchor="middle" x="963" y="-643.8" font-family="Times,serif" font-size="14.00">runtimes/win&#45;x64/native/</text>
</g>
<!-- CPP&#45;&gt;WIN_LIB -->
<g id="edge28" class="edge"><title>CPP&#45;&gt;WIN_LIB</title>
<path fill="none" stroke="black" stroke-width="2" d="M849.081,-818.741C871.207,-787.133 918.358,-719.775 944.53,-682.386"/>
<polygon fill="black" stroke="black" stroke-width="2" points="947.529,-684.205 950.396,-674.005 941.794,-680.191 947.529,-684.205"/>
<text text-anchor="middle" x="918.5" y="-746.3" font-family="Times,serif" font-size="14.00">vcs</text>
</g>
<!-- SWIG&#45;&gt;LINUX_LIB -->
<g id="edge40" class="edge"><title>SWIG&#45;&gt;LINUX_LIB</title>
</g>
<!-- LINUX_CS -->
<g id="node4" class="node"><title>LINUX_CS</title>
<polygon fill="darkviolet" stroke="black" points="356,-585 214,-585 214,-549 362,-549 362,-579 356,-585"/>
<polyline fill="none" stroke="black" points="356,-585 356,-579 "/>
<polyline fill="none" stroke="black" points="362,-579 356,-579 "/>
<text text-anchor="middle" x="288" y="-563.3" font-family="Times,serif" font-size="14.00">NativeLinuxWrapper.cs</text>
</g>
<!-- SWIG&#45;&gt;LINUX_CS -->
<g id="edge9" class="edge"><title>SWIG&#45;&gt;LINUX_CS</title>
<path fill="none" stroke="black" stroke-width="2" d="M688.959,-746.38C617.97,-741.286 475.658,-728.438 432,-705 395.675,-685.499 398.587,-665.708 370,-636 355.399,-620.826 352.103,-616.57 336,-603 331.352,-599.083 326.3,-595.114 321.276,-591.326"/>
<polygon fill="black" stroke="black" stroke-width="2" points="323.049,-588.284 312.925,-585.16 318.891,-593.915 323.049,-588.284"/>
<text text-anchor="middle" x="445" y="-651.3" font-family="Times,serif" font-size="14.00">swig</text>
</g>
<!-- SWIG&#45;&gt;OSX_LIB -->
<g id="edge41" class="edge"><title>SWIG&#45;&gt;OSX_LIB</title>
</g>
<!-- OSX_CS -->
<g id="node9" class="node"><title>OSX_CS</title>
<polygon fill="darkviolet" stroke="black" points="674.5,-585 543.5,-585 543.5,-549 680.5,-549 680.5,-579 674.5,-585"/>
<polyline fill="none" stroke="black" points="674.5,-585 674.5,-579 "/>
<polyline fill="none" stroke="black" points="680.5,-579 674.5,-579 "/>
<text text-anchor="middle" x="612" y="-563.3" font-family="Times,serif" font-size="14.00">NativeOsxWrapper.cs</text>
</g>
<!-- SWIG&#45;&gt;OSX_CS -->
<g id="edge18" class="edge"><title>SWIG&#45;&gt;OSX_CS</title>
<path fill="none" stroke="black" stroke-width="2" d="M688.879,-743.804C664.402,-738.404 635.069,-727.403 619,-705 596.005,-672.942 599.839,-625.007 605.409,-595.166"/>
<polygon fill="black" stroke="black" stroke-width="2" points="608.902,-595.555 607.493,-585.054 602.046,-594.142 608.902,-595.555"/>
<text text-anchor="middle" x="632" y="-651.3" font-family="Times,serif" font-size="14.00">swig</text>
</g>
<!-- SWIG&#45;&gt;WIN_LIB -->
<g id="edge42" class="edge"><title>SWIG&#45;&gt;WIN_LIB</title>
</g>
<!-- WIN_CS -->
<g id="node14" class="node"><title>WIN_CS</title>
<polygon fill="darkviolet" stroke="black" points="1002,-585 868,-585 868,-549 1008,-549 1008,-579 1002,-585"/>
<polyline fill="none" stroke="black" points="1002,-585 1002,-579 "/>
<polyline fill="none" stroke="black" points="1008,-579 1002,-579 "/>
<text text-anchor="middle" x="938" y="-563.3" font-family="Times,serif" font-size="14.00">NativeWinWrapper.cs</text>
</g>
<!-- SWIG&#45;&gt;WIN_CS -->
<g id="edge27" class="edge"><title>SWIG&#45;&gt;WIN_CS</title>
<path fill="none" stroke="black" stroke-width="2" d="M771.445,-735.803C788.205,-728.803 806.693,-718.746 820,-705 843.384,-680.845 830.26,-662.46 851,-636 864.797,-618.398 884.087,-602.717 900.998,-590.861"/>
<polygon fill="black" stroke="black" stroke-width="2" points="903.284,-593.54 909.583,-585.021 899.347,-587.752 903.284,-593.54"/>
<text text-anchor="middle" x="864" y="-651.3" font-family="Times,serif" font-size="14.00">swig</text>
</g>
<!-- LINUX_LIB&#45;&gt;LINUX_CS -->
<g id="edge2" class="edge"><title>LINUX_LIB&#45;&gt;LINUX_CS</title>
<path fill="none" stroke="black" stroke-dasharray="5,2" d="M282.485,-635.762C283.447,-623.934 284.718,-608.316 285.798,-595.055"/>
<polygon fill="black" stroke="black" points="289.29,-595.293 286.613,-585.042 282.313,-594.725 289.29,-595.293"/>
<text text-anchor="middle" x="309" y="-606.8" font-family="Times,serif" font-size="14.00">PInvoke</text>
</g>
<!-- LINUX_CSPROJ -->
<g id="node5" class="node"><title>LINUX_CSPROJ</title>
<polygon fill="darkviolet" stroke="black" points="294.5,-498 123.5,-498 123.5,-462 300.5,-462 300.5,-492 294.5,-498"/>
<polyline fill="none" stroke="black" points="294.5,-498 294.5,-492 "/>
<polyline fill="none" stroke="black" points="300.5,-492 294.5,-492 "/>
<text text-anchor="middle" x="212" y="-476.3" font-family="Times,serif" font-size="14.00">runtime.linux&#45;x64.Foo.csproj</text>
</g>
<!-- LINUX_LIB&#45;&gt;LINUX_CSPROJ -->
<g id="edge4" class="edge"><title>LINUX_LIB&#45;&gt;LINUX_CSPROJ</title>
<path fill="none" stroke="black" stroke-dasharray="5,2" d="M208.462,-635.873C183.642,-625.525 159.093,-609.525 147,-585 132.787,-556.176 157.93,-525.188 180.961,-504.608"/>
<polygon fill="black" stroke="black" points="183.308,-507.206 188.63,-498.046 178.757,-501.887 183.308,-507.206"/>
<text text-anchor="middle" x="168.5" y="-563.3" font-family="Times,serif" font-size="14.00">Content</text>
</g>
<!-- LINUX_NUPKG -->
<g id="node7" class="node"><title>LINUX_NUPKG</title>
<polygon fill="darkviolet" stroke="black" points="360,-322 357,-326 336,-326 333,-322 142,-322 142,-286 360,-286 360,-322"/>
<text text-anchor="middle" x="251" y="-300.3" font-family="Times,serif" font-size="14.00">runtime.linux&#45;x64.Mizux.Foo.nupkg</text>
</g>
<!-- LINUX_LIB&#45;&gt;LINUX_NUPKG -->
<g id="edge6" class="edge"><title>LINUX_LIB&#45;&gt;LINUX_NUPKG</title>
<path fill="none" stroke="black" stroke-dasharray="5,2" d="M251.096,-635.981C234.131,-623.915 214.452,-606.347 205,-585 198.522,-570.37 198.458,-563.601 205,-549 214.01,-528.891 222.614,-526.475 242,-516 269.127,-501.342 285.254,-517.668 309,-498 354.136,-460.615 378.417,-424.799 351,-373 340.444,-353.057 321.125,-337.873 302.262,-326.968"/>
<polygon fill="black" stroke="black" points="303.824,-323.833 293.371,-322.107 300.466,-329.975 303.824,-323.833"/>
<text text-anchor="middle" x="358" y="-476.3" font-family="Times,serif" font-size="14.00">pack</text>
</g>
<!-- LINUX_CS&#45;&gt;LINUX_CSPROJ -->
<g id="edge3" class="edge"><title>LINUX_CS&#45;&gt;LINUX_CSPROJ</title>
<path fill="none" stroke="black" stroke-dasharray="5,2" d="M272.62,-548.799C261.598,-536.471 246.583,-519.679 234.255,-505.89"/>
<polygon fill="black" stroke="black" points="236.631,-503.297 227.357,-498.175 231.413,-507.963 236.631,-503.297"/>
<text text-anchor="middle" x="279" y="-519.8" font-family="Times,serif" font-size="14.00">Compile</text>
</g>
<!-- LINUX_DLL -->
<g id="node6" class="node"><title>LINUX_DLL</title>
<polygon fill="darkviolet" stroke="black" points="342,-411 116,-411 116,-407 112,-407 112,-403 116,-403 116,-381 112,-381 112,-377 116,-377 116,-373 342,-373 342,-411"/>
<polyline fill="none" stroke="black" points="116,-407 120,-407 120,-403 116,-403 "/>
<polyline fill="none" stroke="black" points="116,-381 120,-381 120,-377 116,-377 "/>
<text text-anchor="middle" x="229" y="-395.8" font-family="Times,serif" font-size="14.00">Mizux.Foo.dll</text>
<text text-anchor="middle" x="229" y="-380.8" font-family="Times,serif" font-size="14.00">runtimes/linux&#45;x64/lib/netstandard2.0/</text>
</g>
<!-- LINUX_CSPROJ&#45;&gt;LINUX_DLL -->
<g id="edge5" class="edge"><title>LINUX_CSPROJ&#45;&gt;LINUX_DLL</title>
<path fill="none" stroke="black" stroke-width="2" d="M215.44,-461.597C217.722,-450.056 220.767,-434.647 223.394,-421.357"/>
<polygon fill="black" stroke="black" stroke-width="2" points="226.883,-421.757 225.389,-411.268 220.016,-420.399 226.883,-421.757"/>
<text text-anchor="middle" x="255" y="-432.8" font-family="Times,serif" font-size="14.00">dotnet build</text>
</g>
<!-- LINUX_CSPROJ&#45;&gt;LINUX_NUPKG -->
<g id="edge8" class="edge"><title>LINUX_CSPROJ&#45;&gt;LINUX_NUPKG</title>
<path fill="none" stroke="black" stroke-width="2" d="M136.26,-461.998C77.9002,-445.189 11.9937,-415.758 43,-373 64.0491,-343.973 97.8476,-327.106 132.134,-317.379"/>
<polygon fill="black" stroke="black" stroke-width="2" points="133.035,-320.761 141.808,-314.821 131.245,-313.994 133.035,-320.761"/>
<text text-anchor="middle" x="75" y="-388.3" font-family="Times,serif" font-size="14.00">dotnet pack</text>
</g>
<!-- FOO_REF -->
<g id="node18" class="node"><title>FOO_REF</title>
<polygon fill="darkviolet" stroke="black" points="549.5,-228 430.5,-228 430.5,-224 426.5,-224 426.5,-220 430.5,-220 430.5,-198 426.5,-198 426.5,-194 430.5,-194 430.5,-190 549.5,-190 549.5,-228"/>
<polyline fill="none" stroke="black" points="430.5,-224 434.5,-224 434.5,-220 430.5,-220 "/>
<polyline fill="none" stroke="black" points="430.5,-198 434.5,-198 434.5,-194 430.5,-194 "/>
<text text-anchor="middle" x="490" y="-212.8" font-family="Times,serif" font-size="14.00">Mizux.Foo.dll</text>
<text text-anchor="middle" x="490" y="-197.8" font-family="Times,serif" font-size="14.00">ref/netstandard2.0/</text>
</g>
<!-- LINUX_CSPROJ&#45;&gt;FOO_REF -->
<g id="edge29" class="edge"><title>LINUX_CSPROJ&#45;&gt;FOO_REF</title>
<path fill="none" stroke="black" stroke-width="2" d="M268.069,-461.911C295.936,-451.058 328.394,-434.546 351,-411 375.503,-385.479 367.918,-369.793 387,-340 411.524,-301.71 444.983,-261.194 467.024,-235.767"/>
<polygon fill="black" stroke="black" stroke-width="2" points="469.81,-237.898 473.753,-228.064 464.538,-233.292 469.81,-237.898"/>
<text text-anchor="middle" x="420" y="-343.8" font-family="Times,serif" font-size="14.00">dotnet build</text>
</g>
<!-- LINUX_DLL&#45;&gt;LINUX_NUPKG -->
<g id="edge7" class="edge"><title>LINUX_DLL&#45;&gt;LINUX_NUPKG</title>
<path fill="none" stroke="black" stroke-dasharray="5,2" d="M233.666,-372.762C236.691,-360.934 240.687,-345.316 244.079,-332.055"/>
<polygon fill="black" stroke="black" points="247.553,-332.598 246.64,-322.042 240.771,-330.863 247.553,-332.598"/>
<text text-anchor="middle" x="255" y="-343.8" font-family="Times,serif" font-size="14.00">pack</text>
</g>
<!-- LINUX_NUPKG&#45;&gt;FOO_REF -->
<g id="edge43" class="edge"><title>LINUX_NUPKG&#45;&gt;FOO_REF</title>
</g>
<!-- FOO_CSPROJ -->
<g id="node20" class="node"><title>FOO_CSPROJ</title>
<polygon fill="darkviolet" stroke="black" points="648,-139 580,-139 580,-103 654,-103 654,-133 648,-139"/>
<polyline fill="none" stroke="black" points="648,-139 648,-133 "/>
<polyline fill="none" stroke="black" points="654,-133 648,-133 "/>
<text text-anchor="middle" x="617" y="-117.3" font-family="Times,serif" font-size="14.00">Foo.csproj</text>
</g>
<!-- LINUX_NUPKG&#45;&gt;FOO_CSPROJ -->
<g id="edge37" class="edge"><title>LINUX_NUPKG&#45;&gt;FOO_CSPROJ</title>
<path fill="none" stroke="black" stroke-dasharray="5,2" d="M256.671,-285.723C265.907,-260.452 286.696,-213.832 321,-190 412.792,-126.231 461.793,-169.376 569.642,-140.38"/>
<polygon fill="black" stroke="black" points="570.912,-143.658 579.571,-137.553 568.995,-136.925 570.912,-143.658"/>
<text text-anchor="middle" x="371" y="-205.3" font-family="Times,serif" font-size="14.00">PackageReference</text>
</g>
<!-- OSX_LIB&#45;&gt;OSX_CS -->
<g id="edge11" class="edge"><title>OSX_LIB&#45;&gt;OSX_CS</title>
<path fill="none" stroke="black" stroke-dasharray="5,2" d="M695.146,-635.885C685.749,-630.522 675.764,-624.369 667,-618 656.398,-610.295 645.552,-600.833 636.323,-592.222"/>
<polygon fill="black" stroke="black" points="638.65,-589.605 628.993,-585.246 633.824,-594.676 638.65,-589.605"/>
<text text-anchor="middle" x="690" y="-606.8" font-family="Times,serif" font-size="14.00">PInvoke</text>
</g>
<!-- OSX_CSPROJ -->
<g id="node10" class="node"><title>OSX_CSPROJ</title>
<polygon fill="darkviolet" stroke="black" points="690,-498 528,-498 528,-462 696,-462 696,-492 690,-498"/>
<polyline fill="none" stroke="black" points="690,-498 690,-492 "/>
<polyline fill="none" stroke="black" points="696,-492 690,-492 "/>
<text text-anchor="middle" x="612" y="-476.3" font-family="Times,serif" font-size="14.00">runtime.osx&#45;x64.Foo.csproj</text>
</g>
<!-- OSX_LIB&#45;&gt;OSX_CSPROJ -->
<g id="edge13" class="edge"><title>OSX_LIB&#45;&gt;OSX_CSPROJ</title>
<path fill="none" stroke="black" stroke-dasharray="5,2" d="M725.824,-635.833C718.269,-606.792 699.698,-549.756 664,-516 659.593,-511.833 654.64,-507.821 649.588,-504.095"/>
<polygon fill="black" stroke="black" points="651.267,-500.997 641.071,-498.116 647.245,-506.726 651.267,-500.997"/>
<text text-anchor="middle" x="730.5" y="-563.3" font-family="Times,serif" font-size="14.00">Content</text>
</g>
<!-- OSX_NUPKG -->
<g id="node12" class="node"><title>OSX_NUPKG</title>
<polygon fill="darkviolet" stroke="black" points="794.5,-322 791.5,-326 770.5,-326 767.5,-322 585.5,-322 585.5,-286 794.5,-286 794.5,-322"/>
<text text-anchor="middle" x="690" y="-300.3" font-family="Times,serif" font-size="14.00">runtime.osx&#45;x64.Mizux.Foo.nupkg</text>
</g>
<!-- OSX_LIB&#45;&gt;OSX_NUPKG -->
<g id="edge15" class="edge"><title>OSX_LIB&#45;&gt;OSX_NUPKG</title>
<path fill="none" stroke="black" stroke-dasharray="5,2" d="M739.178,-635.903C761.244,-589.723 812.4,-464.688 770,-373 761.479,-354.573 745.23,-339.309 729.59,-327.943"/>
<polygon fill="black" stroke="black" points="731.237,-324.828 721.017,-322.035 727.265,-330.592 731.237,-324.828"/>
<text text-anchor="middle" x="800" y="-476.3" font-family="Times,serif" font-size="14.00">pack</text>
</g>
<!-- OSX_CS&#45;&gt;OSX_CSPROJ -->
<g id="edge12" class="edge"><title>OSX_CS&#45;&gt;OSX_CSPROJ</title>
<path fill="none" stroke="black" stroke-dasharray="5,2" d="M612,-548.799C612,-537.163 612,-521.548 612,-508.237"/>
<polygon fill="black" stroke="black" points="615.5,-508.175 612,-498.175 608.5,-508.175 615.5,-508.175"/>
<text text-anchor="middle" x="636" y="-519.8" font-family="Times,serif" font-size="14.00">Compile</text>
</g>
<!-- OSX_DLL -->
<g id="node11" class="node"><title>OSX_DLL</title>
<polygon fill="darkviolet" stroke="black" points="687.5,-411 470.5,-411 470.5,-407 466.5,-407 466.5,-403 470.5,-403 470.5,-381 466.5,-381 466.5,-377 470.5,-377 470.5,-373 687.5,-373 687.5,-411"/>
<polyline fill="none" stroke="black" points="470.5,-407 474.5,-407 474.5,-403 470.5,-403 "/>
<polyline fill="none" stroke="black" points="470.5,-381 474.5,-381 474.5,-377 470.5,-377 "/>
<text text-anchor="middle" x="579" y="-395.8" font-family="Times,serif" font-size="14.00">Mizux.Foo.dll</text>
<text text-anchor="middle" x="579" y="-380.8" font-family="Times,serif" font-size="14.00">runtimes/osx&#45;x64/lib/netstandard2.0/</text>
</g>
<!-- OSX_CSPROJ&#45;&gt;OSX_DLL -->
<g id="edge14" class="edge"><title>OSX_CSPROJ&#45;&gt;OSX_DLL</title>
<path fill="none" stroke="black" stroke-width="2" d="M605.322,-461.597C600.85,-449.941 594.864,-434.341 589.73,-420.963"/>
<polygon fill="black" stroke="black" stroke-width="2" points="592.86,-419.35 586.01,-411.268 586.325,-421.858 592.86,-419.35"/>
<text text-anchor="middle" x="632" y="-432.8" font-family="Times,serif" font-size="14.00">dotnet build</text>
</g>
<!-- OSX_CSPROJ&#45;&gt;OSX_NUPKG -->
<g id="edge17" class="edge"><title>OSX_CSPROJ&#45;&gt;OSX_NUPKG</title>
<path fill="none" stroke="black" stroke-width="2" d="M647.944,-461.964C666.926,-450.619 687.926,-433.619 696,-411 705.159,-385.341 701.741,-353.974 697.217,-332.045"/>
<polygon fill="black" stroke="black" stroke-width="2" points="700.586,-331.079 694.957,-322.104 693.761,-332.631 700.586,-331.079"/>
<text text-anchor="middle" x="734" y="-388.3" font-family="Times,serif" font-size="14.00">dotnet pack</text>
</g>
<!-- OSX_CSPROJ&#45;&gt;FOO_REF -->
<g id="edge30" class="edge"><title>OSX_CSPROJ&#45;&gt;FOO_REF</title>
<path fill="none" stroke="black" stroke-width="2" d="M532.285,-461.962C504.928,-451.889 477.154,-435.991 461,-411 442.857,-382.931 467.492,-286.196 481.495,-237.896"/>
<polygon fill="black" stroke="black" stroke-width="2" points="484.914,-238.673 484.384,-228.092 478.2,-236.694 484.914,-238.673"/>
<text text-anchor="middle" x="491" y="-343.8" font-family="Times,serif" font-size="14.00">dotnet build</text>
</g>
<!-- OSX_DLL&#45;&gt;OSX_NUPKG -->
<g id="edge16" class="edge"><title>OSX_DLL&#45;&gt;OSX_NUPKG</title>
<path fill="none" stroke="black" stroke-dasharray="5,2" d="M602.269,-372.972C619.028,-359.987 641.788,-342.354 659.926,-328.301"/>
<polygon fill="black" stroke="black" points="662.134,-331.017 667.896,-322.126 657.847,-325.484 662.134,-331.017"/>
<text text-anchor="middle" x="658" y="-343.8" font-family="Times,serif" font-size="14.00">pack</text>
</g>
<!-- OSX_NUPKG&#45;&gt;FOO_REF -->
<g id="edge44" class="edge"><title>OSX_NUPKG&#45;&gt;FOO_REF</title>
</g>
<!-- OSX_NUPKG&#45;&gt;FOO_CSPROJ -->
<g id="edge38" class="edge"><title>OSX_NUPKG&#45;&gt;FOO_CSPROJ</title>
<path fill="none" stroke="black" stroke-dasharray="5,2" d="M690.489,-285.868C690.531,-257.089 687.211,-198.155 662,-157 659.609,-153.097 656.613,-149.461 653.309,-146.124"/>
<polygon fill="black" stroke="black" points="655.483,-143.373 645.698,-139.309 650.812,-148.587 655.483,-143.373"/>
<text text-anchor="middle" x="740" y="-205.3" font-family="Times,serif" font-size="14.00">PackageReference</text>
</g>
<!-- WIN_LIB&#45;&gt;WIN_CS -->
<g id="edge20" class="edge"><title>WIN_LIB&#45;&gt;WIN_CS</title>
<path fill="none" stroke="black" stroke-dasharray="5,2" d="M957.698,-635.762C954.226,-623.817 949.63,-608.006 945.75,-594.661"/>
<polygon fill="black" stroke="black" points="949.107,-593.668 942.954,-585.042 942.385,-595.622 949.107,-593.668"/>
<text text-anchor="middle" x="975" y="-606.8" font-family="Times,serif" font-size="14.00">PInvoke</text>
</g>
<!-- WIN_CSPROJ -->
<g id="node15" class="node"><title>WIN_CSPROJ</title>
<polygon fill="darkviolet" stroke="black" points="1056,-498 892,-498 892,-462 1062,-462 1062,-492 1056,-498"/>
<polyline fill="none" stroke="black" points="1056,-498 1056,-492 "/>
<polyline fill="none" stroke="black" points="1062,-492 1056,-492 "/>
<text text-anchor="middle" x="977" y="-476.3" font-family="Times,serif" font-size="14.00">runtime.win&#45;x64.Foo.csproj</text>
</g>
<!-- WIN_LIB&#45;&gt;WIN_CSPROJ -->
<g id="edge22" class="edge"><title>WIN_LIB&#45;&gt;WIN_CSPROJ</title>
<path fill="none" stroke="black" stroke-dasharray="5,2" d="M985.611,-635.954C991.432,-630.592 997.357,-624.422 1002,-618 1011.44,-604.944 1013.59,-600.746 1017,-585 1023.51,-554.95 1025.87,-543.443 1012,-516 1010.18,-512.393 1007.84,-508.93 1005.25,-505.68"/>
<polygon fill="black" stroke="black" points="1007.69,-503.163 998.395,-498.078 1002.49,-507.849 1007.69,-503.163"/>
<text text-anchor="middle" x="1043.5" y="-563.3" font-family="Times,serif" font-size="14.00">Content</text>
</g>
<!-- WIN_NUPKG -->
<g id="node17" class="node"><title>WIN_NUPKG</title>
<polygon fill="darkviolet" stroke="black" points="1082,-322 1079,-326 1058,-326 1055,-322 872,-322 872,-286 1082,-286 1082,-322"/>
<text text-anchor="middle" x="977" y="-300.3" font-family="Times,serif" font-size="14.00">runtime.win&#45;x64.Mizux.Foo.nupkg</text>
</g>
<!-- WIN_LIB&#45;&gt;WIN_NUPKG -->
<g id="edge24" class="edge"><title>WIN_LIB&#45;&gt;WIN_NUPKG</title>
<path fill="none" stroke="black" stroke-dasharray="5,2" d="M999.496,-635.937C1021.52,-623.742 1049.08,-606.055 1069,-585 1130.3,-520.206 1146,-497.179 1169,-411 1173.36,-394.682 1178.72,-386.812 1169,-373 1150.77,-347.1 1121.8,-331 1091.83,-321.012"/>
<polygon fill="black" stroke="black" points="1092.67,-317.606 1082.08,-317.979 1090.59,-324.291 1092.67,-317.606"/>
<text text-anchor="middle" x="1166" y="-476.3" font-family="Times,serif" font-size="14.00">pack</text>
</g>
<!-- WIN_CS&#45;&gt;WIN_CSPROJ -->
<g id="edge21" class="edge"><title>WIN_CS&#45;&gt;WIN_CSPROJ</title>
<path fill="none" stroke="black" stroke-dasharray="5,2" d="M945.892,-548.799C951.337,-536.932 958.68,-520.928 964.865,-507.449"/>
<polygon fill="black" stroke="black" points="968.13,-508.724 969.12,-498.175 961.768,-505.805 968.13,-508.724"/>
<text text-anchor="middle" x="984" y="-519.8" font-family="Times,serif" font-size="14.00">Compile</text>
</g>
<!-- WIN_DLL -->
<g id="node16" class="node"><title>WIN_DLL</title>
<polygon fill="darkviolet" stroke="black" points="1086,-411 868,-411 868,-407 864,-407 864,-403 868,-403 868,-381 864,-381 864,-377 868,-377 868,-373 1086,-373 1086,-411"/>
<polyline fill="none" stroke="black" points="868,-407 872,-407 872,-403 868,-403 "/>
<polyline fill="none" stroke="black" points="868,-381 872,-381 872,-377 868,-377 "/>
<text text-anchor="middle" x="977" y="-395.8" font-family="Times,serif" font-size="14.00">Mizux.Foo.dll</text>
<text text-anchor="middle" x="977" y="-380.8" font-family="Times,serif" font-size="14.00">runtimes/win&#45;x64/lib/netstandard2.0/</text>
</g>
<!-- WIN_CSPROJ&#45;&gt;WIN_DLL -->
<g id="edge23" class="edge"><title>WIN_CSPROJ&#45;&gt;WIN_DLL</title>
<path fill="none" stroke="black" stroke-width="2" d="M977,-461.597C977,-450.056 977,-434.647 977,-421.357"/>
<polygon fill="black" stroke="black" stroke-width="2" points="980.5,-421.268 977,-411.268 973.5,-421.268 980.5,-421.268"/>
<text text-anchor="middle" x="1010" y="-432.8" font-family="Times,serif" font-size="14.00">dotnet build</text>
</g>
<!-- WIN_CSPROJ&#45;&gt;WIN_NUPKG -->
<g id="edge26" class="edge"><title>WIN_CSPROJ&#45;&gt;WIN_NUPKG</title>
<path fill="none" stroke="black" stroke-width="2" d="M1033.13,-461.876C1057.03,-451.371 1082.29,-435.169 1095,-411 1102.86,-396.053 1103.45,-387.623 1095,-373 1082.84,-351.952 1061.41,-336.843 1040.12,-326.297"/>
<polygon fill="black" stroke="black" stroke-width="2" points="1041.58,-323.113 1031.04,-322.052 1038.62,-329.455 1041.58,-323.113"/>
<text text-anchor="middle" x="1133" y="-388.3" font-family="Times,serif" font-size="14.00">dotnet pack</text>
</g>
<!-- WIN_CSPROJ&#45;&gt;FOO_REF -->
<g id="edge31" class="edge"><title>WIN_CSPROJ&#45;&gt;FOO_REF</title>
<path fill="none" stroke="black" stroke-width="2" d="M929.989,-461.919C905.608,-450.851 877.202,-434.135 859,-411 820.911,-362.588 867.933,-316.691 820,-278 774.749,-241.474 613.725,-278.672 559,-259 543.947,-253.589 529.217,-243.917 517.259,-234.588"/>
<polygon fill="black" stroke="black" stroke-width="2" points="519.42,-231.834 509.453,-228.241 515.003,-237.265 519.42,-231.834"/>
<text text-anchor="middle" x="877" y="-343.8" font-family="Times,serif" font-size="14.00">dotnet build</text>
</g>
<!-- WIN_DLL&#45;&gt;WIN_NUPKG -->
<g id="edge25" class="edge"><title>WIN_DLL&#45;&gt;WIN_NUPKG</title>
<path fill="none" stroke="black" stroke-dasharray="5,2" d="M977,-372.762C977,-360.934 977,-345.316 977,-332.055"/>
<polygon fill="black" stroke="black" points="980.5,-332.042 977,-322.042 973.5,-332.042 980.5,-332.042"/>
<text text-anchor="middle" x="990" y="-343.8" font-family="Times,serif" font-size="14.00">pack</text>
</g>
<!-- WIN_NUPKG&#45;&gt;FOO_REF -->
<g id="edge45" class="edge"><title>WIN_NUPKG&#45;&gt;FOO_REF</title>
</g>
<!-- WIN_NUPKG&#45;&gt;FOO_CSPROJ -->
<g id="edge39" class="edge"><title>WIN_NUPKG&#45;&gt;FOO_CSPROJ</title>
<path fill="none" stroke="black" stroke-dasharray="5,2" d="M952.684,-285.94C918.399,-262.369 853.389,-219.423 794,-190 751.265,-168.828 700.21,-149.84 663.94,-137.346"/>
<polygon fill="black" stroke="black" points="664.716,-133.913 654.122,-133.998 662.457,-140.538 664.716,-133.913"/>
<text text-anchor="middle" x="962" y="-205.3" font-family="Times,serif" font-size="14.00">PackageReference</text>
</g>
<!-- FOO_REF&#45;&gt;FOO_CSPROJ -->
<g id="edge32" class="edge"><title>FOO_REF&#45;&gt;FOO_CSPROJ</title>
<path fill="none" stroke="black" stroke-dasharray="5,2" d="M516.623,-189.972C536.057,-176.812 562.543,-158.876 583.429,-144.733"/>
<polygon fill="black" stroke="black" points="585.392,-147.631 591.71,-139.126 581.467,-141.835 585.392,-147.631"/>
<text text-anchor="middle" x="586.5" y="-160.8" font-family="Times,serif" font-size="14.00">Content</text>
</g>
<!-- FOO_NUPKG -->
<g id="node21" class="node"><title>FOO_NUPKG</title>
<polygon fill="darkviolet" stroke="black" points="593.5,-52 590.5,-56 569.5,-56 566.5,-52 478.5,-52 478.5,-16 593.5,-16 593.5,-52"/>
<text text-anchor="middle" x="536" y="-30.3" font-family="Times,serif" font-size="14.00">Mizux.Foo.nupkg</text>
</g>
<!-- FOO_REF&#45;&gt;FOO_NUPKG -->
<g id="edge35" class="edge"><title>FOO_REF&#45;&gt;FOO_NUPKG</title>
<path fill="none" stroke="black" stroke-dasharray="5,2" d="M486.169,-189.658C482.491,-168.292 478.734,-132.195 488,-103 493.008,-87.2209 503.147,-71.9464 512.821,-59.8848"/>
<polygon fill="black" stroke="black" points="515.624,-61.9896 519.375,-52.0811 510.264,-57.4874 515.624,-61.9896"/>
<text text-anchor="middle" x="501" y="-117.3" font-family="Times,serif" font-size="14.00">pack</text>
</g>
<!-- FOO_RT -->
<g id="node19" class="node"><title>FOO_RT</title>
<polygon fill="darkviolet" stroke="black" points="648,-227 568,-227 568,-191 654,-191 654,-221 648,-227"/>
<polyline fill="none" stroke="black" points="648,-227 648,-221 "/>
<polyline fill="none" stroke="black" points="654,-221 648,-221 "/>
<text text-anchor="middle" x="611" y="-205.3" font-family="Times,serif" font-size="14.00">runtime.json</text>
</g>
<!-- FOO_RT&#45;&gt;FOO_CSPROJ -->
<g id="edge33" class="edge"><title>FOO_RT&#45;&gt;FOO_CSPROJ</title>
<path fill="none" stroke="black" stroke-dasharray="5,2" d="M612.214,-190.597C613.041,-178.746 614.152,-162.817 615.096,-149.292"/>
<polygon fill="black" stroke="black" points="618.604,-149.303 615.808,-139.084 611.621,-148.816 618.604,-149.303"/>
<text text-anchor="middle" x="636.5" y="-160.8" font-family="Times,serif" font-size="14.00">Content</text>
</g>
<!-- FOO_RT&#45;&gt;FOO_NUPKG -->
<g id="edge36" class="edge"><title>FOO_RT&#45;&gt;FOO_NUPKG</title>
<path fill="none" stroke="black" stroke-dasharray="5,2" d="M587.868,-190.82C572.869,-178.266 554.427,-159.843 545,-139 534.011,-114.703 532.681,-83.9792 533.537,-62.2429"/>
<polygon fill="black" stroke="black" points="537.042,-62.2544 534.122,-52.0699 530.054,-61.8524 537.042,-62.2544"/>
<text text-anchor="middle" x="558" y="-117.3" font-family="Times,serif" font-size="14.00">pack</text>
</g>
<!-- FOO_CSPROJ&#45;&gt;FOO_NUPKG -->
<g id="edge34" class="edge"><title>FOO_CSPROJ&#45;&gt;FOO_NUPKG</title>
<path fill="none" stroke="black" stroke-width="2" d="M600.608,-102.799C588.751,-90.3561 572.559,-73.3644 559.351,-59.5044"/>
<polygon fill="black" stroke="black" stroke-width="2" points="561.8,-57.0003 552.367,-52.1754 556.732,-61.8294 561.8,-57.0003"/>
<text text-anchor="middle" x="614" y="-73.8" font-family="Times,serif" font-size="14.00">dotnet pack</text>
</g>
</g>
</svg>
