<?xml version="1.0" encoding="UTF-8" standalone="no"?>
<!DOCTYPE svg PUBLIC "-//W3C//DTD SVG 1.1//EN"
 "http://www.w3.org/Graphics/SVG/1.1/DTD/svg11.dtd">
<!-- Generated by graphviz version 2.38.0 (20140413.2041)
 -->
<!-- Title: Make Pages: 1 -->
<svg width="406pt" height="787pt"
 viewBox="0.00 0.00 406.00 787.00" xmlns="http://www.w3.org/2000/svg" xmlns:xlink="http://www.w3.org/1999/xlink">
<g id="graph0" class="graph" transform="scale(1 1) rotate(0) translate(4 783)">
<title>Make</title>
<polygon fill="white" stroke="none" points="-4,4 -4,-783 402,-783 402,4 -4,4"/>
<g id="clust1" class="cluster"><title>clusterLinux</title>
<polygon fill="none" stroke="black" points="8,-8 8,-771 390,-771 390,-8 8,-8"/>
<text text-anchor="middle" x="199" y="-755.8" font-family="Times,serif" font-size="14.00">Host</text>
</g>
<!-- CPP -->
<g id="node1" class="node"><title>CPP</title>
<polygon fill="royalblue" stroke="black" points="286,-740 166,-740 166,-704 292,-704 292,-734 286,-740"/>
<polyline fill="none" stroke="black" points="286,-740 286,-734 "/>
<polyline fill="none" stroke="black" points="292,-734 286,-734 "/>
<text text-anchor="middle" x="229" y="-718.3" font-family="Times,serif" font-size="14.00">Native.h/Native.cpp</text>
</g>
<!-- SWIG -->
<g id="node2" class="node"><title>SWIG</title>
<polygon fill="white" stroke="black" points="195,-652 119,-652 119,-616 201,-616 201,-646 195,-652"/>
<polyline fill="none" stroke="black" points="195,-652 195,-646 "/>
<polyline fill="none" stroke="black" points="201,-646 195,-646 "/>
<text text-anchor="middle" x="160" y="-630.3" font-family="Times,serif" font-size="14.00">Native.swig</text>
</g>
<!-- CPP&#45;&gt;SWIG -->
<g id="edge1" class="edge"><title>CPP&#45;&gt;SWIG</title>
<path fill="none" stroke="black" stroke-dasharray="5,2" d="M215.037,-703.597C204.964,-691.042 191.218,-673.91 179.984,-659.908"/>
<polygon fill="black" stroke="black" points="182.695,-657.694 173.707,-652.084 177.235,-662.074 182.695,-657.694"/>
<text text-anchor="middle" x="220" y="-674.8" font-family="Times,serif" font-size="14.00">include</text>
</g>
<!-- LINUX_LIB -->
<g id="node3" class="node"><title>LINUX_LIB</title>
<polygon fill="royalblue" stroke="black" points="377,-653 219,-653 219,-649 215,-649 215,-645 219,-645 219,-623 215,-623 215,-619 219,-619 219,-615 377,-615 377,-653"/>
<polyline fill="none" stroke="black" points="219,-649 223,-649 223,-645 219,-645 "/>
<polyline fill="none" stroke="black" points="219,-623 223,-623 223,-619 219,-619 "/>
<text text-anchor="middle" x="298" y="-637.8" font-family="Times,serif" font-size="14.00">Native.so</text>
<text text-anchor="middle" x="298" y="-622.8" font-family="Times,serif" font-size="14.00">runtimes/linux&#45;x64/native</text>
</g>
<!-- CPP&#45;&gt;LINUX_LIB -->
<g id="edge10" class="edge"><title>CPP&#45;&gt;LINUX_LIB</title>
<path fill="none" stroke="black" stroke-width="2" d="M242.963,-703.597C252.681,-691.484 265.817,-675.112 276.819,-661.4"/>
<polygon fill="black" stroke="black" stroke-width="2" points="279.815,-663.258 283.343,-653.268 274.355,-658.878 279.815,-663.258"/>
<text text-anchor="middle" x="279" y="-674.8" font-family="Times,serif" font-size="14.00">g++</text>
</g>
<!-- LINUX_CS -->
<g id="node4" class="node"><title>LINUX_CS</title>
<polygon fill="darkviolet" stroke="black" points="243,-564 101,-564 101,-528 249,-528 249,-558 243,-564"/>
<polyline fill="none" stroke="black" points="243,-564 243,-558 "/>
<polyline fill="none" stroke="black" points="249,-558 243,-558 "/>
<text text-anchor="middle" x="175" y="-542.3" font-family="Times,serif" font-size="14.00">NativeLinuxWrapper.cs</text>
</g>
<!-- SWIG&#45;&gt;LINUX_CS -->
<g id="edge9" class="edge"><title>SWIG&#45;&gt;LINUX_CS</title>
<path fill="none" stroke="black" stroke-width="2" d="M163.035,-615.597C165.102,-603.746 167.881,-587.817 170.24,-574.292"/>
<polygon fill="black" stroke="black" stroke-width="2" points="173.75,-574.537 172.02,-564.084 166.854,-573.334 173.75,-574.537"/>
<text text-anchor="middle" x="181" y="-585.8" font-family="Times,serif" font-size="14.00">swig</text>
</g>
<!-- LINUX_LIB&#45;&gt;LINUX_CS -->
<g id="edge2" class="edge"><title>LINUX_LIB&#45;&gt;LINUX_CS</title>
<path fill="none" stroke="black" stroke-dasharray="5,2" d="M266.061,-614.886C256.849,-609.381 246.889,-603.155 238,-597 226.199,-588.828 213.717,-579.157 203.004,-570.509"/>
<polygon fill="black" stroke="black" points="205.157,-567.748 195.197,-564.136 200.73,-573.171 205.157,-567.748"/>
<text text-anchor="middle" x="261" y="-585.8" font-family="Times,serif" font-size="14.00">PInvoke</text>
</g>
<!-- LINUX_CSPROJ -->
<g id="node5" class="node"><title>LINUX_CSPROJ</title>
<polygon fill="darkviolet" stroke="black" points="257.5,-477 86.5,-477 86.5,-441 263.5,-441 263.5,-471 257.5,-477"/>
<polyline fill="none" stroke="black" points="257.5,-477 257.5,-471 "/>
<polyline fill="none" stroke="black" points="263.5,-471 257.5,-471 "/>
<text text-anchor="middle" x="175" y="-455.3" font-family="Times,serif" font-size="14.00">runtime.linux&#45;x64.Foo.csproj</text>
</g>
<!-- LINUX_LIB&#45;&gt;LINUX_CSPROJ -->
<g id="edge4" class="edge"><title>LINUX_LIB&#45;&gt;LINUX_CSPROJ</title>
<path fill="none" stroke="black" stroke-dasharray="5,2" d="M293.843,-614.67C288.246,-592.674 276.764,-555.343 258,-528 245.793,-510.212 227.644,-494.601 211.427,-482.839"/>
<polygon fill="black" stroke="black" points="213.363,-479.921 203.165,-477.047 209.345,-485.653 213.363,-479.921"/>
<text text-anchor="middle" x="297.5" y="-542.3" font-family="Times,serif" font-size="14.00">Content</text>
</g>
<!-- LINUX_NUPKG -->
<g id="node7" class="node"><title>LINUX_NUPKG</title>
<polygon fill="darkviolet" stroke="black" points="358,-301 355,-305 334,-305 331,-301 140,-301 140,-265 358,-265 358,-301"/>
<text text-anchor="middle" x="249" y="-279.3" font-family="Times,serif" font-size="14.00">runtime.linux&#45;x64.Mizux.Foo.nupkg</text>
</g>
<!-- LINUX_LIB&#45;&gt;LINUX_NUPKG -->
<g id="edge6" class="edge"><title>LINUX_LIB&#45;&gt;LINUX_NUPKG</title>
<path fill="none" stroke="black" stroke-dasharray="5,2" d="M308.265,-614.718C332.961,-568.103 390.326,-442.131 344,-352 333.96,-332.467 315.417,-317.292 297.361,-306.283"/>
<polygon fill="black" stroke="black" points="298.986,-303.18 288.575,-301.213 295.487,-309.243 298.986,-303.18"/>
<text text-anchor="middle" x="374" y="-455.3" font-family="Times,serif" font-size="14.00">pack</text>
</g>
<!-- LINUX_CS&#45;&gt;LINUX_CSPROJ -->
<g id="edge3" class="edge"><title>LINUX_CS&#45;&gt;LINUX_CSPROJ</title>
<path fill="none" stroke="black" stroke-dasharray="5,2" d="M175,-527.799C175,-516.163 175,-500.548 175,-487.237"/>
<polygon fill="black" stroke="black" points="178.5,-487.175 175,-477.175 171.5,-487.175 178.5,-487.175"/>
<text text-anchor="middle" x="199" y="-498.8" font-family="Times,serif" font-size="14.00">Compile</text>
</g>
<!-- LINUX_DLL -->
<g id="node6" class="node"><title>LINUX_DLL</title>
<polygon fill="darkviolet" stroke="black" points="262,-390 36,-390 36,-386 32,-386 32,-382 36,-382 36,-360 32,-360 32,-356 36,-356 36,-352 262,-352 262,-390"/>
<polyline fill="none" stroke="black" points="36,-386 40,-386 40,-382 36,-382 "/>
<polyline fill="none" stroke="black" points="36,-360 40,-360 40,-356 36,-356 "/>
<text text-anchor="middle" x="149" y="-374.8" font-family="Times,serif" font-size="14.00">Mizux.Foo.dll</text>
<text text-anchor="middle" x="149" y="-359.8" font-family="Times,serif" font-size="14.00">runtimes/linux&#45;x64/lib/netstandard2.0/</text>
</g>
<!-- LINUX_CSPROJ&#45;&gt;LINUX_DLL -->
<g id="edge5" class="edge"><title>LINUX_CSPROJ&#45;&gt;LINUX_DLL</title>
<path fill="none" stroke="black" stroke-width="2" d="M169.739,-440.597C166.215,-428.941 161.499,-413.341 157.454,-399.963"/>
<polygon fill="black" stroke="black" stroke-width="2" points="160.767,-398.827 154.523,-390.268 154.067,-400.853 160.767,-398.827"/>
<text text-anchor="middle" x="197" y="-411.8" font-family="Times,serif" font-size="14.00">dotnet build</text>
</g>
<!-- LINUX_CSPROJ&#45;&gt;LINUX_NUPKG -->
<g id="edge8" class="edge"><title>LINUX_CSPROJ&#45;&gt;LINUX_NUPKG</title>
<path fill="none" stroke="black" stroke-width="2" d="M216.738,-440.975C237.613,-429.923 260.603,-413.205 271,-390 282.514,-364.302 273.015,-332.375 263.155,-310.313"/>
<polygon fill="black" stroke="black" stroke-width="2" points="266.283,-308.741 258.821,-301.219 259.964,-311.752 266.283,-308.741"/>
<text text-anchor="middle" x="308" y="-367.3" font-family="Times,serif" font-size="14.00">dotnet pack</text>
</g>
<!-- FOO_REF -->
<g id="node8" class="node"><title>FOO_REF</title>
<polygon fill="darkviolet" stroke="black" points="283.5,-228 164.5,-228 164.5,-224 160.5,-224 160.5,-220 164.5,-220 164.5,-198 160.5,-198 160.5,-194 164.5,-194 164.5,-190 283.5,-190 283.5,-228"/>
<polyline fill="none" stroke="black" points="164.5,-224 168.5,-224 168.5,-220 164.5,-220 "/>
<polyline fill="none" stroke="black" points="164.5,-198 168.5,-198 168.5,-194 164.5,-194 "/>
<text text-anchor="middle" x="224" y="-212.8" font-family="Times,serif" font-size="14.00">Mizux.Foo.dll</text>
<text text-anchor="middle" x="224" y="-197.8" font-family="Times,serif" font-size="14.00">ref/netstandard2.0/</text>
</g>
<!-- LINUX_CSPROJ&#45;&gt;FOO_REF -->
<g id="edge11" class="edge"><title>LINUX_CSPROJ&#45;&gt;FOO_REF</title>
<path fill="none" stroke="black" stroke-width="2" d="M97.6051,-440.879C70.536,-430.775 42.947,-414.877 27,-390 17.8855,-375.782 19.8509,-367.301 27,-352 54.188,-293.81 118.782,-254.589 166.634,-232.368"/>
<polygon fill="black" stroke="black" stroke-width="2" points="168.294,-235.459 175.965,-228.15 165.411,-229.08 168.294,-235.459"/>
<text text-anchor="middle" x="80" y="-322.8" font-family="Times,serif" font-size="14.00">dotnet build</text>
</g>
<!-- LINUX_DLL&#45;&gt;LINUX_NUPKG -->
<g id="edge7" class="edge"><title>LINUX_DLL&#45;&gt;LINUX_NUPKG</title>
<path fill="none" stroke="black" stroke-dasharray="5,2" d="M170.207,-351.762C185.185,-338.88 205.393,-321.502 221.593,-307.57"/>
<polygon fill="black" stroke="black" points="223.884,-310.216 229.183,-301.042 219.319,-304.909 223.884,-310.216"/>
<text text-anchor="middle" x="220" y="-322.8" font-family="Times,serif" font-size="14.00">pack</text>
</g>
<!-- LINUX_NUPKG&#45;&gt;FOO_REF -->
<g id="edge17" class="edge"><title>LINUX_NUPKG&#45;&gt;FOO_REF</title>
</g>
<!-- FOO_CSPROJ -->
<g id="node9" class="node"><title>FOO_CSPROJ</title>
<polygon fill="darkviolet" stroke="black" points="199,-139 131,-139 131,-103 205,-103 205,-133 199,-139"/>
<polyline fill="none" stroke="black" points="199,-139 199,-133 "/>
<polyline fill="none" stroke="black" points="205,-133 199,-133 "/>
<text text-anchor="middle" x="168" y="-117.3" font-family="Times,serif" font-size="14.00">Foo.csproj</text>
</g>
<!-- LINUX_NUPKG&#45;&gt;FOO_CSPROJ -->
<g id="edge16" class="edge"><title>LINUX_NUPKG&#45;&gt;FOO_CSPROJ</title>
<path fill="none" stroke="black" stroke-dasharray="5,2" d="M146.212,-264.999C106.148,-256.094 66.9489,-243.729 55,-228 28.9055,-193.65 79.8504,-160.739 121.553,-140.944"/>
<polygon fill="black" stroke="black" points="123.196,-144.04 130.819,-136.682 120.271,-137.681 123.196,-144.04"/>
<text text-anchor="middle" x="105" y="-205.3" font-family="Times,serif" font-size="14.00">PackageReference</text>
</g>
<!-- FOO_NUPKG -->
<g id="node10" class="node"><title>FOO_NUPKG</title>
<polygon fill="darkviolet" stroke="black" points="298.5,-52 295.5,-56 274.5,-56 271.5,-52 183.5,-52 183.5,-16 298.5,-16 298.5,-52"/>
<text text-anchor="middle" x="241" y="-30.3" font-family="Times,serif" font-size="14.00">Mizux.Foo.nupkg</text>
</g>
<!-- LINUX_NUPKG&#45;&gt;FOO_NUPKG -->
<g id="edge14" class="edge"><title>LINUX_NUPKG&#45;&gt;FOO_NUPKG</title>
<path fill="none" stroke="black" stroke-dasharray="5,2" d="M268.48,-264.528C277.829,-254.815 288.054,-241.9 293,-228 313.859,-169.379 279.989,-98.1945 257.822,-60.8039"/>
<polygon fill="black" stroke="black" points="260.678,-58.7647 252.479,-52.0541 254.703,-62.4128 260.678,-58.7647"/>
<text text-anchor="middle" x="334.5" y="-160.8" font-family="Times,serif" font-size="14.00">dependencies</text>
</g>
<!-- FOO_REF&#45;&gt;FOO_CSPROJ -->
<g id="edge12" class="edge"><title>FOO_REF&#45;&gt;FOO_CSPROJ</title>
<path fill="none" stroke="black" stroke-dasharray="5,2" d="M206.667,-189.643C201.942,-184.184 197.022,-178.042 193,-172 188.106,-164.648 183.533,-156.205 179.67,-148.375"/>
<polygon fill="black" stroke="black" points="182.786,-146.778 175.338,-139.244 176.462,-149.779 182.786,-146.778"/>
<text text-anchor="middle" x="214.5" y="-160.8" font-family="Times,serif" font-size="14.00">Content</text>
</g>
<!-- FOO_REF&#45;&gt;FOO_NUPKG -->
<g id="edge15" class="edge"><title>FOO_REF&#45;&gt;FOO_NUPKG</title>
<path fill="none" stroke="black" stroke-dasharray="5,2" d="M231.135,-189.949C233.067,-184.291 234.92,-177.964 236,-172 242.813,-134.371 243.044,-90.0097 242.271,-62.1894"/>
<polygon fill="black" stroke="black" points="245.763,-61.9136 241.923,-52.0394 238.767,-62.1534 245.763,-61.9136"/>
<text text-anchor="middle" x="255" y="-117.3" font-family="Times,serif" font-size="14.00">pack</text>
</g>
<!-- FOO_CSPROJ&#45;&gt;FOO_NUPKG -->
<g id="edge13" class="edge"><title>FOO_CSPROJ&#45;&gt;FOO_NUPKG</title>
<path fill="none" stroke="black" stroke-width="2" d="M165.401,-102.892C164.735,-92.5429 165.599,-79.5478 172,-70 175.085,-65.3978 178.968,-61.37 183.311,-57.851"/>
<polygon fill="black" stroke="black" stroke-width="2" points="185.388,-60.6692 191.552,-52.052 181.36,-54.9444 185.388,-60.6692"/>
<text text-anchor="middle" x="204" y="-73.8" font-family="Times,serif" font-size="14.00">dotnet pack</text>
</g>
</g>
</svg>
