<?xml version="1.0" encoding="UTF-8" standalone="no"?>
<!DOCTYPE svg PUBLIC "-//W3C//DTD SVG 1.1//EN"
 "http://www.w3.org/Graphics/SVG/1.1/DTD/svg11.dtd">
<!-- Generated by graphviz version 2.42.3 (0)
 -->
<!-- Title: CMake Pages: 1 -->
<svg width="695pt" height="865pt"
 viewBox="0.00 0.00 695.00 865.00" xmlns="http://www.w3.org/2000/svg" xmlns:xlink="http://www.w3.org/1999/xlink">
<g id="graph0" class="graph" transform="scale(1 1) rotate(0) translate(4 861)">
<title>CMake</title>
<polygon fill="white" stroke="transparent" points="-4,4 -4,-861 691,-861 691,4 -4,4"/>
<g id="clust1" class="cluster">
<title>clusterLinux</title>
<polygon fill="none" stroke="black" points="8,-8 8,-849 670,-849 670,-8 8,-8"/>
<text text-anchor="middle" x="339" y="-833.8" font-family="Times,serif" font-size="14.00">Host</text>
</g>
<g id="clust2" class="cluster">
<title>clusterCPP</title>
<polygon fill="none" stroke="royalblue" points="126,-476 126,-818 536,-818 536,-476 126,-476"/>
<text text-anchor="middle" x="331" y="-802.8" font-family="Times,serif" font-size="14.00">C++</text>
</g>
<g id="clust3" class="cluster">
<title>clusterCS</title>
<polygon fill="none" stroke="darkviolet" points="28,-16 28,-443 486,-443 486,-16 28,-16"/>
<text text-anchor="middle" x="257" y="-427.8" font-family="Times,serif" font-size="14.00">.Net</text>
</g>
<!-- SWIG -->
<g id="node1" class="node">
<title>SWIG</title>
<polygon fill="white" stroke="black" points="628,-697 580,-697 580,-661 634,-661 634,-691 628,-697"/>
<polyline fill="none" stroke="black" points="628,-697 628,-691 "/>
<polyline fill="none" stroke="black" points="634,-691 628,-691 "/>
<text text-anchor="middle" x="607" y="-675.3" font-family="Times,serif" font-size="14.00">foo.i</text>
</g>
<!-- WRAPPER_CPP -->
<g id="node5" class="node">
<title>WRAPPER_CPP</title>
<polygon fill="royalblue" stroke="black" points="522,-697 356,-697 356,-661 528,-661 528,-691 522,-697"/>
<polyline fill="none" stroke="black" points="522,-697 522,-691 "/>
<polyline fill="none" stroke="black" points="528,-691 522,-691 "/>
<text text-anchor="middle" x="442" y="-675.3" font-family="Times,serif" font-size="14.00">fooCSHARP_wrap.cxx</text>
</g>
<!-- SWIG&#45;&gt;WRAPPER_CPP -->
<g id="edge14" class="edge">
<title>SWIG&#45;&gt;WRAPPER_CPP</title>
<path fill="none" stroke="black" stroke-width="2" d="M579.85,-679C568.1,-679 553.58,-679 538.41,-679"/>
<polygon fill="black" stroke="black" stroke-width="2" points="538.37,-675.5 528.37,-679 538.37,-682.5 538.37,-675.5"/>
<text text-anchor="middle" x="554" y="-685.8" font-family="Times,serif" font-size="14.00">swig</text>
</g>
<!-- FOO_CS -->
<g id="node11" class="node">
<title>FOO_CS</title>
<polygon fill="darkviolet" stroke="black" points="472,-323 416,-323 416,-287 478,-287 478,-317 472,-323"/>
<polyline fill="none" stroke="black" points="472,-323 472,-317 "/>
<polyline fill="none" stroke="black" points="478,-317 472,-317 "/>
<text text-anchor="middle" x="447" y="-301.3" font-family="Times,serif" font-size="14.00">Foo.cs</text>
</g>
<!-- SWIG&#45;&gt;FOO_CS -->
<g id="edge13" class="edge">
<title>SWIG&#45;&gt;FOO_CS</title>
<path fill="none" stroke="black" stroke-width="2" d="M614.44,-660.95C634.76,-611.48 685.69,-465.59 623,-374 592.98,-330.14 530.32,-314.56 488.44,-309.03"/>
<polygon fill="black" stroke="black" stroke-width="2" points="488.62,-305.53 478.28,-307.83 487.8,-312.48 488.62,-305.53"/>
<text text-anchor="middle" x="670" y="-499.3" font-family="Times,serif" font-size="14.00">swig</text>
</g>
<!-- PKG -->
<g id="node2" class="node">
<title>PKG</title>
<polygon fill="royalblue" stroke="black" points="528,-787 380,-787 376,-783 376,-749 524,-749 528,-753 528,-787"/>
<polyline fill="none" stroke="black" points="524,-783 376,-783 "/>
<polyline fill="none" stroke="black" points="524,-783 524,-749 "/>
<polyline fill="none" stroke="black" points="524,-783 528,-787 "/>
<text text-anchor="middle" x="452" y="-771.8" font-family="Times,serif" font-size="14.00">C++ dev packages</text>
<text text-anchor="middle" x="452" y="-756.8" font-family="Times,serif" font-size="14.00">e.g. cmake, g++</text>
</g>
<!-- CPP -->
<g id="node3" class="node">
<title>CPP</title>
<polygon fill="royalblue" stroke="black" points="352,-786 224,-786 224,-750 358,-750 358,-780 352,-786"/>
<polyline fill="none" stroke="black" points="352,-786 352,-780 "/>
<polyline fill="none" stroke="black" points="358,-780 352,-780 "/>
<text text-anchor="middle" x="291" y="-764.3" font-family="Times,serif" font-size="14.00">Foo.hpp/Foo.cpp</text>
</g>
<!-- CPP&#45;&gt;SWIG -->
<g id="edge12" class="edge">
<title>CPP&#45;&gt;SWIG</title>
<path fill="none" stroke="black" stroke-dasharray="5,2" d="M353.05,-749.92C417.73,-732.11 516.92,-704.8 570.17,-690.14"/>
<polygon fill="black" stroke="black" points="571.16,-693.5 579.87,-687.47 569.3,-686.75 571.16,-693.5"/>
<text text-anchor="middle" x="493" y="-719.8" font-family="Times,serif" font-size="14.00">include</text>
</g>
<!-- LIB -->
<g id="node4" class="node">
<title>LIB</title>
<polygon fill="royalblue" stroke="black" points="338,-698 134,-698 134,-694 130,-694 130,-690 134,-690 134,-668 130,-668 130,-664 134,-664 134,-660 338,-660 338,-698"/>
<polyline fill="none" stroke="black" points="134,-694 138,-694 138,-690 134,-690 "/>
<polyline fill="none" stroke="black" points="134,-668 138,-668 138,-664 134,-664 "/>
<text text-anchor="middle" x="236" y="-682.8" font-family="Times,serif" font-size="14.00">libFoo.so</text>
<text text-anchor="middle" x="236" y="-667.8" font-family="Times,serif" font-size="14.00">runtimes/linux&#45;x64/native/</text>
</g>
<!-- CPP&#45;&gt;LIB -->
<g id="edge2" class="edge">
<title>CPP&#45;&gt;LIB</title>
<path fill="none" stroke="black" stroke-width="2" d="M280.13,-749.81C272.38,-737.54 261.8,-720.8 252.94,-706.79"/>
<polygon fill="black" stroke="black" stroke-width="2" points="255.71,-704.63 247.41,-698.05 249.8,-708.37 255.71,-704.63"/>
<text text-anchor="middle" x="294" y="-719.8" font-family="Times,serif" font-size="14.00">g++, ld</text>
</g>
<!-- CPP&#45;&gt;WRAPPER_CPP -->
<g id="edge1" class="edge">
<title>CPP&#45;&gt;WRAPPER_CPP</title>
<path fill="none" stroke="black" stroke-dasharray="5,2" d="M312.98,-749.79C326.88,-739.33 345.47,-726.08 363,-716 372.01,-710.82 381.9,-705.82 391.54,-701.27"/>
<polygon fill="black" stroke="black" points="393.05,-704.43 400.67,-697.07 390.12,-698.07 393.05,-704.43"/>
<text text-anchor="middle" x="389" y="-719.8" font-family="Times,serif" font-size="14.00">include</text>
</g>
<!-- RUNTIME_CSPROJ -->
<g id="node9" class="node">
<title>RUNTIME_CSPROJ</title>
<polygon fill="darkviolet" stroke="black" points="299.5,-411 36.5,-411 36.5,-375 305.5,-375 305.5,-405 299.5,-411"/>
<polyline fill="none" stroke="black" points="299.5,-411 299.5,-405 "/>
<polyline fill="none" stroke="black" points="305.5,-405 299.5,-405 "/>
<text text-anchor="middle" x="171" y="-389.3" font-family="Times,serif" font-size="14.00">Mizux.Foo.runtime.linux&#45;x64.csproj</text>
</g>
<!-- LIB&#45;&gt;RUNTIME_CSPROJ -->
<g id="edge15" class="edge">
<title>LIB&#45;&gt;RUNTIME_CSPROJ</title>
<path fill="none" stroke="black" stroke-dasharray="5,2" d="M231.84,-659.8C220.73,-611.28 190.36,-478.61 177.21,-421.14"/>
<polygon fill="black" stroke="black" points="180.61,-420.29 174.96,-411.32 173.78,-421.85 180.61,-420.29"/>
<text text-anchor="middle" x="236" y="-543.8" font-family="Times,serif" font-size="14.00">Content</text>
</g>
<!-- RUNTIME_NUPKG -->
<g id="node10" class="node">
<title>RUNTIME_NUPKG</title>
<polygon fill="darkviolet" stroke="black" points="309,-323 306,-327 285,-327 282,-323 39,-323 39,-287 309,-287 309,-323"/>
<text text-anchor="middle" x="174" y="-301.3" font-family="Times,serif" font-size="14.00">Mizux.Foo.runtime.linux&#45;x64.nupkg</text>
</g>
<!-- LIB&#45;&gt;RUNTIME_NUPKG -->
<g id="edge16" class="edge">
<title>LIB&#45;&gt;RUNTIME_NUPKG</title>
<path fill="none" stroke="black" stroke-dasharray="5,2" d="M210.7,-659.93C163.71,-624.61 64.36,-541.24 27,-443 16.1,-414.34 10.48,-399.84 27,-374 41.04,-352.04 64.18,-337.07 88,-326.9"/>
<polygon fill="black" stroke="black" points="89.51,-330.06 97.5,-323.1 86.92,-323.56 89.51,-330.06"/>
<text text-anchor="middle" x="88" y="-499.3" font-family="Times,serif" font-size="14.00">pack</text>
</g>
<!-- WRAPPER_OBJ -->
<g id="node6" class="node">
<title>WRAPPER_OBJ</title>
<polygon fill="royalblue" stroke="black" points="519.5,-609 340.5,-609 340.5,-573 525.5,-573 525.5,-603 519.5,-609"/>
<polyline fill="none" stroke="black" points="519.5,-609 519.5,-603 "/>
<polyline fill="none" stroke="black" points="525.5,-603 519.5,-603 "/>
<text text-anchor="middle" x="433" y="-587.3" font-family="Times,serif" font-size="14.00">fooCSHARP_wrap.cxx.o</text>
</g>
<!-- WRAPPER_CPP&#45;&gt;WRAPPER_OBJ -->
<g id="edge3" class="edge">
<title>WRAPPER_CPP&#45;&gt;WRAPPER_OBJ</title>
<path fill="none" stroke="black" stroke-width="2" d="M424.26,-660.81C419.7,-655.28 415.4,-648.81 413,-642 410.29,-634.31 411.74,-626.06 414.84,-618.52"/>
<polygon fill="black" stroke="black" stroke-width="2" points="418.04,-619.95 419.46,-609.45 411.8,-616.78 418.04,-619.95"/>
<text text-anchor="middle" x="430" y="-630.8" font-family="Times,serif" font-size="14.00">g++</text>
</g>
<!-- WRAPPER_LIB -->
<g id="node7" class="node">
<title>WRAPPER_LIB</title>
<polygon fill="royalblue" stroke="black" points="528,-522 324,-522 324,-518 320,-518 320,-514 324,-514 324,-492 320,-492 320,-488 324,-488 324,-484 528,-484 528,-522"/>
<polyline fill="none" stroke="black" points="324,-518 328,-518 328,-514 324,-514 "/>
<polyline fill="none" stroke="black" points="324,-492 328,-492 328,-488 324,-488 "/>
<text text-anchor="middle" x="426" y="-506.8" font-family="Times,serif" font-size="14.00">mizux_foo_native.so</text>
<text text-anchor="middle" x="426" y="-491.8" font-family="Times,serif" font-size="14.00">runtimes/linux&#45;x64/native/</text>
</g>
<!-- WRAPPER_OBJ&#45;&gt;WRAPPER_LIB -->
<g id="edge4" class="edge">
<title>WRAPPER_OBJ&#45;&gt;WRAPPER_LIB</title>
<path fill="none" stroke="black" stroke-width="2" d="M427.64,-572.72C426.15,-567.12 424.74,-560.85 424,-555 423.06,-547.59 422.96,-539.53 423.24,-532.06"/>
<polygon fill="black" stroke="black" stroke-width="2" points="426.74,-532.19 423.85,-522 419.75,-531.77 426.74,-532.19"/>
<text text-anchor="middle" x="431" y="-543.8" font-family="Times,serif" font-size="14.00">ld</text>
</g>
<!-- WRAPPER_LIB&#45;&gt;RUNTIME_CSPROJ -->
<g id="edge17" class="edge">
<title>WRAPPER_LIB&#45;&gt;RUNTIME_CSPROJ</title>
<path fill="none" stroke="black" stroke-dasharray="5,2" d="M383.32,-483.92C338.49,-464.93 268.04,-435.1 220.73,-415.06"/>
<polygon fill="black" stroke="black" points="221.87,-411.74 211.29,-411.07 219.14,-418.19 221.87,-411.74"/>
<text text-anchor="middle" x="365" y="-454.8" font-family="Times,serif" font-size="14.00">Content</text>
</g>
<!-- WRAPPER_LIB&#45;&gt;RUNTIME_NUPKG -->
<g id="edge19" class="edge">
<title>WRAPPER_LIB&#45;&gt;RUNTIME_NUPKG</title>
<path fill="none" stroke="black" stroke-dasharray="5,2" d="M453.19,-483.78C466.03,-473.49 480.04,-459.41 487,-443 498.97,-414.77 506.25,-397.88 487,-374 465.21,-346.97 390.2,-330.13 319.08,-319.97"/>
<polygon fill="black" stroke="black" points="319.46,-316.49 309.07,-318.58 318.5,-323.42 319.46,-316.49"/>
<text text-anchor="middle" x="515" y="-389.3" font-family="Times,serif" font-size="14.00">pack</text>
</g>
<!-- WRAPPER_LIB&#45;&gt;FOO_CS -->
<g id="edge18" class="edge">
<title>WRAPPER_LIB&#45;&gt;FOO_CS</title>
<path fill="none" stroke="black" stroke-dasharray="5,2" d="M503.87,-483.91C523.59,-475.14 542,-462.16 552,-443 566.19,-415.81 563.74,-402.33 552,-374 540.77,-346.9 512.16,-329.47 487.64,-319.04"/>
<polygon fill="black" stroke="black" points="488.72,-315.71 478.14,-315.26 486.13,-322.21 488.72,-315.71"/>
<text text-anchor="middle" x="590" y="-389.3" font-family="Times,serif" font-size="14.00">PInvoke</text>
</g>
<!-- DOTNET_PKG -->
<g id="node8" class="node">
<title>DOTNET_PKG</title>
<polygon fill="darkviolet" stroke="black" points="478,-412 328,-412 324,-408 324,-374 474,-374 478,-378 478,-412"/>
<polyline fill="none" stroke="black" points="474,-408 324,-408 "/>
<polyline fill="none" stroke="black" points="474,-408 474,-374 "/>
<polyline fill="none" stroke="black" points="474,-408 478,-412 "/>
<text text-anchor="middle" x="401" y="-396.8" font-family="Times,serif" font-size="14.00">.Net SDK packages</text>
<text text-anchor="middle" x="401" y="-381.8" font-family="Times,serif" font-size="14.00">e.g. dotnet&#45;cli</text>
</g>
<!-- RUNTIME_CSPROJ&#45;&gt;RUNTIME_NUPKG -->
<g id="edge5" class="edge">
<title>RUNTIME_CSPROJ&#45;&gt;RUNTIME_NUPKG</title>
<path fill="none" stroke="black" stroke-width="2" d="M171.61,-374.6C172.02,-362.75 172.58,-346.82 173.05,-333.29"/>
<polygon fill="black" stroke="black" stroke-width="2" points="176.55,-333.2 173.4,-323.08 169.56,-332.96 176.55,-333.2"/>
<text text-anchor="middle" x="215.5" y="-344.8" font-family="Times,serif" font-size="14.00">dotnet pack</text>
</g>
<!-- FOO_CSPROJ -->
<g id="node12" class="node">
<title>FOO_CSPROJ</title>
<polygon fill="darkviolet" stroke="black" points="381,-236 297,-236 297,-200 387,-200 387,-230 381,-236"/>
<polyline fill="none" stroke="black" points="381,-236 381,-230 "/>
<polyline fill="none" stroke="black" points="387,-230 381,-230 "/>
<text text-anchor="middle" x="342" y="-214.3" font-family="Times,serif" font-size="14.00">Foo.csproj</text>
</g>
<!-- RUNTIME_NUPKG&#45;&gt;FOO_CSPROJ -->
<g id="edge11" class="edge">
<title>RUNTIME_NUPKG&#45;&gt;FOO_CSPROJ</title>
<path fill="none" stroke="black" stroke-dasharray="5,2" d="M198.2,-286.99C213.49,-276.68 233.89,-263.69 253,-254 263.87,-248.48 275.83,-243.25 287.36,-238.6"/>
<polygon fill="black" stroke="black" points="288.89,-241.75 296.91,-234.83 286.32,-235.24 288.89,-241.75"/>
<text text-anchor="middle" x="318.5" y="-257.8" font-family="Times,serif" font-size="14.00">PackageReference</text>
</g>
<!-- FOO_NUPKG -->
<g id="node14" class="node">
<title>FOO_NUPKG</title>
<polygon fill="darkviolet" stroke="black" points="345.5,-60 342.5,-64 321.5,-64 318.5,-60 206.5,-60 206.5,-24 345.5,-24 345.5,-60"/>
<text text-anchor="middle" x="276" y="-38.3" font-family="Times,serif" font-size="14.00">Mizux.Foo.nupkg</text>
</g>
<!-- RUNTIME_NUPKG&#45;&gt;FOO_NUPKG -->
<g id="edge10" class="edge">
<title>RUNTIME_NUPKG&#45;&gt;FOO_NUPKG</title>
<path fill="none" stroke="black" stroke-dasharray="5,2" d="M171.1,-286.99C165.97,-251.73 158.59,-169.12 190,-111 200.09,-92.32 217.72,-77.01 234.4,-65.67"/>
<polygon fill="black" stroke="black" points="236.5,-68.49 242.99,-60.11 232.69,-62.61 236.5,-68.49"/>
<text text-anchor="middle" x="221" y="-170.8" font-family="Times,serif" font-size="14.00">dependencies</text>
</g>
<!-- FOO_CS&#45;&gt;FOO_CSPROJ -->
<g id="edge6" class="edge">
<title>FOO_CS&#45;&gt;FOO_CSPROJ</title>
<path fill="none" stroke="black" stroke-dasharray="5,2" d="M425.75,-286.8C410.1,-274.13 388.61,-256.73 371.32,-242.74"/>
<polygon fill="black" stroke="black" points="373.19,-239.75 363.22,-236.18 368.79,-245.19 373.19,-239.75"/>
<text text-anchor="middle" x="429.5" y="-257.8" font-family="Times,serif" font-size="14.00">Compile</text>
</g>
<!-- FOO_DLL -->
<g id="node13" class="node">
<title>FOO_DLL</title>
<polygon fill="darkviolet" stroke="black" points="352.5,-149 199.5,-149 199.5,-145 195.5,-145 195.5,-141 199.5,-141 199.5,-119 195.5,-119 195.5,-115 199.5,-115 199.5,-111 352.5,-111 352.5,-149"/>
<polyline fill="none" stroke="black" points="199.5,-145 203.5,-145 203.5,-141 199.5,-141 "/>
<polyline fill="none" stroke="black" points="199.5,-119 203.5,-119 203.5,-115 199.5,-115 "/>
<text text-anchor="middle" x="276" y="-133.8" font-family="Times,serif" font-size="14.00">Mizux.Foo.dll</text>
<text text-anchor="middle" x="276" y="-118.8" font-family="Times,serif" font-size="14.00">lib/netstandard2.0/</text>
</g>
<!-- FOO_CSPROJ&#45;&gt;FOO_DLL -->
<g id="edge7" class="edge">
<title>FOO_CSPROJ&#45;&gt;FOO_DLL</title>
<path fill="none" stroke="black" stroke-width="2" d="M314.49,-199.94C307.78,-194.81 301.08,-188.73 296,-182 290.84,-175.17 286.84,-166.84 283.81,-158.91"/>
<polygon fill="black" stroke="black" stroke-width="2" points="287.05,-157.54 280.5,-149.22 280.42,-159.81 287.05,-157.54"/>
<text text-anchor="middle" x="340" y="-170.8" font-family="Times,serif" font-size="14.00">dotnet build</text>
</g>
<!-- FOO_CSPROJ&#45;&gt;FOO_NUPKG -->
<g id="edge9" class="edge">
<title>FOO_CSPROJ&#45;&gt;FOO_NUPKG</title>
<path fill="none" stroke="black" stroke-width="2" d="M369.69,-199.87C375.47,-194.87 380.78,-188.88 384,-182 394.7,-159.16 373.13,-126.01 362,-111 348.87,-93.29 330.02,-77.69 313.31,-65.91"/>
<polygon fill="black" stroke="black" stroke-width="2" points="315.04,-62.86 304.81,-60.11 311.1,-68.64 315.04,-62.86"/>
<text text-anchor="middle" x="425.5" y="-126.3" font-family="Times,serif" font-size="14.00">dotnet pack</text>
</g>
<!-- FOO_DLL&#45;&gt;FOO_NUPKG -->
<g id="edge8" class="edge">
<title>FOO_DLL&#45;&gt;FOO_NUPKG</title>
<path fill="none" stroke="black" stroke-dasharray="5,2" d="M276,-110.76C276,-98.93 276,-83.32 276,-70.05"/>
<polygon fill="black" stroke="black" points="279.5,-70.04 276,-60.04 272.5,-70.04 279.5,-70.04"/>
<text text-anchor="middle" x="293" y="-81.8" font-family="Times,serif" font-size="14.00">pack</text>
</g>
</g>
</svg>
