<?xml version="1.0" encoding="UTF-8" standalone="no"?>
<!DOCTYPE svg PUBLIC "-//W3C//DTD SVG 1.1//EN"
 "http://www.w3.org/Graphics/SVG/1.1/DTD/svg11.dtd">
<!-- Generated by graphviz version 2.43.0 (0)
 -->
<!-- Title: DockerDeps Pages: 1 -->
<svg width="1285pt" height="900pt"
 viewBox="0.00 0.00 1285.00 899.75" xmlns="http://www.w3.org/2000/svg" xmlns:xlink="http://www.w3.org/1999/xlink">
<g id="graph0" class="graph" transform="scale(1 1) rotate(0) translate(4 895.75)">
<title>DockerDeps</title>
<polygon fill="white" stroke="transparent" points="-4,4 -4,-895.75 1281,-895.75 1281,4 -4,4"/>
<g id="clust1" class="cluster">
<title>clusterDockerfile</title>
<polygon fill="none" stroke="royalblue" points="641,-116 641,-812.75 1044,-812.75 1044,-116 641,-116"/>
<text text-anchor="middle" x="842.5" y="-797.55" font-family="Times,serif" font-size="14.00">docker/&lt;distro&gt;/Dockerfile</text>
</g>
<g id="clust2" class="cluster">
<title>clusterCache</title>
<polygon fill="none" stroke="royalblue" points="8,-8 8,-83 1125,-83 1125,-8 8,-8"/>
<text text-anchor="middle" x="566.5" y="-67.8" font-family="Times,serif" font-size="14.00">cache/&lt;distro&gt;/</text>
</g>
<!-- DISTRO_IMG -->
<g id="node1" class="node">
<title>DISTRO_IMG</title>
<path fill="royalblue" stroke="black" d="M862,-887.48C862,-889.28 840.49,-890.75 814,-890.75 787.51,-890.75 766,-889.28 766,-887.48 766,-887.48 766,-858.02 766,-858.02 766,-856.22 787.51,-854.75 814,-854.75 840.49,-854.75 862,-856.22 862,-858.02 862,-858.02 862,-887.48 862,-887.48"/>
<path fill="none" stroke="black" d="M862,-887.48C862,-885.67 840.49,-884.2 814,-884.2 787.51,-884.2 766,-885.67 766,-887.48"/>
<text text-anchor="middle" x="814" y="-869.05" font-family="Times,serif" font-size="14.00">&lt;distro&gt;:latest</text>
</g>
<!-- ENV_IMG -->
<g id="node6" class="node">
<title>ENV_IMG</title>
<path fill="royalblue" stroke="black" d="M1016.5,-777.1C1016.5,-779.74 979.52,-781.88 934,-781.88 888.48,-781.88 851.5,-779.74 851.5,-777.1 851.5,-777.1 851.5,-734.15 851.5,-734.15 851.5,-731.51 888.48,-729.37 934,-729.37 979.52,-729.37 1016.5,-731.51 1016.5,-734.15 1016.5,-734.15 1016.5,-777.1 1016.5,-777.1"/>
<path fill="none" stroke="black" d="M1016.5,-777.1C1016.5,-774.47 979.52,-772.33 934,-772.33 888.48,-772.33 851.5,-774.47 851.5,-777.1"/>
<text text-anchor="middle" x="934" y="-759.42" font-family="Times,serif" font-size="14.00">dotnet&#45;native:&lt;distro&gt;_env</text>
<text text-anchor="middle" x="934" y="-744.42" font-family="Times,serif" font-size="14.00">env</text>
</g>
<!-- DISTRO_IMG&#45;&gt;ENV_IMG -->
<g id="edge9" class="edge">
<title>DISTRO_IMG&#45;&gt;ENV_IMG</title>
<path fill="none" stroke="black" d="M831.97,-854.51C849.94,-837.27 878.03,-810.32 900.19,-789.06"/>
<polygon fill="black" stroke="black" points="902.66,-791.54 907.46,-782.09 897.82,-786.49 902.66,-791.54"/>
</g>
<!-- PKG -->
<g id="node2" class="node">
<title>PKG</title>
<polygon fill="royalblue" stroke="black" points="987.5,-891.75 884.5,-891.75 880.5,-887.75 880.5,-853.75 983.5,-853.75 987.5,-857.75 987.5,-891.75"/>
<polyline fill="none" stroke="black" points="983.5,-887.75 880.5,-887.75 "/>
<polyline fill="none" stroke="black" points="983.5,-887.75 983.5,-853.75 "/>
<polyline fill="none" stroke="black" points="983.5,-887.75 987.5,-891.75 "/>
<text text-anchor="middle" x="934" y="-876.55" font-family="Times,serif" font-size="14.00">Build packages</text>
<text text-anchor="middle" x="934" y="-861.55" font-family="Times,serif" font-size="14.00">e.g. cmake, g++</text>
</g>
<!-- PKG&#45;&gt;ENV_IMG -->
<g id="edge10" class="edge">
<title>PKG&#45;&gt;ENV_IMG</title>
<path fill="none" stroke="black" stroke-dasharray="5,2" d="M934,-853.51C934,-837.09 934,-812.51 934,-792.22"/>
<polygon fill="black" stroke="black" points="937.5,-792.06 934,-782.06 930.5,-792.06 937.5,-792.06"/>
<text text-anchor="middle" x="951" y="-824.55" font-family="Times,serif" font-size="14.00">install</text>
</g>
<!-- DOTNETPKG -->
<g id="node3" class="node">
<title>DOTNETPKG</title>
<polygon fill="forestgreen" stroke="black" points="1098.5,-891.75 1009.5,-891.75 1005.5,-887.75 1005.5,-853.75 1094.5,-853.75 1098.5,-857.75 1098.5,-891.75"/>
<polyline fill="none" stroke="black" points="1094.5,-887.75 1005.5,-887.75 "/>
<polyline fill="none" stroke="black" points="1094.5,-887.75 1094.5,-853.75 "/>
<polyline fill="none" stroke="black" points="1094.5,-887.75 1098.5,-891.75 "/>
<text text-anchor="middle" x="1052" y="-876.55" font-family="Times,serif" font-size="14.00">.Net packages</text>
<text text-anchor="middle" x="1052" y="-861.55" font-family="Times,serif" font-size="14.00">e.g. dotnet&#45;cli</text>
</g>
<!-- DOTNETPKG&#45;&gt;ENV_IMG -->
<g id="edge11" class="edge">
<title>DOTNETPKG&#45;&gt;ENV_IMG</title>
<path fill="none" stroke="black" stroke-dasharray="5,2" d="M1033.3,-853.51C1015.63,-836.27 988.72,-810.01 967.37,-789.18"/>
<polygon fill="black" stroke="black" points="969.67,-786.54 960.07,-782.06 964.78,-791.55 969.67,-786.54"/>
<text text-anchor="middle" x="1030" y="-824.55" font-family="Times,serif" font-size="14.00">install</text>
</g>
<!-- SRC -->
<g id="node4" class="node">
<title>SRC</title>
<polygon fill="royalblue" stroke="black" points="632.5,-773.62 629.5,-777.62 608.5,-777.62 605.5,-773.62 573.5,-773.62 573.5,-737.62 632.5,-737.62 632.5,-773.62"/>
<text text-anchor="middle" x="603" y="-751.92" font-family="Times,serif" font-size="14.00">git repo</text>
</g>
<!-- DEVEL_IMG -->
<g id="node7" class="node">
<title>DEVEL_IMG</title>
<path fill="royalblue" stroke="black" d="M824.5,-673.85C824.5,-676.49 785.28,-678.63 737,-678.63 688.72,-678.63 649.5,-676.49 649.5,-673.85 649.5,-673.85 649.5,-630.9 649.5,-630.9 649.5,-628.26 688.72,-626.12 737,-626.12 785.28,-626.12 824.5,-628.26 824.5,-630.9 824.5,-630.9 824.5,-673.85 824.5,-673.85"/>
<path fill="none" stroke="black" d="M824.5,-673.85C824.5,-671.22 785.28,-669.08 737,-669.08 688.72,-669.08 649.5,-671.22 649.5,-673.85"/>
<text text-anchor="middle" x="737" y="-656.17" font-family="Times,serif" font-size="14.00">dotnet&#45;native:&lt;distro&gt;_devel</text>
<text text-anchor="middle" x="737" y="-641.17" font-family="Times,serif" font-size="14.00">devel</text>
</g>
<!-- SRC&#45;&gt;DEVEL_IMG -->
<g id="edge12" class="edge">
<title>SRC&#45;&gt;DEVEL_IMG</title>
<path fill="none" stroke="black" stroke-dasharray="5,2" d="M625.73,-737.45C644.75,-723.08 672.39,-702.2 695.36,-684.84"/>
<polygon fill="black" stroke="black" points="697.71,-687.45 703.58,-678.62 693.49,-681.86 697.71,-687.45"/>
<text text-anchor="middle" x="691.5" y="-700.3" font-family="Times,serif" font-size="14.00">copy</text>
</g>
<!-- SAMPLE -->
<g id="node5" class="node">
<title>SAMPLE</title>
<polygon fill="royalblue" stroke="black" points="1110,-477.88 1107,-481.88 1086,-481.88 1083,-477.88 1054,-477.88 1054,-441.88 1110,-441.88 1110,-477.88"/>
<text text-anchor="middle" x="1082" y="-456.18" font-family="Times,serif" font-size="14.00">sample</text>
</g>
<!-- INSTALL_DEVEL_IMG -->
<g id="node11" class="node">
<title>INSTALL_DEVEL_IMG</title>
<path fill="royalblue" stroke="black" d="M1035.5,-378.1C1035.5,-380.74 987.32,-382.88 928,-382.88 868.68,-382.88 820.5,-380.74 820.5,-378.1 820.5,-378.1 820.5,-335.15 820.5,-335.15 820.5,-332.51 868.68,-330.37 928,-330.37 987.32,-330.37 1035.5,-332.51 1035.5,-335.15 1035.5,-335.15 1035.5,-378.1 1035.5,-378.1"/>
<path fill="none" stroke="black" d="M1035.5,-378.1C1035.5,-375.47 987.32,-373.33 928,-373.33 868.68,-373.33 820.5,-375.47 820.5,-378.1"/>
<text text-anchor="middle" x="928" y="-360.43" font-family="Times,serif" font-size="14.00">dotnet&#45;native:&lt;distro&gt;_install_devel</text>
<text text-anchor="middle" x="928" y="-345.43" font-family="Times,serif" font-size="14.00">install_devel</text>
</g>
<!-- SAMPLE&#45;&gt;INSTALL_DEVEL_IMG -->
<g id="edge13" class="edge">
<title>SAMPLE&#45;&gt;INSTALL_DEVEL_IMG</title>
<path fill="none" stroke="black" stroke-dasharray="5,2" d="M1059.12,-441.62C1055.43,-438.94 1051.63,-436.24 1048,-433.75 1025.37,-418.24 999.77,-401.85 978.04,-388.26"/>
<polygon fill="black" stroke="black" points="979.63,-385.13 969.29,-382.81 975.93,-391.07 979.63,-385.13"/>
<text text-anchor="middle" x="1031.5" y="-404.55" font-family="Times,serif" font-size="14.00">copy</text>
</g>
<!-- ENV_IMG&#45;&gt;DEVEL_IMG -->
<g id="edge1" class="edge">
<title>ENV_IMG&#45;&gt;DEVEL_IMG</title>
<path fill="none" stroke="black" d="M885.05,-729.47C857.8,-715.46 823.71,-697.94 795.12,-683.24"/>
<polygon fill="black" stroke="black" points="796.53,-680.04 786.04,-678.58 793.33,-686.26 796.53,-680.04"/>
</g>
<!-- INSTALL_ENV_IMG -->
<g id="node10" class="node">
<title>INSTALL_ENV_IMG</title>
<path fill="royalblue" stroke="black" d="M1036.5,-481.35C1036.5,-483.99 990.56,-486.13 934,-486.13 877.44,-486.13 831.5,-483.99 831.5,-481.35 831.5,-481.35 831.5,-438.4 831.5,-438.4 831.5,-435.76 877.44,-433.62 934,-433.62 990.56,-433.62 1036.5,-435.76 1036.5,-438.4 1036.5,-438.4 1036.5,-481.35 1036.5,-481.35"/>
<path fill="none" stroke="black" d="M1036.5,-481.35C1036.5,-478.72 990.56,-476.58 934,-476.58 877.44,-476.58 831.5,-478.72 831.5,-481.35"/>
<text text-anchor="middle" x="934" y="-463.68" font-family="Times,serif" font-size="14.00">dotnet&#45;native:&lt;distro&gt;_install_env</text>
<text text-anchor="middle" x="934" y="-448.68" font-family="Times,serif" font-size="14.00">install_env</text>
</g>
<!-- ENV_IMG&#45;&gt;INSTALL_ENV_IMG -->
<g id="edge4" class="edge">
<title>ENV_IMG&#45;&gt;INSTALL_ENV_IMG</title>
<path fill="none" stroke="black" d="M934,-729.33C934,-676.94 934,-556.49 934,-496.37"/>
<polygon fill="black" stroke="black" points="937.5,-496.22 934,-486.22 930.5,-496.22 937.5,-496.22"/>
</g>
<!-- ENV_TAR -->
<g id="node14" class="node">
<title>ENV_TAR</title>
<polygon fill="royalblue" stroke="black" points="1111.5,-52 1020.5,-52 1020.5,-16 1117.5,-16 1117.5,-46 1111.5,-52"/>
<polyline fill="none" stroke="black" points="1111.5,-52 1111.5,-46 "/>
<polyline fill="none" stroke="black" points="1117.5,-46 1111.5,-46 "/>
<text text-anchor="middle" x="1069" y="-30.3" font-family="Times,serif" font-size="14.00">docker_env.tar</text>
</g>
<!-- ENV_IMG&#45;&gt;ENV_TAR -->
<g id="edge14" class="edge">
<title>ENV_IMG&#45;&gt;ENV_TAR</title>
<path fill="none" stroke="red" d="M1016.68,-746.19C1073.23,-735.32 1138,-710.41 1138,-653.38 1138,-653.38 1138,-653.38 1138,-149.12 1138,-114.28 1114.15,-80.95 1094.49,-59.41"/>
<polygon fill="red" stroke="red" points="1096.91,-56.88 1087.49,-52.03 1091.83,-61.69 1096.91,-56.88"/>
<text text-anchor="middle" x="1207.5" y="-404.55" font-family="Times,serif" font-size="14.00">make save_&lt;distro&gt;_env</text>
</g>
<!-- BUILD_IMG -->
<g id="node8" class="node">
<title>BUILD_IMG</title>
<path fill="royalblue" stroke="black" d="M823.5,-584.6C823.5,-587.24 784.73,-589.38 737,-589.38 689.27,-589.38 650.5,-587.24 650.5,-584.6 650.5,-584.6 650.5,-541.65 650.5,-541.65 650.5,-539.01 689.27,-536.87 737,-536.87 784.73,-536.87 823.5,-539.01 823.5,-541.65 823.5,-541.65 823.5,-584.6 823.5,-584.6"/>
<path fill="none" stroke="black" d="M823.5,-584.6C823.5,-581.97 784.73,-579.83 737,-579.83 689.27,-579.83 650.5,-581.97 650.5,-584.6"/>
<text text-anchor="middle" x="737" y="-566.92" font-family="Times,serif" font-size="14.00">dotnet&#45;native:&lt;distro&gt;_build</text>
<text text-anchor="middle" x="737" y="-551.92" font-family="Times,serif" font-size="14.00">build</text>
</g>
<!-- DEVEL_IMG&#45;&gt;BUILD_IMG -->
<g id="edge2" class="edge">
<title>DEVEL_IMG&#45;&gt;BUILD_IMG</title>
<path fill="none" stroke="black" d="M737,-626.14C737,-617.82 737,-608.41 737,-599.47"/>
<polygon fill="black" stroke="black" points="740.5,-599.3 737,-589.3 733.5,-599.3 740.5,-599.3"/>
</g>
<!-- DEVEL_TAR -->
<g id="node15" class="node">
<title>DEVEL_TAR</title>
<polygon fill="royalblue" stroke="black" points="116.5,-52 15.5,-52 15.5,-16 122.5,-16 122.5,-46 116.5,-52"/>
<polyline fill="none" stroke="black" points="116.5,-52 116.5,-46 "/>
<polyline fill="none" stroke="black" points="122.5,-46 116.5,-46 "/>
<text text-anchor="middle" x="69" y="-30.3" font-family="Times,serif" font-size="14.00">docker_devel.tar</text>
</g>
<!-- DEVEL_IMG&#45;&gt;DEVEL_TAR -->
<g id="edge15" class="edge">
<title>DEVEL_IMG&#45;&gt;DEVEL_TAR</title>
<path fill="none" stroke="red" d="M649.2,-649.71C457.39,-644.91 18,-627.04 18,-564.12 18,-564.12 18,-564.12 18,-149.12 18,-116.51 35.58,-82.85 50.09,-60.62"/>
<polygon fill="red" stroke="red" points="53.15,-62.36 55.87,-52.12 47.36,-58.43 53.15,-62.36"/>
<text text-anchor="middle" x="92" y="-352.93" font-family="Times,serif" font-size="14.00">make save_&lt;distro&gt;_devel</text>
</g>
<!-- TEST_IMG -->
<g id="node9" class="node">
<title>TEST_IMG</title>
<path fill="royalblue" stroke="black" d="M813,-481.35C813,-483.99 776.25,-486.13 731,-486.13 685.75,-486.13 649,-483.99 649,-481.35 649,-481.35 649,-438.4 649,-438.4 649,-435.76 685.75,-433.62 731,-433.62 776.25,-433.62 813,-435.76 813,-438.4 813,-438.4 813,-481.35 813,-481.35"/>
<path fill="none" stroke="black" d="M813,-481.35C813,-478.72 776.25,-476.58 731,-476.58 685.75,-476.58 649,-478.72 649,-481.35"/>
<text text-anchor="middle" x="731" y="-463.68" font-family="Times,serif" font-size="14.00">dotnet&#45;native:&lt;distro&gt;_test</text>
<text text-anchor="middle" x="731" y="-448.68" font-family="Times,serif" font-size="14.00">test</text>
</g>
<!-- BUILD_IMG&#45;&gt;TEST_IMG -->
<g id="edge3" class="edge">
<title>BUILD_IMG&#45;&gt;TEST_IMG</title>
<path fill="none" stroke="black" d="M735.5,-536.84C734.78,-524.63 733.9,-509.79 733.11,-496.47"/>
<polygon fill="black" stroke="black" points="736.59,-495.97 732.5,-486.19 729.6,-496.38 736.59,-495.97"/>
</g>
<!-- BUILD_IMG&#45;&gt;INSTALL_ENV_IMG -->
<g id="edge5" class="edge">
<title>BUILD_IMG&#45;&gt;INSTALL_ENV_IMG</title>
<path fill="none" stroke="black" stroke-dasharray="5,2" d="M785.95,-536.97C813.2,-522.96 847.29,-505.44 875.88,-490.74"/>
<polygon fill="black" stroke="black" points="877.67,-493.76 884.96,-486.08 874.47,-487.54 877.67,-493.76"/>
<text text-anchor="middle" x="879" y="-507.8" font-family="Times,serif" font-size="14.00">copy install</text>
</g>
<!-- BUILD_TAR -->
<g id="node16" class="node">
<title>BUILD_TAR</title>
<polygon fill="royalblue" stroke="black" points="241,-52 141,-52 141,-16 247,-16 247,-46 241,-52"/>
<polyline fill="none" stroke="black" points="241,-52 241,-46 "/>
<polyline fill="none" stroke="black" points="247,-46 241,-46 "/>
<text text-anchor="middle" x="194" y="-30.3" font-family="Times,serif" font-size="14.00">docker_build.tar</text>
</g>
<!-- BUILD_IMG&#45;&gt;BUILD_TAR -->
<g id="edge16" class="edge">
<title>BUILD_IMG&#45;&gt;BUILD_TAR</title>
<path fill="none" stroke="red" d="M650.36,-554.77C497.06,-540.58 194,-506.73 194,-460.88 194,-460.88 194,-460.88 194,-149.12 194,-119.36 194,-85.24 194,-62.11"/>
<polygon fill="red" stroke="red" points="197.5,-62.01 194,-52.01 190.5,-62.02 197.5,-62.01"/>
<text text-anchor="middle" x="267.5" y="-301.3" font-family="Times,serif" font-size="14.00">make save_&lt;distro&gt;_build</text>
</g>
<!-- TEST_TAR -->
<g id="node17" class="node">
<title>TEST_TAR</title>
<polygon fill="royalblue" stroke="black" points="356.5,-52 265.5,-52 265.5,-16 362.5,-16 362.5,-46 356.5,-52"/>
<polyline fill="none" stroke="black" points="356.5,-52 356.5,-46 "/>
<polyline fill="none" stroke="black" points="362.5,-46 356.5,-46 "/>
<text text-anchor="middle" x="314" y="-30.3" font-family="Times,serif" font-size="14.00">docker_test.tar</text>
</g>
<!-- TEST_IMG&#45;&gt;TEST_TAR -->
<g id="edge17" class="edge">
<title>TEST_IMG&#45;&gt;TEST_TAR</title>
<path fill="none" stroke="red" d="M648.72,-455.27C601.63,-450.48 542.63,-439.69 495,-415.75 415.7,-375.89 390.07,-358.18 349,-279.5 311.63,-207.91 310.3,-109.33 312.21,-62.21"/>
<polygon fill="red" stroke="red" points="315.71,-62.34 312.7,-52.18 308.72,-61.99 315.71,-62.34"/>
<text text-anchor="middle" x="418" y="-249.68" font-family="Times,serif" font-size="14.00">make save_&lt;distro&gt;_test</text>
</g>
<!-- INSTALL_ENV_IMG&#45;&gt;INSTALL_DEVEL_IMG -->
<g id="edge6" class="edge">
<title>INSTALL_ENV_IMG&#45;&gt;INSTALL_DEVEL_IMG</title>
<path fill="none" stroke="black" d="M932.5,-433.59C931.78,-421.38 930.9,-406.54 930.11,-393.22"/>
<polygon fill="black" stroke="black" points="933.59,-392.72 929.5,-382.94 926.6,-393.13 933.59,-392.72"/>
</g>
<!-- INSTALL_ENV_TAR -->
<g id="node18" class="node">
<title>INSTALL_ENV_TAR</title>
<polygon fill="royalblue" stroke="black" points="511.5,-52 380.5,-52 380.5,-16 517.5,-16 517.5,-46 511.5,-52"/>
<polyline fill="none" stroke="black" points="511.5,-52 511.5,-46 "/>
<polyline fill="none" stroke="black" points="517.5,-46 511.5,-46 "/>
<text text-anchor="middle" x="449" y="-30.3" font-family="Times,serif" font-size="14.00">docker_install_env.tar</text>
</g>
<!-- INSTALL_ENV_IMG&#45;&gt;INSTALL_ENV_TAR -->
<g id="edge18" class="edge">
<title>INSTALL_ENV_IMG&#45;&gt;INSTALL_ENV_TAR</title>
<path fill="none" stroke="red" d="M831.39,-435.7C705.62,-407.11 509,-361.75 509,-357.62 509,-357.62 509,-357.62 509,-149.12 509,-115.38 488.2,-81.81 471.09,-59.9"/>
<polygon fill="red" stroke="red" points="473.78,-57.66 464.76,-52.1 468.34,-62.07 473.78,-57.66"/>
<text text-anchor="middle" x="598" y="-249.68" font-family="Times,serif" font-size="14.00">make save_&lt;distro&gt;_install_env</text>
</g>
<!-- INSTALL_BUILD_IMG -->
<g id="node12" class="node">
<title>INSTALL_BUILD_IMG</title>
<path fill="royalblue" stroke="black" d="M1034.5,-274.85C1034.5,-277.49 986.76,-279.63 928,-279.63 869.24,-279.63 821.5,-277.49 821.5,-274.85 821.5,-274.85 821.5,-231.9 821.5,-231.9 821.5,-229.26 869.24,-227.12 928,-227.12 986.76,-227.12 1034.5,-229.26 1034.5,-231.9 1034.5,-231.9 1034.5,-274.85 1034.5,-274.85"/>
<path fill="none" stroke="black" d="M1034.5,-274.85C1034.5,-272.22 986.76,-270.08 928,-270.08 869.24,-270.08 821.5,-272.22 821.5,-274.85"/>
<text text-anchor="middle" x="928" y="-257.18" font-family="Times,serif" font-size="14.00">dotnet&#45;native:&lt;distro&gt;_install_build</text>
<text text-anchor="middle" x="928" y="-242.18" font-family="Times,serif" font-size="14.00">install_build</text>
</g>
<!-- INSTALL_DEVEL_IMG&#45;&gt;INSTALL_BUILD_IMG -->
<g id="edge7" class="edge">
<title>INSTALL_DEVEL_IMG&#45;&gt;INSTALL_BUILD_IMG</title>
<path fill="none" stroke="black" d="M928,-330.34C928,-318.13 928,-303.29 928,-289.97"/>
<polygon fill="black" stroke="black" points="931.5,-289.69 928,-279.69 924.5,-289.69 931.5,-289.69"/>
</g>
<!-- INSTALL_DEVEL_TAR -->
<g id="node19" class="node">
<title>INSTALL_DEVEL_TAR</title>
<polygon fill="royalblue" stroke="black" points="676.5,-52 535.5,-52 535.5,-16 682.5,-16 682.5,-46 676.5,-52"/>
<polyline fill="none" stroke="black" points="676.5,-52 676.5,-46 "/>
<polyline fill="none" stroke="black" points="682.5,-46 676.5,-46 "/>
<text text-anchor="middle" x="609" y="-30.3" font-family="Times,serif" font-size="14.00">docker_install_devel.tar</text>
</g>
<!-- INSTALL_DEVEL_IMG&#45;&gt;INSTALL_DEVEL_TAR -->
<g id="edge19" class="edge">
<title>INSTALL_DEVEL_IMG&#45;&gt;INSTALL_DEVEL_TAR</title>
<path fill="none" stroke="red" d="M890.84,-330.29C845.66,-300.75 766.11,-252.74 691,-227.25 666.92,-219.08 594.51,-228.59 578,-209.25 542.15,-167.23 571.93,-98.3 592.85,-60.98"/>
<polygon fill="red" stroke="red" points="595.95,-62.61 597.93,-52.2 589.89,-59.1 595.95,-62.61"/>
<text text-anchor="middle" x="672" y="-198.05" font-family="Times,serif" font-size="14.00">make save_&lt;distro&gt;_install_devel</text>
</g>
<!-- INSTALL_TEST_IMG -->
<g id="node13" class="node">
<title>INSTALL_TEST_IMG</title>
<path fill="royalblue" stroke="black" d="M1036,-171.6C1036,-174.24 990.28,-176.38 934,-176.38 877.72,-176.38 832,-174.24 832,-171.6 832,-171.6 832,-128.65 832,-128.65 832,-126.01 877.72,-123.87 934,-123.87 990.28,-123.87 1036,-126.01 1036,-128.65 1036,-128.65 1036,-171.6 1036,-171.6"/>
<path fill="none" stroke="black" d="M1036,-171.6C1036,-168.97 990.28,-166.83 934,-166.83 877.72,-166.83 832,-168.97 832,-171.6"/>
<text text-anchor="middle" x="934" y="-153.93" font-family="Times,serif" font-size="14.00">dotnet&#45;native:&lt;distro&gt;_install_test</text>
<text text-anchor="middle" x="934" y="-138.93" font-family="Times,serif" font-size="14.00">install_test</text>
</g>
<!-- INSTALL_BUILD_IMG&#45;&gt;INSTALL_TEST_IMG -->
<g id="edge8" class="edge">
<title>INSTALL_BUILD_IMG&#45;&gt;INSTALL_TEST_IMG</title>
<path fill="none" stroke="black" d="M929.5,-227.09C930.22,-214.88 931.1,-200.04 931.89,-186.72"/>
<polygon fill="black" stroke="black" points="935.4,-186.63 932.5,-176.44 928.41,-186.22 935.4,-186.63"/>
</g>
<!-- INSTALL_BUILD_TAR -->
<g id="node20" class="node">
<title>INSTALL_BUILD_TAR</title>
<polygon fill="royalblue" stroke="black" points="841,-52 701,-52 701,-16 847,-16 847,-46 841,-52"/>
<polyline fill="none" stroke="black" points="841,-52 841,-46 "/>
<polyline fill="none" stroke="black" points="847,-46 841,-46 "/>
<text text-anchor="middle" x="774" y="-30.3" font-family="Times,serif" font-size="14.00">docker_install_build.tar</text>
</g>
<!-- INSTALL_BUILD_IMG&#45;&gt;INSTALL_BUILD_TAR -->
<g id="edge20" class="edge">
<title>INSTALL_BUILD_IMG&#45;&gt;INSTALL_BUILD_TAR</title>
<path fill="none" stroke="red" d="M868.94,-227.15C839.66,-215.55 803.48,-202.55 770,-194.25 740.84,-187.02 655.78,-198.87 636,-176.25 618.37,-156.09 622.69,-139.24 636,-116 636.18,-115.68 695.34,-81.02 736.13,-57.15"/>
<polygon fill="red" stroke="red" points="737.92,-60.16 744.79,-52.09 734.39,-54.12 737.92,-60.16"/>
<text text-anchor="middle" x="729.5" y="-146.43" font-family="Times,serif" font-size="14.00">make save_&lt;distro&gt;_install_build</text>
</g>
<!-- INSTALL_TEST_TAR -->
<g id="node21" class="node">
<title>INSTALL_TEST_TAR</title>
<polygon fill="royalblue" stroke="black" points="996.5,-52 865.5,-52 865.5,-16 1002.5,-16 1002.5,-46 996.5,-52"/>
<polyline fill="none" stroke="black" points="996.5,-52 996.5,-46 "/>
<polyline fill="none" stroke="black" points="1002.5,-46 996.5,-46 "/>
<text text-anchor="middle" x="934" y="-30.3" font-family="Times,serif" font-size="14.00">docker_install_test.tar</text>
</g>
<!-- INSTALL_TEST_IMG&#45;&gt;INSTALL_TEST_TAR -->
<g id="edge21" class="edge">
<title>INSTALL_TEST_IMG&#45;&gt;INSTALL_TEST_TAR</title>
<path fill="none" stroke="red" d="M934,-123.8C934,-105.57 934,-81.01 934,-62.34"/>
<polygon fill="red" stroke="red" points="937.5,-62.12 934,-52.12 930.5,-62.12 937.5,-62.12"/>
<text text-anchor="middle" x="1023" y="-94.8" font-family="Times,serif" font-size="14.00">make save_&lt;distro&gt;_install_test</text>
</g>
</g>
</svg>
