<?xml version="1.0" encoding="UTF-8" standalone="no"?>
<!DOCTYPE svg PUBLIC "-//W3C//DTD SVG 1.1//EN"
 "http://www.w3.org/Graphics/SVG/1.1/DTD/svg11.dtd">
<!-- Generated by graphviz version 2.49.3 (0)
 -->
<!-- Title: CMake Pages: 1 -->
<svg width="2305pt" height="953pt"
 viewBox="0.00 0.00 2305.00 953.00" xmlns="http://www.w3.org/2000/svg" xmlns:xlink="http://www.w3.org/1999/xlink">
<g id="graph0" class="graph" transform="scale(1 1) rotate(0) translate(4 949)">
<title>CMake</title>
<polygon fill="white" stroke="transparent" points="-4,4 -4,-949 2301,-949 2301,4 -4,4"/>
<g id="clust1" class="cluster">
<title>clusterLinux</title>
<polygon fill="none" stroke="crimson" points="8,-269 8,-779 626,-779 626,-269 8,-269"/>
<text text-anchor="middle" x="317" y="-763.8" font-family="Times,serif" font-size="14.00">Linux Host</text>
</g>
<g id="clust2" class="cluster">
<title>clusterCPP</title>
<polygon fill="none" stroke="royalblue" points="38,-495 38,-748 618,-748 618,-495 38,-495"/>
<text text-anchor="middle" x="328" y="-732.8" font-family="Times,serif" font-size="14.00">C++</text>
</g>
<g id="clust3" class="cluster">
<title>clusterCS</title>
<polygon fill="none" stroke="darkviolet" points="78,-277 78,-462 606,-462 606,-277 78,-277"/>
<text text-anchor="middle" x="342" y="-446.8" font-family="Times,serif" font-size="14.00">.Net</text>
</g>
<g id="clust4" class="cluster">
<title>clusterOsx</title>
<polygon fill="none" stroke="forestgreen" points="963,-269 963,-779 1570,-779 1570,-269 963,-269"/>
<text text-anchor="middle" x="1266.5" y="-763.8" font-family="Times,serif" font-size="14.00">macOS Host</text>
</g>
<g id="clust5" class="cluster">
<title>clusterCPP</title>
<polygon fill="none" stroke="royalblue" points="971,-495 971,-748 1541,-748 1541,-495 971,-495"/>
<text text-anchor="middle" x="1256" y="-732.8" font-family="Times,serif" font-size="14.00">C++</text>
</g>
<g id="clust6" class="cluster">
<title>clusterCS</title>
<polygon fill="none" stroke="darkviolet" points="1033,-277 1033,-462 1550,-462 1550,-277 1033,-277"/>
<text text-anchor="middle" x="1291.5" y="-446.8" font-family="Times,serif" font-size="14.00">.Net</text>
</g>
<g id="clust7" class="cluster">
<title>clusterWin</title>
<polygon fill="none" stroke="dodgerblue" points="1666,-269 1666,-779 2276,-779 2276,-269 1666,-269"/>
<text text-anchor="middle" x="1971" y="-763.8" font-family="Times,serif" font-size="14.00">Windows Host</text>
</g>
<g id="clust8" class="cluster">
<title>clusterCPP</title>
<polygon fill="none" stroke="royalblue" points="1674,-495 1674,-748 2246,-748 2246,-495 1674,-495"/>
<text text-anchor="middle" x="1960" y="-732.8" font-family="Times,serif" font-size="14.00">C++</text>
</g>
<g id="clust9" class="cluster">
<title>clusterCS</title>
<polygon fill="none" stroke="darkviolet" points="1736,-277 1736,-462 2256,-462 2256,-277 1736,-277"/>
<text text-anchor="middle" x="1996" y="-446.8" font-family="Times,serif" font-size="14.00">.Net</text>
</g>
<g id="clust10" class="cluster">
<title>clusterAny</title>
<polygon fill="none" stroke="dimgrey" points="634,-8 634,-352 955,-352 955,-8 634,-8"/>
<text text-anchor="middle" x="794.5" y="-336.8" font-family="Times,serif" font-size="14.00">Any Previous Host</text>
</g>
<!-- SWIG -->
<g id="node1" class="node">
<title>SWIG</title>
<polygon fill="white" stroke="black" points="1047,-856 999,-856 999,-820 1053,-820 1053,-850 1047,-856"/>
<polyline fill="none" stroke="black" points="1047,-856 1047,-850 "/>
<polyline fill="none" stroke="black" points="1053,-850 1047,-850 "/>
<text text-anchor="middle" x="1026" y="-834.3" font-family="Times,serif" font-size="14.00">foo.i</text>
</g>
<!-- LINUX_WRAPPER_CPP -->
<g id="node5" class="node">
<title>LINUX_WRAPPER_CPP</title>
<polygon fill="royalblue" stroke="black" points="212,-716 46,-716 46,-680 218,-680 218,-710 212,-716"/>
<polyline fill="none" stroke="black" points="212,-716 212,-710 "/>
<polyline fill="none" stroke="black" points="218,-710 212,-710 "/>
<text text-anchor="middle" x="132" y="-694.3" font-family="Times,serif" font-size="14.00">fooCSHARP_wrap.cxx</text>
</g>
<!-- SWIG&#45;&gt;LINUX_WRAPPER_CPP -->
<g id="edge9" class="edge">
<title>SWIG&#45;&gt;LINUX_WRAPPER_CPP</title>
<path fill="none" stroke="black" stroke-width="2" d="M998.72,-835.25C860.72,-826.38 245.3,-786.44 227,-779 197.64,-767.06 170.67,-742.46 153.03,-723.67"/>
<polygon fill="black" stroke="black" stroke-width="2" points="155.39,-721.05 146.06,-716.02 150.22,-725.77 155.39,-721.05"/>
<text text-anchor="middle" x="511" y="-790.8" font-family="Times,serif" font-size="14.00">swig</text>
</g>
<!-- OSX_WRAPPER_CPP -->
<g id="node13" class="node">
<title>OSX_WRAPPER_CPP</title>
<polygon fill="royalblue" stroke="black" points="1145,-716 979,-716 979,-680 1151,-680 1151,-710 1145,-716"/>
<polyline fill="none" stroke="black" points="1145,-716 1145,-710 "/>
<polyline fill="none" stroke="black" points="1151,-710 1145,-710 "/>
<text text-anchor="middle" x="1065" y="-694.3" font-family="Times,serif" font-size="14.00">fooCSHARP_wrap.cxx</text>
</g>
<!-- SWIG&#45;&gt;OSX_WRAPPER_CPP -->
<g id="edge19" class="edge">
<title>SWIG&#45;&gt;OSX_WRAPPER_CPP</title>
<path fill="none" stroke="black" stroke-width="2" d="M1030.86,-819.8C1037.49,-796.35 1049.43,-754.09 1057.29,-726.29"/>
<polygon fill="black" stroke="black" stroke-width="2" points="1060.73,-726.99 1060.08,-716.42 1053.99,-725.09 1060.73,-726.99"/>
<text text-anchor="middle" x="1056" y="-790.8" font-family="Times,serif" font-size="14.00">swig</text>
</g>
<!-- WIN_WRAPPER_CPP -->
<g id="node21" class="node">
<title>WIN_WRAPPER_CPP</title>
<polygon fill="royalblue" stroke="black" points="1848,-716 1682,-716 1682,-680 1854,-680 1854,-710 1848,-716"/>
<polyline fill="none" stroke="black" points="1848,-716 1848,-710 "/>
<polyline fill="none" stroke="black" points="1854,-710 1848,-710 "/>
<text text-anchor="middle" x="1768" y="-694.3" font-family="Times,serif" font-size="14.00">fooCSHARP_wrap.cxx</text>
</g>
<!-- SWIG&#45;&gt;WIN_WRAPPER_CPP -->
<g id="edge29" class="edge">
<title>SWIG&#45;&gt;WIN_WRAPPER_CPP</title>
<path fill="none" stroke="black" stroke-width="2" d="M1053.24,-825.35C1059.01,-823.26 1065.14,-821.33 1071,-820 1277.18,-773.08 1338.43,-824.19 1545,-779 1607.33,-765.37 1676,-738.88 1720.44,-720.13"/>
<polygon fill="black" stroke="black" stroke-width="2" points="1721.99,-723.27 1729.82,-716.13 1719.25,-716.83 1721.99,-723.27"/>
<text text-anchor="middle" x="1515" y="-790.8" font-family="Times,serif" font-size="14.00">swig</text>
</g>
<!-- DOTNET_CS -->
<g id="node27" class="node">
<title>DOTNET_CS</title>
<polygon fill="darkviolet" stroke="black" points="874,-321 818,-321 818,-285 880,-285 880,-315 874,-321"/>
<polyline fill="none" stroke="black" points="874,-321 874,-315 "/>
<polyline fill="none" stroke="black" points="880,-315 874,-315 "/>
<text text-anchor="middle" x="849" y="-299.3" font-family="Times,serif" font-size="14.00">Foo.cs</text>
</g>
<!-- SWIG&#45;&gt;DOTNET_CS -->
<g id="edge36" class="edge">
<title>SWIG&#45;&gt;DOTNET_CS</title>
<path fill="none" stroke="black" stroke-width="2" d="M998.73,-829.59C949.08,-814.24 849,-774.01 849,-699 849,-699 849,-699 849,-411 849,-383.83 849,-352.77 849,-331.14"/>
<polygon fill="black" stroke="black" stroke-width="2" points="852.5,-331.05 849,-321.05 845.5,-331.05 852.5,-331.05"/>
<text text-anchor="middle" x="866" y="-562.8" font-family="Times,serif" font-size="14.00">swig</text>
</g>
<!-- CPP -->
<g id="node2" class="node">
<title>CPP</title>
<polygon fill="royalblue" stroke="black" points="1124,-945 1056,-945 1056,-907 1130,-907 1130,-939 1124,-945"/>
<polyline fill="none" stroke="black" points="1124,-945 1124,-939 "/>
<polyline fill="none" stroke="black" points="1130,-939 1124,-939 "/>
<text text-anchor="middle" x="1093" y="-929.8" font-family="Times,serif" font-size="14.00">Foo.hpp</text>
<text text-anchor="middle" x="1093" y="-914.8" font-family="Times,serif" font-size="14.00">Foo.cpp</text>
</g>
<!-- CPP&#45;&gt;SWIG -->
<g id="edge1" class="edge">
<title>CPP&#45;&gt;SWIG</title>
<path fill="none" stroke="black" stroke-dasharray="5,2" d="M1055.85,-913.11C1044.64,-907.61 1033.57,-899.82 1027,-889 1022.97,-882.37 1021.64,-874.27 1021.6,-866.54"/>
<polygon fill="black" stroke="black" points="1025.1,-866.6 1022.23,-856.4 1018.12,-866.17 1025.1,-866.6"/>
<text text-anchor="middle" x="1053" y="-877.8" font-family="Times,serif" font-size="14.00">include</text>
</g>
<!-- LINUX_LIB -->
<g id="node4" class="node">
<title>LINUX_LIB</title>
<polygon fill="royalblue" stroke="black" points="440,-717 236,-717 236,-713 232,-713 232,-709 236,-709 236,-687 232,-687 232,-683 236,-683 236,-679 440,-679 440,-717"/>
<polyline fill="none" stroke="black" points="236,-713 240,-713 240,-709 236,-709 "/>
<polyline fill="none" stroke="black" points="236,-687 240,-687 240,-683 236,-683 "/>
<text text-anchor="middle" x="338" y="-701.8" font-family="Times,serif" font-size="14.00">libFoo.so</text>
<text text-anchor="middle" x="338" y="-686.8" font-family="Times,serif" font-size="14.00">runtimes/linux&#45;x64/native/</text>
</g>
<!-- CPP&#45;&gt;LINUX_LIB -->
<g id="edge11" class="edge">
<title>CPP&#45;&gt;LINUX_LIB</title>
<path fill="none" stroke="black" stroke-width="2" d="M1055.97,-913.9C966.71,-887.6 732.22,-821.09 532,-787 495.47,-780.78 483.68,-792.07 449,-779 416.67,-766.82 385.26,-742.66 364.15,-724.07"/>
<polygon fill="black" stroke="black" stroke-width="2" points="366.35,-721.34 356.58,-717.25 361.66,-726.54 366.35,-721.34"/>
<text text-anchor="middle" x="866" y="-834.3" font-family="Times,serif" font-size="14.00">g++, ld</text>
</g>
<!-- CPP&#45;&gt;LINUX_WRAPPER_CPP -->
<g id="edge10" class="edge">
<title>CPP&#45;&gt;LINUX_WRAPPER_CPP</title>
<path fill="none" stroke="black" stroke-dasharray="5,2" d="M1055.8,-921.32C941.62,-909.58 586.5,-869.75 299,-802 266.3,-794.29 256.41,-795.24 227,-779 200.08,-764.13 173.67,-741 155.55,-723.43"/>
<polygon fill="black" stroke="black" points="157.89,-720.82 148.32,-716.28 152.97,-725.8 157.89,-720.82"/>
<text text-anchor="middle" x="589" y="-834.3" font-family="Times,serif" font-size="14.00">include</text>
</g>
<!-- OSX_LIB -->
<g id="node12" class="node">
<title>OSX_LIB</title>
<polygon fill="royalblue" stroke="black" points="1362.5,-717 1169.5,-717 1169.5,-713 1165.5,-713 1165.5,-709 1169.5,-709 1169.5,-687 1165.5,-687 1165.5,-683 1169.5,-683 1169.5,-679 1362.5,-679 1362.5,-717"/>
<polyline fill="none" stroke="black" points="1169.5,-713 1173.5,-713 1173.5,-709 1169.5,-709 "/>
<polyline fill="none" stroke="black" points="1169.5,-687 1173.5,-687 1173.5,-683 1169.5,-683 "/>
<text text-anchor="middle" x="1266" y="-701.8" font-family="Times,serif" font-size="14.00">libFoo.dylib</text>
<text text-anchor="middle" x="1266" y="-686.8" font-family="Times,serif" font-size="14.00">runtimes/osx&#45;x64/native/</text>
</g>
<!-- CPP&#45;&gt;OSX_LIB -->
<g id="edge21" class="edge">
<title>CPP&#45;&gt;OSX_LIB</title>
<path fill="none" stroke="black" stroke-width="2" d="M1106.86,-906.89C1137.36,-867.05 1210.36,-771.69 1245.89,-725.27"/>
<polygon fill="black" stroke="black" stroke-width="2" points="1248.77,-727.27 1252.07,-717.2 1243.21,-723.01 1248.77,-727.27"/>
<text text-anchor="middle" x="1198" y="-834.3" font-family="Times,serif" font-size="14.00">g++, ld</text>
</g>
<!-- CPP&#45;&gt;OSX_WRAPPER_CPP -->
<g id="edge20" class="edge">
<title>CPP&#45;&gt;OSX_WRAPPER_CPP</title>
<path fill="none" stroke="black" stroke-dasharray="5,2" d="M1090.99,-906.68C1088.07,-880.24 1082.4,-829.83 1077,-787 1074.43,-766.6 1071.28,-743.58 1068.85,-726.2"/>
<polygon fill="black" stroke="black" points="1072.3,-725.6 1067.45,-716.19 1065.37,-726.58 1072.3,-725.6"/>
<text text-anchor="middle" x="1111" y="-834.3" font-family="Times,serif" font-size="14.00">include</text>
</g>
<!-- WIN_LIB -->
<g id="node20" class="node">
<title>WIN_LIB</title>
<polygon fill="royalblue" stroke="black" points="2067.5,-717 1872.5,-717 1872.5,-713 1868.5,-713 1868.5,-709 1872.5,-709 1872.5,-687 1868.5,-687 1868.5,-683 1872.5,-683 1872.5,-679 2067.5,-679 2067.5,-717"/>
<polyline fill="none" stroke="black" points="1872.5,-713 1876.5,-713 1876.5,-709 1872.5,-709 "/>
<polyline fill="none" stroke="black" points="1872.5,-687 1876.5,-687 1876.5,-683 1872.5,-683 "/>
<text text-anchor="middle" x="1970" y="-701.8" font-family="Times,serif" font-size="14.00">libFoo.lib</text>
<text text-anchor="middle" x="1970" y="-686.8" font-family="Times,serif" font-size="14.00">runtimes/win&#45;x64/native/</text>
</g>
<!-- CPP&#45;&gt;WIN_LIB -->
<g id="edge31" class="edge">
<title>CPP&#45;&gt;WIN_LIB</title>
<path fill="none" stroke="black" stroke-width="2" d="M1130.27,-924.38C1245.13,-921.15 1601.74,-901.25 1863,-779 1892.86,-765.03 1922.55,-741.91 1943.05,-724.11"/>
<polygon fill="black" stroke="black" stroke-width="2" points="1945.53,-726.58 1950.7,-717.34 1940.9,-721.34 1945.53,-726.58"/>
<text text-anchor="middle" x="1781" y="-834.3" font-family="Times,serif" font-size="14.00">g++, ld</text>
</g>
<!-- CPP&#45;&gt;WIN_WRAPPER_CPP -->
<g id="edge30" class="edge">
<title>CPP&#45;&gt;WIN_WRAPPER_CPP</title>
<path fill="none" stroke="black" stroke-dasharray="5,2" d="M1130.04,-916.67C1206.83,-898.97 1388.55,-854.88 1536,-802 1603.33,-777.85 1678.55,-742.92 1724.58,-720.58"/>
<polygon fill="black" stroke="black" points="1726.21,-723.68 1733.67,-716.16 1723.15,-717.39 1726.21,-723.68"/>
<text text-anchor="middle" x="1509" y="-834.3" font-family="Times,serif" font-size="14.00">include</text>
</g>
<!-- LINUX_PKG -->
<g id="node3" class="node">
<title>LINUX_PKG</title>
<polygon fill="royalblue" stroke="black" points="610,-717 462,-717 458,-713 458,-679 606,-679 610,-683 610,-717"/>
<polyline fill="none" stroke="black" points="606,-713 458,-713 "/>
<polyline fill="none" stroke="black" points="606,-713 606,-679 "/>
<polyline fill="none" stroke="black" points="606,-713 610,-717 "/>
<text text-anchor="middle" x="534" y="-701.8" font-family="Times,serif" font-size="14.00">C++ dev packages</text>
<text text-anchor="middle" x="534" y="-686.8" font-family="Times,serif" font-size="14.00">e.g. cmake, g++</text>
</g>
<!-- LINUX_RUNTIME_CSPROJ -->
<g id="node9" class="node">
<title>LINUX_RUNTIME_CSPROJ</title>
<polygon fill="darkviolet" stroke="black" points="420,-430 86,-430 86,-394 426,-394 426,-424 420,-430"/>
<polyline fill="none" stroke="black" points="420,-430 420,-424 "/>
<polyline fill="none" stroke="black" points="426,-424 420,-424 "/>
<text text-anchor="middle" x="256" y="-408.3" font-family="Times,serif" font-size="14.00">Mizux.DotnetNative.runtime.linux&#45;x64.csproj</text>
</g>
<!-- LINUX_LIB&#45;&gt;LINUX_RUNTIME_CSPROJ -->
<g id="edge5" class="edge">
<title>LINUX_LIB&#45;&gt;LINUX_RUNTIME_CSPROJ</title>
<path fill="none" stroke="black" stroke-dasharray="5,2" d="M336.64,-678.94C333.52,-643 324.23,-560.34 301,-495 293.95,-475.17 282.51,-454.41 272.93,-438.74"/>
<polygon fill="black" stroke="black" points="275.82,-436.76 267.55,-430.14 269.89,-440.48 275.82,-436.76"/>
<text text-anchor="middle" x="351" y="-562.8" font-family="Times,serif" font-size="14.00">Content</text>
</g>
<!-- LINUX_RUNTIME_NUPKG -->
<g id="node10" class="node">
<title>LINUX_RUNTIME_NUPKG</title>
<polygon fill="darkviolet" stroke="black" points="597.5,-321 594.5,-325 573.5,-325 570.5,-321 256.5,-321 256.5,-285 597.5,-285 597.5,-321"/>
<text text-anchor="middle" x="427" y="-299.3" font-family="Times,serif" font-size="14.00">Mizux.DotnetNative.runtime.linux&#45;x64.nupkg</text>
</g>
<!-- LINUX_LIB&#45;&gt;LINUX_RUNTIME_NUPKG -->
<g id="edge7" class="edge">
<title>LINUX_LIB&#45;&gt;LINUX_RUNTIME_NUPKG</title>
<path fill="none" stroke="black" stroke-dasharray="5,2" d="M374.16,-678.8C435.66,-645.54 558.66,-568.43 607,-462 619.68,-434.08 623.18,-419.05 607,-393 585.98,-359.16 547.85,-337.79 512.08,-324.51"/>
<polygon fill="black" stroke="black" points="513.16,-321.18 502.56,-321.14 510.82,-327.78 513.16,-321.18"/>
<text text-anchor="middle" x="605" y="-518.3" font-family="Times,serif" font-size="14.00">pack</text>
</g>
<!-- LINUX_WRAPPER_OBJ -->
<g id="node6" class="node">
<title>LINUX_WRAPPER_OBJ</title>
<polygon fill="royalblue" stroke="black" points="229.5,-628 50.5,-628 50.5,-592 235.5,-592 235.5,-622 229.5,-628"/>
<polyline fill="none" stroke="black" points="229.5,-628 229.5,-622 "/>
<polyline fill="none" stroke="black" points="235.5,-622 229.5,-622 "/>
<text text-anchor="middle" x="143" y="-606.3" font-family="Times,serif" font-size="14.00">fooCSHARP_wrap.cxx.o</text>
</g>
<!-- LINUX_WRAPPER_CPP&#45;&gt;LINUX_WRAPPER_OBJ -->
<g id="edge2" class="edge">
<title>LINUX_WRAPPER_CPP&#45;&gt;LINUX_WRAPPER_OBJ</title>
<path fill="none" stroke="black" stroke-width="2" d="M134.23,-679.6C135.74,-667.75 137.78,-651.82 139.51,-638.29"/>
<polygon fill="black" stroke="black" stroke-width="2" points="143.02,-638.45 140.81,-628.08 136.07,-637.56 143.02,-638.45"/>
<text text-anchor="middle" x="156" y="-649.8" font-family="Times,serif" font-size="14.00">g++</text>
</g>
<!-- LINUX_WRAPPER_LIB -->
<g id="node7" class="node">
<title>LINUX_WRAPPER_LIB</title>
<polygon fill="royalblue" stroke="black" points="292.5,-541 69.5,-541 69.5,-537 65.5,-537 65.5,-533 69.5,-533 69.5,-511 65.5,-511 65.5,-507 69.5,-507 69.5,-503 292.5,-503 292.5,-541"/>
<polyline fill="none" stroke="black" points="69.5,-537 73.5,-537 73.5,-533 69.5,-533 "/>
<polyline fill="none" stroke="black" points="69.5,-511 73.5,-511 73.5,-507 69.5,-507 "/>
<text text-anchor="middle" x="181" y="-525.8" font-family="Times,serif" font-size="14.00">mizux&#45;dotnetnative&#45;native.so</text>
<text text-anchor="middle" x="181" y="-510.8" font-family="Times,serif" font-size="14.00">runtimes/linux&#45;x64/native/</text>
</g>
<!-- LINUX_WRAPPER_OBJ&#45;&gt;LINUX_WRAPPER_LIB -->
<g id="edge3" class="edge">
<title>LINUX_WRAPPER_OBJ&#45;&gt;LINUX_WRAPPER_LIB</title>
<path fill="none" stroke="black" stroke-width="2" d="M150.69,-591.6C155.89,-579.83 162.87,-564.04 168.82,-550.57"/>
<polygon fill="black" stroke="black" stroke-width="2" points="172.09,-551.83 172.93,-541.27 165.68,-549 172.09,-551.83"/>
<text text-anchor="middle" x="172" y="-562.8" font-family="Times,serif" font-size="14.00">ld</text>
</g>
<!-- LINUX_WRAPPER_LIB&#45;&gt;LINUX_RUNTIME_CSPROJ -->
<g id="edge6" class="edge">
<title>LINUX_WRAPPER_LIB&#45;&gt;LINUX_RUNTIME_CSPROJ</title>
<path fill="none" stroke="black" stroke-dasharray="5,2" d="M193.72,-502.68C205.95,-485.06 224.55,-458.28 238.24,-438.57"/>
<polygon fill="black" stroke="black" points="241.13,-440.55 243.96,-430.34 235.38,-436.55 241.13,-440.55"/>
<text text-anchor="middle" x="246" y="-473.8" font-family="Times,serif" font-size="14.00">Content</text>
</g>
<!-- LINUX_WRAPPER_LIB&#45;&gt;LINUX_RUNTIME_NUPKG -->
<g id="edge8" class="edge">
<title>LINUX_WRAPPER_LIB&#45;&gt;LINUX_RUNTIME_NUPKG</title>
<path fill="none" stroke="black" stroke-dasharray="5,2" d="M97.39,-503C76.11,-494.24 55.7,-481.25 43,-462 26.11,-436.41 23.92,-417.01 43,-393 70.42,-358.5 167.45,-336.19 257.1,-322.53"/>
<polygon fill="black" stroke="black" points="257.78,-325.97 267.15,-321.03 256.74,-319.04 257.78,-325.97"/>
<text text-anchor="middle" x="60" y="-408.3" font-family="Times,serif" font-size="14.00">pack</text>
</g>
<!-- LINUX_WRAPPER_LIB&#45;&gt;DOTNET_CS -->
<g id="edge37" class="edge">
<title>LINUX_WRAPPER_LIB&#45;&gt;DOTNET_CS</title>
<path fill="none" stroke="black" stroke-dasharray="5,2" d="M292.75,-519.17C381.34,-514.55 506.94,-500.84 610,-462 694.87,-430.02 780.09,-363.43 822.11,-327.77"/>
<polygon fill="black" stroke="black" points="824.61,-330.23 829.92,-321.07 820.05,-324.92 824.61,-330.23"/>
<text text-anchor="middle" x="764" y="-408.3" font-family="Times,serif" font-size="14.00">PInvoke</text>
</g>
<!-- LINUX_DOTNET_PKG -->
<g id="node8" class="node">
<title>LINUX_DOTNET_PKG</title>
<polygon fill="darkviolet" stroke="black" points="598,-431 448,-431 444,-427 444,-393 594,-393 598,-397 598,-431"/>
<polyline fill="none" stroke="black" points="594,-427 444,-427 "/>
<polyline fill="none" stroke="black" points="594,-427 594,-393 "/>
<polyline fill="none" stroke="black" points="594,-427 598,-431 "/>
<text text-anchor="middle" x="521" y="-415.8" font-family="Times,serif" font-size="14.00">.Net SDK packages</text>
<text text-anchor="middle" x="521" y="-400.8" font-family="Times,serif" font-size="14.00">e.g. dotnet&#45;cli</text>
</g>
<!-- LINUX_RUNTIME_CSPROJ&#45;&gt;LINUX_RUNTIME_NUPKG -->
<g id="edge4" class="edge">
<title>LINUX_RUNTIME_CSPROJ&#45;&gt;LINUX_RUNTIME_NUPKG</title>
<path fill="none" stroke="black" stroke-width="2" d="M283.47,-393.81C312.64,-375.56 358.87,-346.63 390.95,-326.56"/>
<polygon fill="black" stroke="black" stroke-width="2" points="392.97,-329.42 399.59,-321.15 389.26,-323.49 392.97,-329.42"/>
<text text-anchor="middle" x="379.5" y="-363.8" font-family="Times,serif" font-size="14.00">dotnet pack</text>
</g>
<!-- DOTNET_CSPROJ -->
<g id="node28" class="node">
<title>DOTNET_CSPROJ</title>
<polygon fill="darkviolet" stroke="black" points="935.5,-228 732.5,-228 732.5,-192 941.5,-192 941.5,-222 935.5,-228"/>
<polyline fill="none" stroke="black" points="935.5,-228 935.5,-222 "/>
<polyline fill="none" stroke="black" points="941.5,-222 935.5,-222 "/>
<text text-anchor="middle" x="837" y="-206.3" font-family="Times,serif" font-size="14.00">Mizux.DotnetNative.csproj</text>
</g>
<!-- LINUX_RUNTIME_NUPKG&#45;&gt;DOTNET_CSPROJ -->
<g id="edge40" class="edge">
<title>LINUX_RUNTIME_NUPKG&#45;&gt;DOTNET_CSPROJ</title>
<path fill="none" stroke="black" stroke-dasharray="5,2" d="M503.64,-284.99C573.7,-269.44 677.23,-246.46 750.29,-230.25"/>
<polygon fill="black" stroke="black" points="751.39,-233.59 760.39,-228 749.87,-226.75 751.39,-233.59"/>
<text text-anchor="middle" x="733.5" y="-249.8" font-family="Times,serif" font-size="14.00">PackageReference</text>
</g>
<!-- DOTNET_NUPKG -->
<g id="node30" class="node">
<title>DOTNET_NUPKG</title>
<polygon fill="darkviolet" stroke="black" points="946.5,-52 943.5,-56 922.5,-56 919.5,-52 737.5,-52 737.5,-16 946.5,-16 946.5,-52"/>
<text text-anchor="middle" x="842" y="-30.3" font-family="Times,serif" font-size="14.00">Mizux.DotnetNative.nupkg</text>
</g>
<!-- LINUX_RUNTIME_NUPKG&#45;&gt;DOTNET_NUPKG -->
<g id="edge43" class="edge">
<title>LINUX_RUNTIME_NUPKG&#45;&gt;DOTNET_NUPKG</title>
<path fill="none" stroke="black" stroke-dasharray="5,2" d="M440.11,-284.97C470.26,-246.92 548.53,-154.33 634,-103 670.18,-81.27 714.12,-65.6 752.27,-54.82"/>
<polygon fill="black" stroke="black" points="753.64,-58.07 762.36,-52.04 751.79,-51.32 753.64,-58.07"/>
<text text-anchor="middle" x="605" y="-162.8" font-family="Times,serif" font-size="14.00">dependencies</text>
</g>
<!-- OSX_PKG -->
<g id="node11" class="node">
<title>OSX_PKG</title>
<polygon fill="royalblue" stroke="black" points="1533,-717 1385,-717 1381,-713 1381,-679 1529,-679 1533,-683 1533,-717"/>
<polyline fill="none" stroke="black" points="1529,-713 1381,-713 "/>
<polyline fill="none" stroke="black" points="1529,-713 1529,-679 "/>
<polyline fill="none" stroke="black" points="1529,-713 1533,-717 "/>
<text text-anchor="middle" x="1457" y="-701.8" font-family="Times,serif" font-size="14.00">C++ dev packages</text>
<text text-anchor="middle" x="1457" y="-686.8" font-family="Times,serif" font-size="14.00">e.g. cmake, g++</text>
</g>
<!-- OSX_RUNTIME_CSPROJ -->
<g id="node17" class="node">
<title>OSX_RUNTIME_CSPROJ</title>
<polygon fill="darkviolet" stroke="black" points="1363.5,-430 1040.5,-430 1040.5,-394 1369.5,-394 1369.5,-424 1363.5,-430"/>
<polyline fill="none" stroke="black" points="1363.5,-430 1363.5,-424 "/>
<polyline fill="none" stroke="black" points="1369.5,-424 1363.5,-424 "/>
<text text-anchor="middle" x="1205" y="-408.3" font-family="Times,serif" font-size="14.00">Mizux.DotnetNative.runtime.osx&#45;x64.csproj</text>
</g>
<!-- OSX_LIB&#45;&gt;OSX_RUNTIME_CSPROJ -->
<g id="edge15" class="edge">
<title>OSX_LIB&#45;&gt;OSX_RUNTIME_CSPROJ</title>
<path fill="none" stroke="black" stroke-dasharray="5,2" d="M1263.49,-678.74C1258.44,-643.13 1246.13,-562.02 1230,-495 1225.52,-476.36 1219.22,-455.73 1214.06,-439.82"/>
<polygon fill="black" stroke="black" points="1217.32,-438.52 1210.87,-430.11 1210.67,-440.71 1217.32,-438.52"/>
<text text-anchor="middle" x="1275" y="-562.8" font-family="Times,serif" font-size="14.00">Content</text>
</g>
<!-- OSX_RUNTIME_NUPKG -->
<g id="node18" class="node">
<title>OSX_RUNTIME_NUPKG</title>
<polygon fill="darkviolet" stroke="black" points="1369.5,-321 1366.5,-325 1345.5,-325 1342.5,-321 1040.5,-321 1040.5,-285 1369.5,-285 1369.5,-321"/>
<text text-anchor="middle" x="1205" y="-299.3" font-family="Times,serif" font-size="14.00">Mizux.DotnetNative.runtime.osx&#45;x64.nupkg</text>
</g>
<!-- OSX_LIB&#45;&gt;OSX_RUNTIME_NUPKG -->
<g id="edge17" class="edge">
<title>OSX_LIB&#45;&gt;OSX_RUNTIME_NUPKG</title>
<path fill="none" stroke="black" stroke-dasharray="5,2" d="M1307.69,-678.9C1406.76,-633.42 1641.43,-509.63 1551,-393 1525.36,-359.94 1430.66,-337 1346.8,-322.71"/>
<polygon fill="black" stroke="black" points="1347.34,-319.25 1336.9,-321.05 1346.18,-326.15 1347.34,-319.25"/>
<text text-anchor="middle" x="1574" y="-518.3" font-family="Times,serif" font-size="14.00">pack</text>
</g>
<!-- OSX_WRAPPER_OBJ -->
<g id="node14" class="node">
<title>OSX_WRAPPER_OBJ</title>
<polygon fill="royalblue" stroke="black" points="1165.5,-628 986.5,-628 986.5,-592 1171.5,-592 1171.5,-622 1165.5,-628"/>
<polyline fill="none" stroke="black" points="1165.5,-628 1165.5,-622 "/>
<polyline fill="none" stroke="black" points="1171.5,-622 1165.5,-622 "/>
<text text-anchor="middle" x="1079" y="-606.3" font-family="Times,serif" font-size="14.00">fooCSHARP_wrap.cxx.o</text>
</g>
<!-- OSX_WRAPPER_CPP&#45;&gt;OSX_WRAPPER_OBJ -->
<g id="edge12" class="edge">
<title>OSX_WRAPPER_CPP&#45;&gt;OSX_WRAPPER_OBJ</title>
<path fill="none" stroke="black" stroke-width="2" d="M1067.83,-679.6C1069.76,-667.75 1072.36,-651.82 1074.56,-638.29"/>
<polygon fill="black" stroke="black" stroke-width="2" points="1078.07,-638.52 1076.22,-628.08 1071.16,-637.39 1078.07,-638.52"/>
<text text-anchor="middle" x="1090" y="-649.8" font-family="Times,serif" font-size="14.00">g++</text>
</g>
<!-- OSX_WRAPPER_LIB -->
<g id="node15" class="node">
<title>OSX_WRAPPER_LIB</title>
<polygon fill="royalblue" stroke="black" points="1221,-541 979,-541 979,-537 975,-537 975,-533 979,-533 979,-511 975,-511 975,-507 979,-507 979,-503 1221,-503 1221,-541"/>
<polyline fill="none" stroke="black" points="979,-537 983,-537 983,-533 979,-533 "/>
<polyline fill="none" stroke="black" points="979,-511 983,-511 983,-507 979,-507 "/>
<text text-anchor="middle" x="1100" y="-525.8" font-family="Times,serif" font-size="14.00">mizux&#45;dotnetnative&#45;native.dylib</text>
<text text-anchor="middle" x="1100" y="-510.8" font-family="Times,serif" font-size="14.00">runtimes/osx&#45;x64/native/</text>
</g>
<!-- OSX_WRAPPER_OBJ&#45;&gt;OSX_WRAPPER_LIB -->
<g id="edge13" class="edge">
<title>OSX_WRAPPER_OBJ&#45;&gt;OSX_WRAPPER_LIB</title>
<path fill="none" stroke="black" stroke-width="2" d="M1083.25,-591.6C1086.07,-580.06 1089.83,-564.65 1093.08,-551.36"/>
<polygon fill="black" stroke="black" stroke-width="2" points="1096.57,-551.81 1095.54,-541.27 1089.77,-550.15 1096.57,-551.81"/>
<text text-anchor="middle" x="1097" y="-562.8" font-family="Times,serif" font-size="14.00">ld</text>
</g>
<!-- OSX_WRAPPER_LIB&#45;&gt;OSX_RUNTIME_CSPROJ -->
<g id="edge16" class="edge">
<title>OSX_WRAPPER_LIB&#45;&gt;OSX_RUNTIME_CSPROJ</title>
<path fill="none" stroke="black" stroke-dasharray="5,2" d="M1117.81,-502.68C1135.24,-484.75 1161.91,-457.32 1181.16,-437.52"/>
<polygon fill="black" stroke="black" points="1183.68,-439.95 1188.14,-430.34 1178.66,-435.07 1183.68,-439.95"/>
<text text-anchor="middle" x="1178" y="-473.8" font-family="Times,serif" font-size="14.00">Content</text>
</g>
<!-- OSX_WRAPPER_LIB&#45;&gt;OSX_RUNTIME_NUPKG -->
<g id="edge18" class="edge">
<title>OSX_WRAPPER_LIB&#45;&gt;OSX_RUNTIME_NUPKG</title>
<path fill="none" stroke="black" stroke-dasharray="5,2" d="M1046.34,-502.92C1027.64,-493.75 1008.68,-480.52 998,-462 982.68,-435.44 981.13,-418.61 998,-393 1020.81,-358.36 1060.23,-337.15 1098.59,-324.19"/>
<polygon fill="black" stroke="black" points="1099.85,-327.45 1108.3,-321.06 1097.71,-320.79 1099.85,-327.45"/>
<text text-anchor="middle" x="1015" y="-408.3" font-family="Times,serif" font-size="14.00">pack</text>
</g>
<!-- OSX_WRAPPER_LIB&#45;&gt;DOTNET_CS -->
<g id="edge38" class="edge">
<title>OSX_WRAPPER_LIB&#45;&gt;DOTNET_CS</title>
<path fill="none" stroke="black" stroke-dasharray="5,2" d="M999.8,-502.9C972.49,-494.14 944.53,-481.17 923,-462 883.63,-426.96 863.59,-366.56 854.8,-331.46"/>
<polygon fill="black" stroke="black" points="858.13,-330.36 852.42,-321.44 851.32,-331.98 858.13,-330.36"/>
<text text-anchor="middle" x="952" y="-408.3" font-family="Times,serif" font-size="14.00">PInvoke</text>
</g>
<!-- OSX_DOTNET_PKG -->
<g id="node16" class="node">
<title>OSX_DOTNET_PKG</title>
<polygon fill="darkviolet" stroke="black" points="1542,-431 1392,-431 1388,-427 1388,-393 1538,-393 1542,-397 1542,-431"/>
<polyline fill="none" stroke="black" points="1538,-427 1388,-427 "/>
<polyline fill="none" stroke="black" points="1538,-427 1538,-393 "/>
<polyline fill="none" stroke="black" points="1538,-427 1542,-431 "/>
<text text-anchor="middle" x="1465" y="-415.8" font-family="Times,serif" font-size="14.00">.Net SDK packages</text>
<text text-anchor="middle" x="1465" y="-400.8" font-family="Times,serif" font-size="14.00">e.g. dotnet&#45;cli</text>
</g>
<!-- OSX_RUNTIME_CSPROJ&#45;&gt;OSX_RUNTIME_NUPKG -->
<g id="edge14" class="edge">
<title>OSX_RUNTIME_CSPROJ&#45;&gt;OSX_RUNTIME_NUPKG</title>
<path fill="none" stroke="black" stroke-width="2" d="M1205,-393.81C1205,-376.96 1205,-351.02 1205,-331.34"/>
<polygon fill="black" stroke="black" stroke-width="2" points="1208.5,-331.15 1205,-321.15 1201.5,-331.15 1208.5,-331.15"/>
<text text-anchor="middle" x="1247.5" y="-363.8" font-family="Times,serif" font-size="14.00">dotnet pack</text>
</g>
<!-- OSX_RUNTIME_NUPKG&#45;&gt;DOTNET_CSPROJ -->
<g id="edge41" class="edge">
<title>OSX_RUNTIME_NUPKG&#45;&gt;DOTNET_CSPROJ</title>
<path fill="none" stroke="black" stroke-dasharray="5,2" d="M1075.62,-284.98C1002.06,-275.09 922.97,-263.99 915,-261 903.57,-256.71 902.26,-252.61 892,-246 885.72,-241.95 879.02,-237.67 872.54,-233.54"/>
<polygon fill="black" stroke="black" points="874.21,-230.45 863.89,-228.03 870.45,-236.35 874.21,-230.45"/>
<text text-anchor="middle" x="980.5" y="-249.8" font-family="Times,serif" font-size="14.00">PackageReference</text>
</g>
<!-- OSX_RUNTIME_NUPKG&#45;&gt;DOTNET_NUPKG -->
<g id="edge44" class="edge">
<title>OSX_RUNTIME_NUPKG&#45;&gt;DOTNET_NUPKG</title>
<path fill="none" stroke="black" stroke-dasharray="5,2" d="M1207.36,-284.79C1208.1,-272.99 1207.25,-257.47 1200,-246 1134.38,-142.17 997.69,-83.12 913.49,-55.21"/>
<polygon fill="black" stroke="black" points="914.34,-51.8 903.75,-52.04 912.17,-58.46 914.34,-51.8"/>
<text text-anchor="middle" x="1183" y="-162.8" font-family="Times,serif" font-size="14.00">dependencies</text>
</g>
<!-- WIN_PKG -->
<g id="node19" class="node">
<title>WIN_PKG</title>
<polygon fill="royalblue" stroke="black" points="2238,-717 2090,-717 2086,-713 2086,-679 2234,-679 2238,-683 2238,-717"/>
<polyline fill="none" stroke="black" points="2234,-713 2086,-713 "/>
<polyline fill="none" stroke="black" points="2234,-713 2234,-679 "/>
<polyline fill="none" stroke="black" points="2234,-713 2238,-717 "/>
<text text-anchor="middle" x="2162" y="-701.8" font-family="Times,serif" font-size="14.00">C++ dev packages</text>
<text text-anchor="middle" x="2162" y="-686.8" font-family="Times,serif" font-size="14.00">e.g. cmake, g++</text>
</g>
<!-- WIN_RUNTIME_CSPROJ -->
<g id="node25" class="node">
<title>WIN_RUNTIME_CSPROJ</title>
<polygon fill="darkviolet" stroke="black" points="2069.5,-430 1744.5,-430 1744.5,-394 2075.5,-394 2075.5,-424 2069.5,-430"/>
<polyline fill="none" stroke="black" points="2069.5,-430 2069.5,-424 "/>
<polyline fill="none" stroke="black" points="2075.5,-424 2069.5,-424 "/>
<text text-anchor="middle" x="1910" y="-408.3" font-family="Times,serif" font-size="14.00">Mizux.DotnetNative.runtime.win&#45;x64.csproj</text>
</g>
<!-- WIN_LIB&#45;&gt;WIN_RUNTIME_CSPROJ -->
<g id="edge25" class="edge">
<title>WIN_LIB&#45;&gt;WIN_RUNTIME_CSPROJ</title>
<path fill="none" stroke="black" stroke-dasharray="5,2" d="M1966.16,-678.8C1955.9,-630.28 1927.87,-497.61 1915.73,-440.14"/>
<polygon fill="black" stroke="black" points="1919.15,-439.38 1913.66,-430.32 1912.3,-440.83 1919.15,-439.38"/>
<text text-anchor="middle" x="1972" y="-562.8" font-family="Times,serif" font-size="14.00">Content</text>
</g>
<!-- WIN_RUNTIME_NUPKG -->
<g id="node26" class="node">
<title>WIN_RUNTIME_NUPKG</title>
<polygon fill="darkviolet" stroke="black" points="2076,-321 2073,-325 2052,-325 2049,-321 1744,-321 1744,-285 2076,-285 2076,-321"/>
<text text-anchor="middle" x="1910" y="-299.3" font-family="Times,serif" font-size="14.00">Mizux.DotnetNative.runtime.win&#45;x64.nupkg</text>
</g>
<!-- WIN_LIB&#45;&gt;WIN_RUNTIME_NUPKG -->
<g id="edge27" class="edge">
<title>WIN_LIB&#45;&gt;WIN_RUNTIME_NUPKG</title>
<path fill="none" stroke="black" stroke-dasharray="5,2" d="M2011.95,-678.95C2111.63,-633.57 2347.77,-509.98 2257,-393 2231.33,-359.91 2136.64,-337.01 2052.66,-322.73"/>
<polygon fill="black" stroke="black" points="2053.17,-319.27 2042.73,-321.07 2052.02,-326.17 2053.17,-319.27"/>
<text text-anchor="middle" x="2280" y="-518.3" font-family="Times,serif" font-size="14.00">pack</text>
</g>
<!-- WIN_WRAPPER_OBJ -->
<g id="node22" class="node">
<title>WIN_WRAPPER_OBJ</title>
<polygon fill="royalblue" stroke="black" points="1866.5,-628 1687.5,-628 1687.5,-592 1872.5,-592 1872.5,-622 1866.5,-628"/>
<polyline fill="none" stroke="black" points="1866.5,-628 1866.5,-622 "/>
<polyline fill="none" stroke="black" points="1872.5,-622 1866.5,-622 "/>
<text text-anchor="middle" x="1780" y="-606.3" font-family="Times,serif" font-size="14.00">fooCSHARP_wrap.cxx.o</text>
</g>
<!-- WIN_WRAPPER_CPP&#45;&gt;WIN_WRAPPER_OBJ -->
<g id="edge22" class="edge">
<title>WIN_WRAPPER_CPP&#45;&gt;WIN_WRAPPER_OBJ</title>
<path fill="none" stroke="black" stroke-width="2" d="M1770.43,-679.6C1772.08,-667.75 1774.3,-651.82 1776.19,-638.29"/>
<polygon fill="black" stroke="black" stroke-width="2" points="1779.7,-638.47 1777.62,-628.08 1772.77,-637.5 1779.7,-638.47"/>
<text text-anchor="middle" x="1792" y="-649.8" font-family="Times,serif" font-size="14.00">g++</text>
</g>
<!-- WIN_WRAPPER_LIB -->
<g id="node23" class="node">
<title>WIN_WRAPPER_LIB</title>
<polygon fill="royalblue" stroke="black" points="1907.5,-541 1682.5,-541 1682.5,-537 1678.5,-537 1678.5,-533 1682.5,-533 1682.5,-511 1678.5,-511 1678.5,-507 1682.5,-507 1682.5,-503 1907.5,-503 1907.5,-541"/>
<polyline fill="none" stroke="black" points="1682.5,-537 1686.5,-537 1686.5,-533 1682.5,-533 "/>
<polyline fill="none" stroke="black" points="1682.5,-511 1686.5,-511 1686.5,-507 1682.5,-507 "/>
<text text-anchor="middle" x="1795" y="-525.8" font-family="Times,serif" font-size="14.00">mizux&#45;dotnetnative&#45;native.dll</text>
<text text-anchor="middle" x="1795" y="-510.8" font-family="Times,serif" font-size="14.00">runtimes/win&#45;x64/native/</text>
</g>
<!-- WIN_WRAPPER_OBJ&#45;&gt;WIN_WRAPPER_LIB -->
<g id="edge23" class="edge">
<title>WIN_WRAPPER_OBJ&#45;&gt;WIN_WRAPPER_LIB</title>
<path fill="none" stroke="black" stroke-width="2" d="M1783.04,-591.6C1785.05,-580.06 1787.74,-564.65 1790.05,-551.36"/>
<polygon fill="black" stroke="black" stroke-width="2" points="1793.54,-551.72 1791.81,-541.27 1786.65,-550.52 1793.54,-551.72"/>
<text text-anchor="middle" x="1795" y="-562.8" font-family="Times,serif" font-size="14.00">ld</text>
</g>
<!-- WIN_WRAPPER_LIB&#45;&gt;WIN_RUNTIME_CSPROJ -->
<g id="edge26" class="edge">
<title>WIN_WRAPPER_LIB&#45;&gt;WIN_RUNTIME_CSPROJ</title>
<path fill="none" stroke="black" stroke-dasharray="5,2" d="M1814.25,-502.92C1833.5,-484.85 1863.21,-456.94 1884.43,-437.01"/>
<polygon fill="black" stroke="black" points="1886.94,-439.46 1891.83,-430.07 1882.14,-434.36 1886.94,-439.46"/>
<text text-anchor="middle" x="1878" y="-473.8" font-family="Times,serif" font-size="14.00">Content</text>
</g>
<!-- WIN_WRAPPER_LIB&#45;&gt;WIN_RUNTIME_NUPKG -->
<g id="edge28" class="edge">
<title>WIN_WRAPPER_LIB&#45;&gt;WIN_RUNTIME_NUPKG</title>
<path fill="none" stroke="black" stroke-dasharray="5,2" d="M1747.67,-502.79C1730.06,-493.42 1711.95,-480.1 1702,-462 1687.22,-435.13 1685.11,-418.6 1702,-393 1724.88,-358.32 1764.37,-337.1 1802.83,-324.15"/>
<polygon fill="black" stroke="black" points="1804.12,-327.41 1812.58,-321.03 1801.99,-320.74 1804.12,-327.41"/>
<text text-anchor="middle" x="1719" y="-408.3" font-family="Times,serif" font-size="14.00">pack</text>
</g>
<!-- WIN_WRAPPER_LIB&#45;&gt;DOTNET_CS -->
<g id="edge39" class="edge">
<title>WIN_WRAPPER_LIB&#45;&gt;DOTNET_CS</title>
<path fill="none" stroke="black" stroke-dasharray="5,2" d="M1713.27,-502.87C1684.44,-493.81 1653.01,-480.67 1628,-462 1583.12,-428.49 1603.7,-385.82 1554,-360 1528.12,-346.55 1057.89,-356.01 1029,-352 980.25,-345.23 925.84,-329.55 889.74,-317.94"/>
<polygon fill="black" stroke="black" points="890.65,-314.56 880.06,-314.78 888.48,-321.21 890.65,-314.56"/>
<text text-anchor="middle" x="1657" y="-408.3" font-family="Times,serif" font-size="14.00">PInvoke</text>
</g>
<!-- WIN_DOTNET_PKG -->
<g id="node24" class="node">
<title>WIN_DOTNET_PKG</title>
<polygon fill="darkviolet" stroke="black" points="2248,-431 2098,-431 2094,-427 2094,-393 2244,-393 2248,-397 2248,-431"/>
<polyline fill="none" stroke="black" points="2244,-427 2094,-427 "/>
<polyline fill="none" stroke="black" points="2244,-427 2244,-393 "/>
<polyline fill="none" stroke="black" points="2244,-427 2248,-431 "/>
<text text-anchor="middle" x="2171" y="-415.8" font-family="Times,serif" font-size="14.00">.Net SDK packages</text>
<text text-anchor="middle" x="2171" y="-400.8" font-family="Times,serif" font-size="14.00">e.g. dotnet&#45;cli</text>
</g>
<!-- WIN_RUNTIME_CSPROJ&#45;&gt;WIN_RUNTIME_NUPKG -->
<g id="edge24" class="edge">
<title>WIN_RUNTIME_CSPROJ&#45;&gt;WIN_RUNTIME_NUPKG</title>
<path fill="none" stroke="black" stroke-width="2" d="M1910,-393.81C1910,-376.96 1910,-351.02 1910,-331.34"/>
<polygon fill="black" stroke="black" stroke-width="2" points="1913.5,-331.15 1910,-321.15 1906.5,-331.15 1913.5,-331.15"/>
<text text-anchor="middle" x="1952.5" y="-363.8" font-family="Times,serif" font-size="14.00">dotnet pack</text>
</g>
<!-- WIN_RUNTIME_NUPKG&#45;&gt;DOTNET_CSPROJ -->
<g id="edge42" class="edge">
<title>WIN_RUNTIME_NUPKG&#45;&gt;DOTNET_CSPROJ</title>
<path fill="none" stroke="black" stroke-dasharray="5,2" d="M1743.86,-286.19C1684.03,-280.61 1615.99,-274.38 1554,-269 1341.37,-250.55 1093.1,-230.88 951.53,-219.85"/>
<polygon fill="black" stroke="black" points="951.77,-216.36 941.53,-219.07 951.22,-223.34 951.77,-216.36"/>
<text text-anchor="middle" x="1521.5" y="-249.8" font-family="Times,serif" font-size="14.00">PackageReference</text>
</g>
<!-- WIN_RUNTIME_NUPKG&#45;&gt;DOTNET_NUPKG -->
<g id="edge45" class="edge">
<title>WIN_RUNTIME_NUPKG&#45;&gt;DOTNET_NUPKG</title>
<path fill="none" stroke="black" stroke-dasharray="5,2" d="M1842.72,-284.98C1690.19,-246.44 1306.41,-149.64 985,-70 964.53,-64.93 942.41,-59.49 921.81,-54.45"/>
<polygon fill="black" stroke="black" points="922.39,-50.99 911.84,-52.01 920.73,-57.79 922.39,-50.99"/>
<text text-anchor="middle" x="1443" y="-162.8" font-family="Times,serif" font-size="14.00">dependencies</text>
</g>
<!-- DOTNET_CS&#45;&gt;DOTNET_CSPROJ -->
<g id="edge32" class="edge">
<title>DOTNET_CS&#45;&gt;DOTNET_CSPROJ</title>
<path fill="none" stroke="black" stroke-dasharray="5,2" d="M840.67,-284.87C837.61,-277.67 834.53,-269.11 833,-261 831.62,-253.67 831.61,-245.65 832.21,-238.22"/>
<polygon fill="black" stroke="black" points="835.69,-238.58 833.38,-228.24 828.74,-237.77 835.69,-238.58"/>
<text text-anchor="middle" x="862.5" y="-249.8" font-family="Times,serif" font-size="14.00">Compile</text>
</g>
<!-- DOTNET_DLL -->
<g id="node29" class="node">
<title>DOTNET_DLL</title>
<polygon fill="darkviolet" stroke="black" points="825.5,-141 642.5,-141 642.5,-137 638.5,-137 638.5,-133 642.5,-133 642.5,-111 638.5,-111 638.5,-107 642.5,-107 642.5,-103 825.5,-103 825.5,-141"/>
<polyline fill="none" stroke="black" points="642.5,-137 646.5,-137 646.5,-133 642.5,-133 "/>
<polyline fill="none" stroke="black" points="642.5,-111 646.5,-111 646.5,-107 642.5,-107 "/>
<text text-anchor="middle" x="734" y="-125.8" font-family="Times,serif" font-size="14.00">Mizux.DotnetNative.dll</text>
<text text-anchor="middle" x="734" y="-110.8" font-family="Times,serif" font-size="14.00">lib/netstandard2.1/</text>
</g>
<!-- DOTNET_CSPROJ&#45;&gt;DOTNET_DLL -->
<g id="edge33" class="edge">
<title>DOTNET_CSPROJ&#45;&gt;DOTNET_DLL</title>
<path fill="none" stroke="black" stroke-width="2" d="M795.72,-191.89C786.36,-186.92 776.87,-180.93 769,-174 761.23,-167.15 754.34,-158.22 748.78,-149.75"/>
<polygon fill="black" stroke="black" stroke-width="2" points="751.72,-147.85 743.48,-141.19 745.77,-151.54 751.72,-147.85"/>
<text text-anchor="middle" x="813" y="-162.8" font-family="Times,serif" font-size="14.00">dotnet build</text>
</g>
<!-- DOTNET_CSPROJ&#45;&gt;DOTNET_NUPKG -->
<g id="edge35" class="edge">
<title>DOTNET_CSPROJ&#45;&gt;DOTNET_NUPKG</title>
<path fill="none" stroke="black" stroke-width="2" d="M849.07,-191.97C852.3,-186.49 855.35,-180.22 857,-174 867.1,-135.97 858.39,-90.38 850.65,-62.04"/>
<polygon fill="black" stroke="black" stroke-width="2" points="854.01,-61.06 847.88,-52.43 847.29,-63 854.01,-61.06"/>
<text text-anchor="middle" x="903.5" y="-118.3" font-family="Times,serif" font-size="14.00">dotnet pack</text>
</g>
<!-- DOTNET_DLL&#45;&gt;DOTNET_NUPKG -->
<g id="edge34" class="edge">
<title>DOTNET_DLL&#45;&gt;DOTNET_NUPKG</title>
<path fill="none" stroke="black" stroke-dasharray="5,2" d="M756.64,-102.97C772.8,-90.1 794.69,-72.67 812.26,-58.68"/>
<polygon fill="black" stroke="black" points="814.85,-61.09 820.49,-52.13 810.49,-55.62 814.85,-61.09"/>
<text text-anchor="middle" x="814" y="-73.8" font-family="Times,serif" font-size="14.00">pack</text>
</g>
</g>
</svg>
