<?xml version="1.0" encoding="UTF-8" standalone="no"?>
<!DOCTYPE svg PUBLIC "-//W3C//DTD SVG 1.1//EN"
 "http://www.w3.org/Graphics/SVG/1.1/DTD/svg11.dtd">
<!-- Generated by graphviz version 2.49.3 (0)
 -->
<!-- Title: Legend Pages: 1 -->
<svg width="967pt" height="477pt"
 viewBox="0.00 0.00 967.00 477.00" xmlns="http://www.w3.org/2000/svg" xmlns:xlink="http://www.w3.org/1999/xlink">
<g id="graph0" class="graph" transform="scale(1 1) rotate(0) translate(4 473)">
<title>Legend</title>
<polygon fill="white" stroke="transparent" points="-4,4 -4,-473 963,-473 963,4 -4,4"/>
<g id="clust1" class="cluster">
<title>clusterLegend</title>
<polygon fill="white" stroke="black" points="8,-8 8,-461 951,-461 951,-8 8,-8"/>
<text text-anchor="middle" x="479.5" y="-445.8" font-family="Times,serif" font-size="14.00">Legend</text>
</g>
<!-- CPP -->
<g id="node1" class="node">
<title>CPP</title>
<polygon fill="royalblue" stroke="black" points="150.5,-430 84.5,-430 84.5,-394 156.5,-394 156.5,-424 150.5,-430"/>
<polyline fill="none" stroke="black" points="150.5,-430 150.5,-424 "/>
<polyline fill="none" stroke="black" points="156.5,-424 150.5,-424 "/>
<text text-anchor="middle" x="120.5" y="-408.3" font-family="Times,serif" font-size="14.00">Foo.cpp</text>
</g>
<!-- CPP_LGD -->
<g id="node2" class="node">
<title>CPP_LGD</title>
<polygon fill="white" stroke="transparent" points="491.5,-430 352.5,-430 352.5,-394 491.5,-394 491.5,-430"/>
<text text-anchor="middle" x="422" y="-408.3" font-family="Times,serif" font-size="14.00">: C++ source file</text>
</g>
<!-- CPP&#45;&gt;CPP_LGD -->
<g id="edge1" class="edge">
<title>CPP&#45;&gt;CPP_LGD</title>
</g>
<!-- LIB -->
<g id="node3" class="node">
<title>LIB</title>
<polygon fill="royalblue" stroke="black" points="151.5,-376 89.5,-376 89.5,-372 85.5,-372 85.5,-368 89.5,-368 89.5,-348 85.5,-348 85.5,-344 89.5,-344 89.5,-340 151.5,-340 151.5,-376"/>
<polyline fill="none" stroke="black" points="89.5,-372 93.5,-372 93.5,-368 89.5,-368 "/>
<polyline fill="none" stroke="black" points="89.5,-348 93.5,-348 93.5,-344 89.5,-344 "/>
<text text-anchor="middle" x="120.5" y="-354.3" font-family="Times,serif" font-size="14.00">Foo.so</text>
</g>
<!-- LIB_LGD -->
<g id="node4" class="node">
<title>LIB_LGD</title>
<polygon fill="white" stroke="transparent" points="530,-376 314,-376 314,-340 530,-340 530,-376"/>
<text text-anchor="middle" x="422" y="-354.3" font-family="Times,serif" font-size="14.00">: Shared library (i.e. binary)</text>
</g>
<!-- LIB&#45;&gt;LIB_LGD -->
<g id="edge2" class="edge">
<title>LIB&#45;&gt;LIB_LGD</title>
</g>
<!-- CS -->
<g id="node5" class="node">
<title>CS</title>
<polygon fill="darkviolet" stroke="black" points="145.5,-322 89.5,-322 89.5,-286 151.5,-286 151.5,-316 145.5,-322"/>
<polyline fill="none" stroke="black" points="145.5,-322 145.5,-316 "/>
<polyline fill="none" stroke="black" points="151.5,-316 145.5,-316 "/>
<text text-anchor="middle" x="120.5" y="-300.3" font-family="Times,serif" font-size="14.00">Foo.cs</text>
</g>
<!-- CS_LGD -->
<g id="node6" class="node">
<title>CS_LGD</title>
<polygon fill="white" stroke="transparent" points="485.5,-322 358.5,-322 358.5,-286 485.5,-286 485.5,-322"/>
<text text-anchor="middle" x="422" y="-300.3" font-family="Times,serif" font-size="14.00">: C# source file</text>
</g>
<!-- CS&#45;&gt;CS_LGD -->
<g id="edge3" class="edge">
<title>CS&#45;&gt;CS_LGD</title>
</g>
<!-- DLL -->
<g id="node7" class="node">
<title>DLL</title>
<polygon fill="darkviolet" stroke="black" points="153,-268 88,-268 88,-264 84,-264 84,-260 88,-260 88,-240 84,-240 84,-236 88,-236 88,-232 153,-232 153,-268"/>
<polyline fill="none" stroke="black" points="88,-264 92,-264 92,-260 88,-260 "/>
<polyline fill="none" stroke="black" points="88,-240 92,-240 92,-236 88,-236 "/>
<text text-anchor="middle" x="120.5" y="-246.3" font-family="Times,serif" font-size="14.00">Foo.dll</text>
</g>
<!-- DLL_LGD -->
<g id="node8" class="node">
<title>DLL_LGD</title>
<polygon fill="white" stroke="transparent" points="538.5,-268 305.5,-268 305.5,-232 538.5,-232 538.5,-268"/>
<text text-anchor="middle" x="422" y="-246.3" font-family="Times,serif" font-size="14.00">: Assembly output (i.e. binary)</text>
</g>
<!-- DLL&#45;&gt;DLL_LGD -->
<g id="edge4" class="edge">
<title>DLL&#45;&gt;DLL_LGD</title>
</g>
<!-- NUPKG -->
<g id="node9" class="node">
<title>NUPKG</title>
<polygon fill="darkviolet" stroke="black" points="225,-214 222,-218 201,-218 198,-214 16,-214 16,-178 225,-178 225,-214"/>
<text text-anchor="middle" x="120.5" y="-192.3" font-family="Times,serif" font-size="14.00">Mizux.DotnetNative.nupkg</text>
</g>
<!-- NUPKG_LGD -->
<g id="node10" class="node">
<title>NUPKG_LGD</title>
<polygon fill="white" stroke="transparent" points="549,-214 295,-214 295,-178 549,-178 549,-214"/>
<text text-anchor="middle" x="422" y="-192.3" font-family="Times,serif" font-size="14.00">: Nuget package file (i.e. archive)</text>
</g>
<!-- NUPKG&#45;&gt;NUPKG_LGD -->
<g id="edge5" class="edge">
<title>NUPKG&#45;&gt;NUPKG_LGD</title>
</g>
<!-- A -->
<g id="node11" class="node">
<title>A</title>
<polygon fill="white" stroke="black" points="141.5,-160 93.5,-160 93.5,-124 147.5,-124 147.5,-154 141.5,-160"/>
<polyline fill="none" stroke="black" points="141.5,-160 141.5,-154 "/>
<polyline fill="none" stroke="black" points="147.5,-154 141.5,-154 "/>
<text text-anchor="middle" x="120.5" y="-138.3" font-family="Times,serif" font-size="14.00">A</text>
</g>
<!-- B -->
<g id="node12" class="node">
<title>B</title>
<polygon fill="white" stroke="black" points="443,-160 395,-160 395,-124 449,-124 449,-154 443,-160"/>
<polyline fill="none" stroke="black" points="443,-160 443,-154 "/>
<polyline fill="none" stroke="black" points="449,-154 443,-154 "/>
<text text-anchor="middle" x="422" y="-138.3" font-family="Times,serif" font-size="14.00">B</text>
</g>
<!-- A&#45;&gt;B -->
<g id="edge6" class="edge">
<title>A&#45;&gt;B</title>
<path fill="none" stroke="black" stroke-width="2" d="M147.55,-142C200.99,-142 323.1,-142 384.43,-142"/>
<polygon fill="black" stroke="black" stroke-width="2" points="384.79,-145.5 394.79,-142 384.79,-138.5 384.79,-145.5"/>
<text text-anchor="middle" x="260" y="-145.8" font-family="Times,serif" font-size="14.00">cmd</text>
</g>
<!-- CMD_LGD -->
<g id="node13" class="node">
<title>CMD_LGD</title>
<polygon fill="white" stroke="transparent" points="916,-162 613,-162 613,-126 916,-126 916,-162"/>
<text text-anchor="middle" x="764.5" y="-140.3" font-family="Times,serif" font-size="14.00">: &#39;cmd [...] A&#39; will generate file B from A.</text>
</g>
<!-- B&#45;&gt;CMD_LGD -->
<g id="edge7" class="edge">
<title>B&#45;&gt;CMD_LGD</title>
</g>
<!-- C -->
<g id="node14" class="node">
<title>C</title>
<polygon fill="white" stroke="black" points="141.5,-106 93.5,-106 93.5,-70 147.5,-70 147.5,-100 141.5,-106"/>
<polyline fill="none" stroke="black" points="141.5,-106 141.5,-100 "/>
<polyline fill="none" stroke="black" points="147.5,-100 141.5,-100 "/>
<text text-anchor="middle" x="120.5" y="-84.3" font-family="Times,serif" font-size="14.00">A</text>
</g>
<!-- D -->
<g id="node15" class="node">
<title>D</title>
<polygon fill="white" stroke="black" points="443,-106 395,-106 395,-70 449,-70 449,-100 443,-106"/>
<polyline fill="none" stroke="black" points="443,-106 443,-100 "/>
<polyline fill="none" stroke="black" points="449,-100 443,-100 "/>
<text text-anchor="middle" x="422" y="-84.3" font-family="Times,serif" font-size="14.00">B</text>
</g>
<!-- C&#45;&gt;D -->
<g id="edge8" class="edge">
<title>C&#45;&gt;D</title>
<path fill="none" stroke="black" stroke-dasharray="5,2" d="M147.55,-88C200.99,-88 323.1,-88 384.43,-88"/>
<polygon fill="black" stroke="black" points="384.79,-91.5 394.79,-88 384.79,-84.5 384.79,-91.5"/>
<text text-anchor="middle" x="260" y="-91.8" font-family="Times,serif" font-size="14.00">ref</text>
</g>
<!-- REF_LGD -->
<g id="node16" class="node">
<title>REF_LGD</title>
<polygon fill="white" stroke="transparent" points="919.5,-108 609.5,-108 609.5,-70 919.5,-70 919.5,-108"/>
<text text-anchor="middle" x="764.5" y="-92.8" font-family="Times,serif" font-size="14.00">: B references file A (i.e. B depends on A)</text>
<text text-anchor="middle" x="764.5" y="-77.8" font-family="Times,serif" font-size="14.00">&#39;ref&#39; may refer to the keyword use in B.</text>
</g>
<!-- D&#45;&gt;REF_LGD -->
<g id="edge9" class="edge">
<title>D&#45;&gt;REF_LGD</title>
</g>
<!-- E -->
<g id="node17" class="node">
<title>E</title>
<polygon fill="white" stroke="black" points="141.5,-52 93.5,-52 93.5,-16 147.5,-16 147.5,-46 141.5,-52"/>
<polyline fill="none" stroke="black" points="141.5,-52 141.5,-46 "/>
<polyline fill="none" stroke="black" points="147.5,-46 141.5,-46 "/>
<text text-anchor="middle" x="120.5" y="-30.3" font-family="Times,serif" font-size="14.00">E</text>
</g>
<!-- F -->
<g id="node18" class="node">
<title>F</title>
<polygon fill="white" stroke="black" points="449,-52 446,-56 425,-56 422,-52 395,-52 395,-16 449,-16 449,-52"/>
<text text-anchor="middle" x="422" y="-30.3" font-family="Times,serif" font-size="14.00">F</text>
</g>
<!-- E&#45;&gt;F -->
<g id="edge10" class="edge">
<title>E&#45;&gt;F</title>
<path fill="none" stroke="black" stroke-dasharray="5,2" d="M147.55,-34C200.99,-34 323.1,-34 384.43,-34"/>
<polygon fill="black" stroke="black" points="384.79,-37.5 394.79,-34 384.79,-30.5 384.79,-37.5"/>
<text text-anchor="middle" x="260" y="-37.8" font-family="Times,serif" font-size="14.00">pack</text>
</g>
<!-- FOLDER_LGD -->
<g id="node19" class="node">
<title>FOLDER_LGD</title>
<polygon fill="white" stroke="transparent" points="943,-52 586,-52 586,-16 943,-16 943,-52"/>
<text text-anchor="middle" x="764.5" y="-30.3" font-family="Times,serif" font-size="14.00">: Archive F contains file E (i.e. F depends on E).</text>
</g>
<!-- F&#45;&gt;FOLDER_LGD -->
<g id="edge11" class="edge">
<title>F&#45;&gt;FOLDER_LGD</title>
</g>
</g>
</svg>
