<?xml version="1.0" encoding="UTF-8" standalone="no"?>
<!DOCTYPE svg PUBLIC "-//W3C//DTD SVG 1.1//EN"
 "http://www.w3.org/Graphics/SVG/1.1/DTD/svg11.dtd">
<!-- Generated by graphviz version 2.49.3 (0)
 -->
<!-- Title: CMake Pages: 1 -->
<svg width="763pt" height="865pt"
 viewBox="0.00 0.00 763.00 865.00" xmlns="http://www.w3.org/2000/svg" xmlns:xlink="http://www.w3.org/1999/xlink">
<g id="graph0" class="graph" transform="scale(1 1) rotate(0) translate(4 861)">
<title>CMake</title>
<polygon fill="white" stroke="transparent" points="-4,4 -4,-861 759,-861 759,4 -4,4"/>
<g id="clust1" class="cluster">
<title>clusterLinux</title>
<polygon fill="none" stroke="black" points="8,-8 8,-849 740,-849 740,-8 8,-8"/>
<text text-anchor="middle" x="374" y="-833.8" font-family="Times,serif" font-size="14.00">Host</text>
</g>
<g id="clust2" class="cluster">
<title>clusterCPP</title>
<polygon fill="none" stroke="royalblue" points="187,-476 187,-818 597,-818 597,-476 187,-476"/>
<text text-anchor="middle" x="392" y="-802.8" font-family="Times,serif" font-size="14.00">C++</text>
</g>
<g id="clust3" class="cluster">
<title>clusterCS</title>
<polygon fill="none" stroke="darkviolet" points="28,-16 28,-443 556,-443 556,-16 28,-16"/>
<text text-anchor="middle" x="292" y="-427.8" font-family="Times,serif" font-size="14.00">.Net</text>
</g>
<!-- SWIG -->
<g id="node1" class="node">
<title>SWIG</title>
<polygon fill="white" stroke="black" points="689,-697 641,-697 641,-661 695,-661 695,-691 689,-697"/>
<polyline fill="none" stroke="black" points="689,-697 689,-691 "/>
<polyline fill="none" stroke="black" points="695,-691 689,-691 "/>
<text text-anchor="middle" x="668" y="-675.3" font-family="Times,serif" font-size="14.00">foo.i</text>
</g>
<!-- WRAPPER_CPP -->
<g id="node5" class="node">
<title>WRAPPER_CPP</title>
<polygon fill="royalblue" stroke="black" points="583,-697 417,-697 417,-661 589,-661 589,-691 583,-697"/>
<polyline fill="none" stroke="black" points="583,-697 583,-691 "/>
<polyline fill="none" stroke="black" points="589,-691 583,-691 "/>
<text text-anchor="middle" x="503" y="-675.3" font-family="Times,serif" font-size="14.00">fooCSHARP_wrap.cxx</text>
</g>
<!-- SWIG&#45;&gt;WRAPPER_CPP -->
<g id="edge13" class="edge">
<title>SWIG&#45;&gt;WRAPPER_CPP</title>
<path fill="none" stroke="black" stroke-width="2" d="M640.85,-679C629.1,-679 614.58,-679 599.41,-679"/>
<polygon fill="black" stroke="black" stroke-width="2" points="599.37,-675.5 589.37,-679 599.37,-682.5 599.37,-675.5"/>
<text text-anchor="middle" x="615" y="-685.8" font-family="Times,serif" font-size="14.00">swig</text>
</g>
<!-- DOTNET_CS -->
<g id="node11" class="node">
<title>DOTNET_CS</title>
<polygon fill="darkviolet" stroke="black" points="542,-323 486,-323 486,-287 548,-287 548,-317 542,-323"/>
<polyline fill="none" stroke="black" points="542,-323 542,-317 "/>
<polyline fill="none" stroke="black" points="548,-317 542,-317 "/>
<text text-anchor="middle" x="517" y="-301.3" font-family="Times,serif" font-size="14.00">Foo.cs</text>
</g>
<!-- SWIG&#45;&gt;DOTNET_CS -->
<g id="edge14" class="edge">
<title>SWIG&#45;&gt;DOTNET_CS</title>
<path fill="none" stroke="black" stroke-width="2" d="M676.22,-660.97C698.75,-611.54 755.81,-465.77 693,-374 662.98,-330.14 600.32,-314.56 558.44,-309.03"/>
<polygon fill="black" stroke="black" stroke-width="2" points="558.62,-305.53 548.28,-307.83 557.8,-312.48 558.62,-305.53"/>
<text text-anchor="middle" x="738" y="-499.3" font-family="Times,serif" font-size="14.00">swig</text>
</g>
<!-- PKG -->
<g id="node2" class="node">
<title>PKG</title>
<polygon fill="royalblue" stroke="black" points="589,-787 441,-787 437,-783 437,-749 585,-749 589,-753 589,-787"/>
<polyline fill="none" stroke="black" points="585,-783 437,-783 "/>
<polyline fill="none" stroke="black" points="585,-783 585,-749 "/>
<polyline fill="none" stroke="black" points="585,-783 589,-787 "/>
<text text-anchor="middle" x="513" y="-771.8" font-family="Times,serif" font-size="14.00">C++ dev packages</text>
<text text-anchor="middle" x="513" y="-756.8" font-family="Times,serif" font-size="14.00">e.g. cmake, g++</text>
</g>
<!-- CPP -->
<g id="node3" class="node">
<title>CPP</title>
<polygon fill="royalblue" stroke="black" points="413,-786 285,-786 285,-750 419,-750 419,-780 413,-786"/>
<polyline fill="none" stroke="black" points="413,-786 413,-780 "/>
<polyline fill="none" stroke="black" points="419,-780 413,-780 "/>
<text text-anchor="middle" x="352" y="-764.3" font-family="Times,serif" font-size="14.00">Foo.hpp/Foo.cpp</text>
</g>
<!-- CPP&#45;&gt;SWIG -->
<g id="edge12" class="edge">
<title>CPP&#45;&gt;SWIG</title>
<path fill="none" stroke="black" stroke-dasharray="5,2" d="M414.05,-749.92C478.73,-732.11 577.92,-704.8 631.17,-690.14"/>
<polygon fill="black" stroke="black" points="632.16,-693.5 640.87,-687.47 630.3,-686.75 632.16,-693.5"/>
<text text-anchor="middle" x="554" y="-719.8" font-family="Times,serif" font-size="14.00">include</text>
</g>
<!-- LIB -->
<g id="node4" class="node">
<title>LIB</title>
<polygon fill="royalblue" stroke="black" points="399,-698 195,-698 195,-694 191,-694 191,-690 195,-690 195,-668 191,-668 191,-664 195,-664 195,-660 399,-660 399,-698"/>
<polyline fill="none" stroke="black" points="195,-694 199,-694 199,-690 195,-690 "/>
<polyline fill="none" stroke="black" points="195,-668 199,-668 199,-664 195,-664 "/>
<text text-anchor="middle" x="297" y="-682.8" font-family="Times,serif" font-size="14.00">libFoo.so</text>
<text text-anchor="middle" x="297" y="-667.8" font-family="Times,serif" font-size="14.00">runtimes/linux&#45;x64/native/</text>
</g>
<!-- CPP&#45;&gt;LIB -->
<g id="edge2" class="edge">
<title>CPP&#45;&gt;LIB</title>
<path fill="none" stroke="black" stroke-width="2" d="M341.13,-749.81C333.38,-737.54 322.8,-720.8 313.94,-706.79"/>
<polygon fill="black" stroke="black" stroke-width="2" points="316.71,-704.63 308.41,-698.05 310.8,-708.37 316.71,-704.63"/>
<text text-anchor="middle" x="355" y="-719.8" font-family="Times,serif" font-size="14.00">g++, ld</text>
</g>
<!-- CPP&#45;&gt;WRAPPER_CPP -->
<g id="edge1" class="edge">
<title>CPP&#45;&gt;WRAPPER_CPP</title>
<path fill="none" stroke="black" stroke-dasharray="5,2" d="M373.98,-749.79C387.88,-739.33 406.47,-726.08 424,-716 433.01,-710.82 442.9,-705.82 452.54,-701.27"/>
<polygon fill="black" stroke="black" points="454.05,-704.43 461.67,-697.07 451.12,-698.07 454.05,-704.43"/>
<text text-anchor="middle" x="450" y="-719.8" font-family="Times,serif" font-size="14.00">include</text>
</g>
<!-- RUNTIME_CSPROJ -->
<g id="node9" class="node">
<title>RUNTIME_CSPROJ</title>
<polygon fill="darkviolet" stroke="black" points="370,-411 36,-411 36,-375 376,-375 376,-405 370,-411"/>
<polyline fill="none" stroke="black" points="370,-411 370,-405 "/>
<polyline fill="none" stroke="black" points="376,-405 370,-405 "/>
<text text-anchor="middle" x="206" y="-389.3" font-family="Times,serif" font-size="14.00">Mizux.DotnetNative.runtime.linux&#45;x64.csproj</text>
</g>
<!-- LIB&#45;&gt;RUNTIME_CSPROJ -->
<g id="edge15" class="edge">
<title>LIB&#45;&gt;RUNTIME_CSPROJ</title>
<path fill="none" stroke="black" stroke-dasharray="5,2" d="M291.17,-659.8C275.62,-611.28 233.11,-478.61 214.7,-421.14"/>
<polygon fill="black" stroke="black" points="217.93,-419.78 211.55,-411.32 211.27,-421.91 217.93,-419.78"/>
<text text-anchor="middle" x="285" y="-543.8" font-family="Times,serif" font-size="14.00">Content</text>
</g>
<!-- RUNTIME_NUPKG -->
<g id="node10" class="node">
<title>RUNTIME_NUPKG</title>
<polygon fill="darkviolet" stroke="black" points="385.5,-323 382.5,-327 361.5,-327 358.5,-323 44.5,-323 44.5,-287 385.5,-287 385.5,-323"/>
<text text-anchor="middle" x="215" y="-301.3" font-family="Times,serif" font-size="14.00">Mizux.DotnetNative.runtime.linux&#45;x64.nupkg</text>
</g>
<!-- LIB&#45;&gt;RUNTIME_NUPKG -->
<g id="edge16" class="edge">
<title>LIB&#45;&gt;RUNTIME_NUPKG</title>
<path fill="none" stroke="black" stroke-dasharray="5,2" d="M260.71,-659.84C198.99,-626.63 75.54,-549.61 27,-443 14.29,-415.09 9.39,-399.1 27,-374 42.63,-351.73 66.3,-336.73 91.64,-326.62"/>
<polygon fill="black" stroke="black" points="92.89,-329.89 101.04,-323.12 90.45,-323.33 92.89,-329.89"/>
<text text-anchor="middle" x="96" y="-499.3" font-family="Times,serif" font-size="14.00">pack</text>
</g>
<!-- WRAPPER_OBJ -->
<g id="node6" class="node">
<title>WRAPPER_OBJ</title>
<polygon fill="royalblue" stroke="black" points="578.5,-609 399.5,-609 399.5,-573 584.5,-573 584.5,-603 578.5,-609"/>
<polyline fill="none" stroke="black" points="578.5,-609 578.5,-603 "/>
<polyline fill="none" stroke="black" points="584.5,-603 578.5,-603 "/>
<text text-anchor="middle" x="492" y="-587.3" font-family="Times,serif" font-size="14.00">fooCSHARP_wrap.cxx.o</text>
</g>
<!-- WRAPPER_CPP&#45;&gt;WRAPPER_OBJ -->
<g id="edge3" class="edge">
<title>WRAPPER_CPP&#45;&gt;WRAPPER_OBJ</title>
<path fill="none" stroke="black" stroke-width="2" d="M484.66,-660.9C479.94,-655.38 475.49,-648.88 473,-642 470.2,-634.26 471.61,-625.89 474.66,-618.26"/>
<polygon fill="black" stroke="black" stroke-width="2" points="477.9,-619.59 479.2,-609.07 471.63,-616.49 477.9,-619.59"/>
<text text-anchor="middle" x="490" y="-630.8" font-family="Times,serif" font-size="14.00">g++</text>
</g>
<!-- WRAPPER_LIB -->
<g id="node7" class="node">
<title>WRAPPER_LIB</title>
<polygon fill="royalblue" stroke="black" points="589.5,-522 366.5,-522 366.5,-518 362.5,-518 362.5,-514 366.5,-514 366.5,-492 362.5,-492 362.5,-488 366.5,-488 366.5,-484 589.5,-484 589.5,-522"/>
<polyline fill="none" stroke="black" points="366.5,-518 370.5,-518 370.5,-514 366.5,-514 "/>
<polyline fill="none" stroke="black" points="366.5,-492 370.5,-492 370.5,-488 366.5,-488 "/>
<text text-anchor="middle" x="478" y="-506.8" font-family="Times,serif" font-size="14.00">mizux&#45;dotnetnative&#45;native.so</text>
<text text-anchor="middle" x="478" y="-491.8" font-family="Times,serif" font-size="14.00">runtimes/linux&#45;x64/native/</text>
</g>
<!-- WRAPPER_OBJ&#45;&gt;WRAPPER_LIB -->
<g id="edge4" class="edge">
<title>WRAPPER_OBJ&#45;&gt;WRAPPER_LIB</title>
<path fill="none" stroke="black" stroke-width="2" d="M484.34,-572.88C482.19,-567.3 480.14,-560.99 479,-555 477.61,-547.67 477.02,-539.63 476.87,-532.16"/>
<polygon fill="black" stroke="black" stroke-width="2" points="480.37,-532.1 476.89,-522.09 473.37,-532.08 480.37,-532.1"/>
<text text-anchor="middle" x="486" y="-543.8" font-family="Times,serif" font-size="14.00">ld</text>
</g>
<!-- WRAPPER_LIB&#45;&gt;RUNTIME_CSPROJ -->
<g id="edge17" class="edge">
<title>WRAPPER_LIB&#45;&gt;RUNTIME_CSPROJ</title>
<path fill="none" stroke="black" stroke-dasharray="5,2" d="M432.47,-483.92C384.45,-464.86 308.89,-434.85 258.41,-414.81"/>
<polygon fill="black" stroke="black" points="259.57,-411.5 248.98,-411.07 256.98,-418.01 259.57,-411.5"/>
<text text-anchor="middle" x="411" y="-454.8" font-family="Times,serif" font-size="14.00">Content</text>
</g>
<!-- WRAPPER_LIB&#45;&gt;RUNTIME_NUPKG -->
<g id="edge18" class="edge">
<title>WRAPPER_LIB&#45;&gt;RUNTIME_NUPKG</title>
<path fill="none" stroke="black" stroke-dasharray="5,2" d="M515.88,-483.78C531.63,-474.05 548.26,-460.45 557,-443 570.74,-415.58 576.46,-397.7 557,-374 535.31,-347.58 466.2,-331.23 395.72,-321.22"/>
<polygon fill="black" stroke="black" points="396.16,-317.74 385.78,-319.85 395.2,-324.68 396.16,-317.74"/>
<text text-anchor="middle" x="586" y="-389.3" font-family="Times,serif" font-size="14.00">pack</text>
</g>
<!-- WRAPPER_LIB&#45;&gt;DOTNET_CS -->
<g id="edge19" class="edge">
<title>WRAPPER_LIB&#45;&gt;DOTNET_CS</title>
<path fill="none" stroke="black" stroke-dasharray="5,2" d="M574.42,-483.85C594.19,-475.11 612,-462.16 622,-443 636.19,-415.81 633.74,-402.33 622,-374 610.77,-346.9 582.16,-329.47 557.64,-319.04"/>
<polygon fill="black" stroke="black" points="558.72,-315.71 548.14,-315.26 556.13,-322.21 558.72,-315.71"/>
<text text-anchor="middle" x="660" y="-389.3" font-family="Times,serif" font-size="14.00">PInvoke</text>
</g>
<!-- DOTNET_PKG -->
<g id="node8" class="node">
<title>DOTNET_PKG</title>
<polygon fill="darkviolet" stroke="black" points="548,-412 398,-412 394,-408 394,-374 544,-374 548,-378 548,-412"/>
<polyline fill="none" stroke="black" points="544,-408 394,-408 "/>
<polyline fill="none" stroke="black" points="544,-408 544,-374 "/>
<polyline fill="none" stroke="black" points="544,-408 548,-412 "/>
<text text-anchor="middle" x="471" y="-396.8" font-family="Times,serif" font-size="14.00">.Net SDK packages</text>
<text text-anchor="middle" x="471" y="-381.8" font-family="Times,serif" font-size="14.00">e.g. dotnet&#45;cli</text>
</g>
<!-- RUNTIME_CSPROJ&#45;&gt;RUNTIME_NUPKG -->
<g id="edge5" class="edge">
<title>RUNTIME_CSPROJ&#45;&gt;RUNTIME_NUPKG</title>
<path fill="none" stroke="black" stroke-width="2" d="M207.82,-374.6C209.06,-362.75 210.73,-346.82 212.14,-333.29"/>
<polygon fill="black" stroke="black" stroke-width="2" points="215.65,-333.39 213.21,-323.08 208.69,-332.67 215.65,-333.39"/>
<text text-anchor="middle" x="253.5" y="-344.8" font-family="Times,serif" font-size="14.00">dotnet pack</text>
</g>
<!-- DOTNET_CSPROJ -->
<g id="node12" class="node">
<title>DOTNET_CSPROJ</title>
<polygon fill="darkviolet" stroke="black" points="494.5,-236 291.5,-236 291.5,-200 500.5,-200 500.5,-230 494.5,-236"/>
<polyline fill="none" stroke="black" points="494.5,-236 494.5,-230 "/>
<polyline fill="none" stroke="black" points="500.5,-230 494.5,-230 "/>
<text text-anchor="middle" x="396" y="-214.3" font-family="Times,serif" font-size="14.00">Mizux.DotnetNative.csproj</text>
</g>
<!-- RUNTIME_NUPKG&#45;&gt;DOTNET_CSPROJ -->
<g id="edge11" class="edge">
<title>RUNTIME_NUPKG&#45;&gt;DOTNET_CSPROJ</title>
<path fill="none" stroke="black" stroke-dasharray="5,2" d="M247.74,-286.8C266.9,-276.9 291.65,-264.4 314,-254 323.99,-249.35 334.77,-244.58 345.12,-240.11"/>
<polygon fill="black" stroke="black" points="346.66,-243.26 354.48,-236.11 343.91,-236.83 346.66,-243.26"/>
<text text-anchor="middle" x="379.5" y="-257.8" font-family="Times,serif" font-size="14.00">PackageReference</text>
</g>
<!-- DOTNET_NUPKG -->
<g id="node14" class="node">
<title>DOTNET_NUPKG</title>
<polygon fill="darkviolet" stroke="black" points="430.5,-60 427.5,-64 406.5,-64 403.5,-60 221.5,-60 221.5,-24 430.5,-24 430.5,-60"/>
<text text-anchor="middle" x="326" y="-38.3" font-family="Times,serif" font-size="14.00">Mizux.DotnetNative.nupkg</text>
</g>
<!-- RUNTIME_NUPKG&#45;&gt;DOTNET_NUPKG -->
<g id="edge10" class="edge">
<title>RUNTIME_NUPKG&#45;&gt;DOTNET_NUPKG</title>
<path fill="none" stroke="black" stroke-dasharray="5,2" d="M211.24,-286.87C204.41,-251.39 193.5,-168.39 226,-111 237.21,-91.21 256.84,-75.99 275.76,-65.02"/>
<polygon fill="black" stroke="black" points="277.58,-68.01 284.66,-60.12 274.21,-61.88 277.58,-68.01"/>
<text text-anchor="middle" x="256" y="-170.8" font-family="Times,serif" font-size="14.00">dependencies</text>
</g>
<!-- DOTNET_CS&#45;&gt;DOTNET_CSPROJ -->
<g id="edge6" class="edge">
<title>DOTNET_CS&#45;&gt;DOTNET_CSPROJ</title>
<path fill="none" stroke="black" stroke-dasharray="5,2" d="M492.51,-286.8C474.15,-273.9 448.81,-256.1 428.71,-241.98"/>
<polygon fill="black" stroke="black" points="430.64,-239.06 420.45,-236.18 426.62,-244.79 430.64,-239.06"/>
<text text-anchor="middle" x="492.5" y="-257.8" font-family="Times,serif" font-size="14.00">Compile</text>
</g>
<!-- DOTNET_DLL -->
<g id="node13" class="node">
<title>DOTNET_DLL</title>
<polygon fill="darkviolet" stroke="black" points="417.5,-149 234.5,-149 234.5,-145 230.5,-145 230.5,-141 234.5,-141 234.5,-119 230.5,-119 230.5,-115 234.5,-115 234.5,-111 417.5,-111 417.5,-149"/>
<polyline fill="none" stroke="black" points="234.5,-145 238.5,-145 238.5,-141 234.5,-141 "/>
<polyline fill="none" stroke="black" points="234.5,-119 238.5,-119 238.5,-115 234.5,-115 "/>
<text text-anchor="middle" x="326" y="-133.8" font-family="Times,serif" font-size="14.00">Mizux.DotnetNative.dll</text>
<text text-anchor="middle" x="326" y="-118.8" font-family="Times,serif" font-size="14.00">lib/netstandard2.1/</text>
</g>
<!-- DOTNET_CSPROJ&#45;&gt;DOTNET_DLL -->
<g id="edge7" class="edge">
<title>DOTNET_CSPROJ&#45;&gt;DOTNET_DLL</title>
<path fill="none" stroke="black" stroke-width="2" d="M377.53,-199.8C371.99,-194.31 366.05,-188.08 361,-182 354.65,-174.36 348.32,-165.58 342.82,-157.48"/>
<polygon fill="black" stroke="black" stroke-width="2" points="345.67,-155.44 337.22,-149.05 339.84,-159.31 345.67,-155.44"/>
<text text-anchor="middle" x="405" y="-170.8" font-family="Times,serif" font-size="14.00">dotnet build</text>
</g>
<!-- DOTNET_CSPROJ&#45;&gt;DOTNET_NUPKG -->
<g id="edge9" class="edge">
<title>DOTNET_CSPROJ&#45;&gt;DOTNET_NUPKG</title>
<path fill="none" stroke="black" stroke-width="2" d="M432.41,-199.98C439.07,-195.14 445.13,-189.19 449,-182 460.74,-160.18 442.32,-130.09 427,-111 411.86,-92.13 390.06,-76.54 370.59,-65.07"/>
<polygon fill="black" stroke="black" stroke-width="2" points="372.26,-61.99 361.84,-60.09 368.8,-68.08 372.26,-61.99"/>
<text text-anchor="middle" x="491.5" y="-126.3" font-family="Times,serif" font-size="14.00">dotnet pack</text>
</g>
<!-- DOTNET_DLL&#45;&gt;DOTNET_NUPKG -->
<g id="edge8" class="edge">
<title>DOTNET_DLL&#45;&gt;DOTNET_NUPKG</title>
<path fill="none" stroke="black" stroke-dasharray="5,2" d="M326,-110.76C326,-98.93 326,-83.32 326,-70.05"/>
<polygon fill="black" stroke="black" points="329.5,-70.04 326,-60.04 322.5,-70.04 329.5,-70.04"/>
<text text-anchor="middle" x="343" y="-81.8" font-family="Times,serif" font-size="14.00">pack</text>
</g>
</g>
</svg>
